<?xml version="1.0" encoding="utf-8" standalone="no"?>
<!DOCTYPE svg PUBLIC "-//W3C//DTD SVG 1.1//EN"
  "http://www.w3.org/Graphics/SVG/1.1/DTD/svg11.dtd">
<svg xmlns:xlink="http://www.w3.org/1999/xlink" width="371.52pt" height="280.512pt" viewBox="0 0 371.52 280.512" xmlns="http://www.w3.org/2000/svg" version="1.1">
 <metadata>
  <rdf:RDF xmlns:dc="http://purl.org/dc/elements/1.1/" xmlns:cc="http://creativecommons.org/ns#" xmlns:rdf="http://www.w3.org/1999/02/22-rdf-syntax-ns#">
   <cc:Work>
    <dc:type rdf:resource="http://purl.org/dc/dcmitype/StillImage"/>
    <dc:date>2024-05-27T17:31:18.432413</dc:date>
    <dc:format>image/svg+xml</dc:format>
    <dc:creator>
     <cc:Agent>
      <dc:title>Matplotlib v3.8.2, https://matplotlib.org/</dc:title>
     </cc:Agent>
    </dc:creator>
   </cc:Work>
  </rdf:RDF>
 </metadata>
 <defs>
  <style type="text/css">*{stroke-linejoin: round; stroke-linecap: butt}</style>
 </defs>
 <g id="figure_1">
  <g id="patch_1">
   <path d="M 0 280.512 
L 371.52 280.512 
L 371.52 0 
L 0 0 
L 0 280.512 
z
" style="fill: none"/>
  </g>
  <g id="axes_1">
   <g id="line2d_1">
    <path d="M 7.2 261.216 
L 364.9152 261.216 
L 364.9152 261.216 
" clip-path="url(#pb6cf821be9)" style="fill: none; stroke: #72b5f2; stroke-width: 1.5; stroke-linecap: square"/>
   </g>
   <g id="line2d_2">
    <path d="M 7.2 261.216 
L 364.9152 261.215989 
L 364.9152 261.215989 
" clip-path="url(#pb6cf821be9)" style="fill: none; stroke: #72b5f2; stroke-width: 1.5; stroke-linecap: square"/>
   </g>
   <g id="line2d_3">
    <path d="M 7.2 261.216 
L 132.192 261.109229 
L 148.8576 260.951995 
L 198.8544 260.90035 
L 247.6608 260.942844 
L 263.136 261.115246 
L 292.896 261.203592 
L 364.9152 261.215779 
L 364.9152 261.215779 
" clip-path="url(#pb6cf821be9)" style="fill: none; stroke: #72b5f2; stroke-width: 1.5; stroke-linecap: square"/>
   </g>
   <g id="line2d_4">
    <path d="M 7.2 261.216 
L 127.4304 261.12305 
L 131.5968 260.59114 
L 138.7392 259.987958 
L 148.8576 259.631421 
L 173.2608 259.392113 
L 192.3072 259.336058 
L 195.8784 259.383879 
L 200.64 259.313952 
L 203.616 259.383249 
L 207.1872 259.438833 
L 211.3536 259.407369 
L 213.7344 259.442821 
L 214.9248 259.415978 
L 216.7104 259.457695 
L 219.6864 259.479237 
L 236.9472 259.638404 
L 240.5184 259.814579 
L 241.1136 259.910274 
L 241.7088 260.270218 
L 242.304 258.687258 
L 244.6848 258.785822 
L 245.8752 258.767026 
L 253.6128 259.76194 
L 260.7552 260.33118 
L 275.04 260.885799 
L 294.6816 261.132429 
L 332.7744 261.209136 
L 364.9152 261.214317 
L 364.9152 261.214317 
" clip-path="url(#pb6cf821be9)" style="fill: none; stroke: #72b5f2; stroke-width: 1.5; stroke-linecap: square"/>
   </g>
   <g id="line2d_5">
    <path d="M 7.2 261.216 
L 126.8352 261.216 
L 129.8112 259.796268 
L 132.7872 258.58159 
L 137.5488 257.287274 
L 142.9056 256.330817 
L 144.096 256.070457 
L 145.8816 255.752061 
L 150.048 255.180689 
L 154.8096 254.77209 
L 155.4048 254.796351 
L 156.5952 254.64041 
L 160.7616 254.717295 
L 164.3328 254.530381 
L 169.0944 254.244522 
L 169.6896 254.341151 
L 176.2368 254.178505 
L 182.1888 254.504934 
L 183.9744 254.49971 
L 193.4976 254.669899 
L 194.688 254.810447 
L 195.8784 254.756769 
L 198.2592 254.79131 
L 199.4496 254.694908 
L 205.9968 254.816463 
L 207.7824 254.963516 
L 208.3776 254.917184 
L 208.9728 255.003344 
L 211.3536 254.934627 
L 213.1392 254.874867 
L 218.496 255.110201 
L 219.0912 255.020201 
L 228.6144 255.339583 
L 231.5904 255.253636 
L 240.5184 255.559168 
L 242.304 255.436692 
L 244.0896 255.424173 
L 245.8752 255.423567 
L 248.8512 256.48089 
L 251.232 257.126957 
L 252.4224 257.458848 
L 253.6128 257.728238 
L 254.208 257.782932 
L 255.9936 258.191984 
L 258.9696 258.719171 
L 263.136 259.310053 
L 265.5168 259.598921 
L 267.8976 259.794649 
L 279.8016 260.556935 
L 297.0624 261.009906 
L 329.7984 261.190725 
L 364.9152 261.210875 
L 364.9152 261.210875 
" clip-path="url(#pb6cf821be9)" style="fill: none; stroke: #72b5f2; stroke-width: 1.5; stroke-linecap: square"/>
   </g>
   <g id="line2d_6">
    <path d="M 7.2 261.216 
L 126.8352 261.216 
L 130.4064 259.949528 
L 137.5488 258.125065 
L 139.3344 257.798135 
L 145.2864 256.895339 
L 150.048 256.699404 
L 152.4288 256.608857 
L 154.2144 256.548492 
L 157.1904 256.317716 
L 158.3808 256.279787 
L 159.5712 256.2093 
L 164.3328 256.40041 
L 165.5232 256.354747 
L 167.3088 256.385 
L 175.0464 256.25295 
L 176.832 256.282102 
L 178.0224 256.239592 
L 183.3792 256.202124 
L 184.5696 256.253535 
L 187.5456 256.212595 
L 188.1408 256.323809 
L 201.2352 256.316975 
L 201.8304 256.400094 
L 203.0208 256.30284 
L 204.2112 256.381131 
L 205.9968 256.384428 
L 208.3776 256.377879 
L 210.1632 256.273811 
L 211.3536 256.268687 
L 213.1392 256.410357 
L 216.7104 256.463013 
L 219.0912 256.605508 
L 220.2816 256.697378 
L 221.472 256.698892 
L 223.8528 256.770304 
L 225.6384 257.201356 
L 226.2336 257.727716 
L 226.8288 253.779168 
L 228.0192 253.916147 
L 229.2096 253.867037 
L 230.4 253.962352 
L 233.376 254.156518 
L 236.9472 254.15704 
L 237.5424 254.208397 
L 238.1376 254.145243 
L 241.7088 254.360771 
L 244.6848 254.499765 
L 245.28 254.582011 
L 245.8752 254.452453 
L 247.6608 255.141455 
L 251.232 256.407139 
L 257.7792 258.139623 
L 263.7312 259.154841 
L 267.8976 259.651044 
L 273.2544 260.129052 
L 278.016 260.409387 
L 285.1584 260.72117 
L 298.848 261.021686 
L 332.7744 261.192022 
L 364.9152 261.212078 
L 364.9152 261.212078 
" clip-path="url(#pb6cf821be9)" style="fill: none; stroke: #72b5f2; stroke-width: 1.5; stroke-linecap: square"/>
   </g>
   <g id="line2d_7">
    <path d="M 7.2 261.216 
L 126.8352 261.216 
L 128.6208 255.613428 
L 130.4064 250.683269 
L 131.5968 247.857781 
L 136.9536 237.39423 
L 138.7392 234.97433 
L 139.3344 234.314268 
L 139.9296 233.880038 
L 140.5248 233.072742 
L 141.12 232.59474 
L 141.7152 231.831652 
L 142.3104 231.465512 
L 143.5008 230.03803 
L 144.6912 229.104805 
L 145.2864 228.288761 
L 145.8816 228.285978 
L 146.4768 227.660552 
L 148.2624 226.424934 
L 149.4528 225.861326 
L 150.048 225.071847 
L 151.8336 224.340565 
L 153.6192 224.615895 
L 154.2144 223.914972 
L 154.8096 223.787863 
L 155.4048 223.874582 
L 156 224.093759 
L 157.7856 223.26596 
L 158.3808 222.321524 
L 158.976 222.52359 
L 159.5712 222.517912 
L 160.1664 221.550517 
L 160.7616 222.024718 
L 161.3568 222.088034 
L 161.952 221.746883 
L 163.1424 221.891867 
L 163.7376 221.373655 
L 164.3328 221.422404 
L 164.928 220.848548 
L 166.1184 220.837202 
L 166.7136 221.443163 
L 167.3088 221.111002 
L 167.904 221.155655 
L 169.0944 220.357848 
L 169.6896 220.822572 
L 170.88 221.111497 
L 171.4752 220.977421 
L 173.856 221.934782 
L 174.4512 222.298508 
L 175.6416 222.447135 
L 176.2368 222.501523 
L 176.832 222.674686 
L 177.4272 222.251421 
L 178.0224 222.518207 
L 178.6176 222.291971 
L 179.2128 222.390677 
L 179.808 221.77862 
L 180.4032 221.611984 
L 180.9984 221.571452 
L 182.1888 221.746166 
L 182.784 221.646619 
L 183.3792 221.304411 
L 183.9744 221.692144 
L 185.1648 221.591876 
L 186.3552 222.113186 
L 186.9504 222.70129 
L 188.1408 223.083886 
L 188.736 223.044651 
L 189.3312 222.857492 
L 189.9264 222.913093 
L 190.5216 223.189152 
L 191.1168 224.044347 
L 191.712 223.713415 
L 192.9024 224.293986 
L 193.4976 223.783672 
L 194.0928 223.569881 
L 194.688 223.637711 
L 195.2832 224.225648 
L 195.8784 223.642317 
L 198.2592 223.901099 
L 199.4496 223.108018 
L 200.0448 223.115116 
L 200.64 223.870765 
L 201.2352 223.974688 
L 201.8304 224.492951 
L 202.4256 225.2012 
L 203.0208 225.032418 
L 203.616 225.004109 
L 204.2112 225.712663 
L 204.8064 225.009487 
L 205.4016 224.689692 
L 207.1872 224.320234 
L 207.7824 224.683041 
L 208.3776 224.609075 
L 208.9728 225.338836 
L 209.568 225.274305 
L 210.1632 225.498496 
L 210.7584 225.584403 
L 211.9488 226.085344 
L 212.544 226.836889 
L 213.1392 227.152036 
L 213.7344 227.271844 
L 214.3296 227.15946 
L 215.52 228.04039 
L 216.1152 227.95845 
L 216.7104 228.231999 
L 217.3056 227.934878 
L 217.9008 228.056004 
L 220.2816 227.992875 
L 220.8768 228.653458 
L 221.472 228.520609 
L 222.0672 228.862373 
L 222.6624 228.020266 
L 223.2576 228.780194 
L 223.8528 229.09426 
L 224.448 229.216379 
L 225.0432 229.123303 
L 225.6384 229.314762 
L 226.2336 229.182009 
L 227.424 228.63748 
L 228.0192 229.076023 
L 228.6144 228.911348 
L 229.2096 228.903207 
L 229.8048 228.291813 
L 230.9952 228.762649 
L 231.5904 228.933172 
L 232.1856 228.713788 
L 232.7808 228.678126 
L 233.376 228.878015 
L 233.9712 228.659154 
L 234.5664 228.636195 
L 235.1616 228.194791 
L 235.7568 228.122018 
L 236.352 228.277416 
L 236.9472 228.063982 
L 237.5424 228.523628 
L 238.7328 227.615351 
L 239.328 227.304453 
L 240.5184 227.107714 
L 241.1136 227.677772 
L 242.304 227.999463 
L 242.8992 228.457433 
L 243.4944 228.408065 
L 244.0896 228.716368 
L 244.6848 229.386817 
L 245.28 229.176415 
L 245.8752 229.642456 
L 247.0656 231.202569 
L 248.256 233.396678 
L 249.4464 236.236277 
L 251.232 239.368019 
L 251.8272 239.922888 
L 253.0176 241.640526 
L 253.6128 242.357773 
L 254.208 243.264305 
L 255.9936 245.271555 
L 257.184 246.767078 
L 258.9696 248.760903 
L 259.5648 249.127567 
L 261.3504 251.56632 
L 261.9456 253.2171 
L 262.5408 244.715526 
L 263.136 245.283277 
L 264.3264 246.599451 
L 265.5168 247.528993 
L 267.8976 249.815166 
L 268.4928 250.250976 
L 269.6832 251.289723 
L 274.4448 253.929153 
L 279.2064 255.878805 
L 282.1824 256.837724 
L 288.7296 258.395932 
L 295.872 259.473962 
L 301.824 260.029364 
L 309.5616 260.501026 
L 314.9184 260.708869 
L 327.4176 260.980899 
L 342.2976 261.114114 
L 364.9152 261.186676 
L 364.9152 261.186676 
" clip-path="url(#pb6cf821be9)" style="fill: none; stroke: #72b5f2; stroke-width: 1.5; stroke-linecap: square"/>
   </g>
   <g id="line2d_8">
    <path d="M 7.2 261.216 
L 126.8352 261.216 
L 128.6208 248.10239 
L 129.8112 240.400749 
L 132.7872 223.836413 
L 133.3824 221.481507 
L 135.7632 209.983013 
L 136.9536 205.07979 
L 137.5488 202.15026 
L 138.144 200.00104 
L 138.7392 199.446498 
L 139.9296 195.813072 
L 140.5248 194.380476 
L 141.12 191.671563 
L 141.7152 191.08792 
L 143.5008 186.684803 
L 144.096 185.31833 
L 144.6912 183.245765 
L 145.2864 182.607543 
L 145.8816 181.549947 
L 146.4768 179.648584 
L 148.2624 177.241208 
L 148.8576 177.252968 
L 149.4528 176.445603 
L 150.048 175.164671 
L 150.6432 176.474814 
L 151.2384 174.473963 
L 151.8336 173.272004 
L 152.4288 174.375306 
L 153.024 174.946783 
L 153.6192 173.628959 
L 154.2144 173.843323 
L 154.8096 174.992725 
L 155.4048 175.665941 
L 156 175.531474 
L 156.5952 174.377318 
L 157.1904 174.275282 
L 158.3808 175.3691 
L 158.976 174.574414 
L 159.5712 173.517962 
L 160.1664 172.175237 
L 161.3568 171.104857 
L 162.5472 171.135118 
L 163.1424 169.933966 
L 163.7376 169.348623 
L 164.3328 168.288458 
L 164.928 168.418832 
L 165.5232 168.284258 
L 166.1184 167.113945 
L 166.7136 166.363685 
L 167.3088 165.999458 
L 167.904 164.828213 
L 168.4992 164.7086 
L 169.0944 166.508778 
L 169.6896 165.688105 
L 170.2848 165.805438 
L 170.88 165.198734 
L 171.4752 165.411302 
L 172.0704 166.30337 
L 172.6656 164.692457 
L 173.2608 164.705603 
L 173.856 166.287717 
L 174.4512 165.966037 
L 175.0464 166.03853 
L 175.6416 165.775374 
L 176.2368 165.107942 
L 176.832 164.952829 
L 177.4272 165.961504 
L 178.0224 166.428481 
L 178.6176 167.373996 
L 179.2128 166.676804 
L 179.808 167.37797 
L 180.4032 166.565065 
L 182.1888 168.427851 
L 182.784 168.473492 
L 183.3792 168.911127 
L 183.9744 168.628387 
L 184.5696 168.732179 
L 185.1648 169.630497 
L 185.76 169.020158 
L 186.3552 169.46544 
L 186.9504 169.68219 
L 187.5456 170.285158 
L 188.1408 173.138021 
L 189.9264 175.309344 
L 191.712 172.339722 
L 192.3072 171.49412 
L 192.9024 171.020391 
L 193.4976 171.574858 
L 194.0928 173.177937 
L 194.688 172.344779 
L 195.2832 173.610192 
L 195.8784 171.516432 
L 196.4736 170.805896 
L 197.0688 170.855152 
L 197.664 173.40139 
L 198.2592 172.411974 
L 198.8544 172.678299 
L 199.4496 172.590897 
L 200.0448 172.066209 
L 200.64 172.787564 
L 201.2352 173.964819 
L 201.8304 173.181745 
L 202.4256 173.537704 
L 203.0208 174.48623 
L 203.616 174.537589 
L 204.2112 175.467759 
L 204.8064 175.708375 
L 205.9968 178.441421 
L 207.1872 180.280285 
L 207.7824 180.103193 
L 208.3776 181.790435 
L 208.9728 182.613296 
L 209.568 182.948775 
L 210.1632 183.771186 
L 210.7584 184.198037 
L 211.3536 185.711769 
L 211.9488 185.369872 
L 212.544 184.793597 
L 213.7344 187.008077 
L 214.9248 190.232855 
L 215.52 193.944422 
L 216.1152 203.572438 
L 216.7104 135.252763 
L 217.9008 135.391917 
L 218.496 135.217303 
L 219.0912 136.0534 
L 219.6864 135.615822 
L 220.2816 137.287393 
L 220.8768 138.062993 
L 221.472 137.522922 
L 222.0672 138.059761 
L 223.2576 139.619593 
L 223.8528 138.912246 
L 224.448 141.293637 
L 225.0432 141.198545 
L 225.6384 140.341494 
L 226.2336 141.028863 
L 226.8288 141.384042 
L 227.424 142.836183 
L 228.0192 142.329309 
L 228.6144 142.548705 
L 229.2096 143.75182 
L 229.8048 144.22495 
L 230.4 144.924197 
L 230.9952 144.200789 
L 231.5904 144.998325 
L 232.1856 144.445307 
L 232.7808 142.726448 
L 233.376 143.150688 
L 233.9712 143.107311 
L 234.5664 141.948809 
L 235.1616 141.309306 
L 235.7568 142.918859 
L 236.352 142.453774 
L 236.9472 141.523948 
L 237.5424 142.708425 
L 238.1376 143.329517 
L 238.7328 142.593736 
L 239.328 143.66654 
L 239.9232 144.112626 
L 240.5184 145.693021 
L 241.1136 145.189201 
L 241.7088 146.242409 
L 242.304 147.576869 
L 242.8992 148.210158 
L 243.4944 148.111818 
L 244.0896 147.631308 
L 244.6848 149.436657 
L 245.28 149.614933 
L 245.8752 150.54066 
L 246.4704 153.50921 
L 247.0656 157.195681 
L 247.6608 162.418674 
L 248.8512 169.00278 
L 251.232 184.124412 
L 252.4224 190.362791 
L 253.0176 192.472551 
L 253.6128 196.149411 
L 254.8032 202.12702 
L 255.9936 206.171602 
L 256.5888 208.557669 
L 257.184 209.949472 
L 257.7792 212.075304 
L 258.9696 215.17769 
L 260.16 218.854257 
L 260.7552 219.877978 
L 261.9456 223.661538 
L 263.136 226.135992 
L 266.112 232.812769 
L 267.8976 236.087446 
L 269.6832 239.192766 
L 270.8736 240.920792 
L 272.6592 242.808911 
L 273.2544 243.368762 
L 274.4448 244.752895 
L 277.4208 247.735912 
L 279.8016 249.839389 
L 281.5872 250.9366 
L 282.7776 251.83223 
L 283.968 252.448891 
L 284.5632 252.836846 
L 285.1584 253.395024 
L 288.1344 254.973131 
L 291.1104 256.083063 
L 292.3008 256.536214 
L 293.4912 256.852864 
L 295.872 257.405805 
L 298.848 258.122805 
L 304.2048 259.118456 
L 305.3952 259.203686 
L 313.728 260.011852 
L 324.4416 260.604941 
L 341.7024 261.013234 
L 364.9152 261.153292 
L 364.9152 261.153292 
" clip-path="url(#pb6cf821be9)" style="fill: none; stroke: #72b5f2; stroke-width: 1.5; stroke-linecap: square"/>
   </g>
   <g id="line2d_9">
    <path d="M 7.2 261.216 
L 126.8352 261.216 
L 128.6208 238.78918 
L 129.8112 225.150069 
L 131.5968 207.292024 
L 132.7872 196.196807 
L 134.5728 183.868713 
L 136.9536 168.676368 
L 138.144 162.29383 
L 138.7392 158.207145 
L 139.3344 155.484711 
L 139.9296 153.33279 
L 140.5248 150.226742 
L 141.12 148.989828 
L 142.3104 145.439516 
L 143.5008 138.859719 
L 145.2864 132.311536 
L 147.072 128.513858 
L 147.6672 127.140007 
L 148.2624 126.312091 
L 149.4528 123.172585 
L 150.048 121.009201 
L 150.6432 120.359408 
L 151.2384 118.739922 
L 151.8336 117.584253 
L 152.4288 115.460374 
L 153.024 112.423599 
L 153.6192 112.123788 
L 154.2144 112.015395 
L 154.8096 113.912981 
L 155.4048 113.667511 
L 156 113.237088 
L 156.5952 111.990253 
L 157.1904 111.644179 
L 157.7856 111.617829 
L 158.3808 111.03552 
L 158.976 111.130707 
L 159.5712 110.456163 
L 160.7616 110.405958 
L 161.3568 111.362914 
L 161.952 109.957388 
L 162.5472 109.771896 
L 163.1424 109.320717 
L 163.7376 108.251583 
L 164.3328 106.614039 
L 164.928 105.91026 
L 165.5232 107.227322 
L 166.1184 105.995584 
L 166.7136 106.702455 
L 167.3088 105.505145 
L 167.904 106.613896 
L 168.4992 107.326448 
L 169.0944 107.269856 
L 169.6896 108.039718 
L 170.2848 109.984939 
L 170.88 110.436499 
L 171.4752 111.296562 
L 172.0704 110.090155 
L 173.2608 105.905289 
L 173.856 106.798965 
L 174.4512 108.485123 
L 175.0464 108.561716 
L 175.6416 107.66599 
L 176.2368 106.488535 
L 176.832 107.093552 
L 177.4272 109.251415 
L 178.0224 109.382885 
L 178.6176 108.34212 
L 179.2128 107.921333 
L 179.808 106.753944 
L 180.4032 105.301334 
L 180.9984 106.102907 
L 181.5936 105.995244 
L 182.784 108.085934 
L 183.3792 107.024934 
L 183.9744 107.326696 
L 184.5696 107.465428 
L 185.1648 107.150826 
L 185.76 106.438739 
L 186.3552 107.301438 
L 187.5456 111.956301 
L 188.1408 111.517735 
L 188.736 112.624865 
L 189.3312 112.523342 
L 190.5216 109.885525 
L 191.1168 113.392957 
L 191.712 113.355681 
L 192.3072 113.704524 
L 193.4976 116.477266 
L 194.688 114.413213 
L 195.2832 112.252567 
L 195.8784 113.612367 
L 196.4736 113.121659 
L 197.0688 113.078804 
L 197.664 116.065337 
L 198.2592 116.280701 
L 198.8544 114.767262 
L 200.0448 117.121072 
L 200.64 119.643175 
L 201.2352 117.379656 
L 201.8304 118.602846 
L 202.4256 117.207606 
L 203.0208 116.935608 
L 203.616 115.336543 
L 204.8064 113.788177 
L 205.4016 111.480146 
L 205.9968 112.375335 
L 206.592 114.456214 
L 207.1872 112.627023 
L 208.3776 113.417845 
L 209.568 112.041964 
L 210.1632 111.996718 
L 211.3536 108.660035 
L 211.9488 109.346211 
L 212.544 111.762204 
L 213.1392 112.796303 
L 213.7344 112.25559 
L 214.3296 112.379074 
L 214.9248 113.850977 
L 215.52 114.863508 
L 216.1152 114.919293 
L 216.7104 114.627289 
L 217.3056 116.951764 
L 217.9008 117.66599 
L 219.0912 119.877467 
L 219.6864 121.60111 
L 220.2816 122.493951 
L 220.8768 123.129814 
L 221.472 122.862706 
L 222.0672 124.418431 
L 222.6624 126.476091 
L 223.2576 126.855019 
L 223.8528 125.329097 
L 224.448 126.698659 
L 225.0432 127.254259 
L 225.6384 126.906258 
L 226.2336 127.968831 
L 226.8288 125.537575 
L 227.424 126.113444 
L 228.0192 125.796832 
L 228.6144 124.369054 
L 229.2096 125.792564 
L 229.8048 125.942649 
L 230.4 124.124786 
L 231.5904 126.264194 
L 232.1856 127.265436 
L 232.7808 128.64937 
L 233.376 128.745973 
L 233.9712 128.170455 
L 234.5664 129.282092 
L 235.1616 129.750404 
L 235.7568 129.49039 
L 236.352 130.196419 
L 236.9472 130.320414 
L 237.5424 131.683438 
L 238.1376 132.08589 
L 238.7328 132.932071 
L 239.328 136.388804 
L 239.9232 139.110765 
L 240.5184 140.212118 
L 241.1136 139.843002 
L 241.7088 140.412545 
L 242.8992 142.778458 
L 243.4944 145.373725 
L 244.0896 146.959666 
L 244.6848 152.886424 
L 245.28 160.977982 
L 245.8752 200.258075 
L 246.4704 71.314564 
L 248.256 94.185587 
L 249.4464 106.001031 
L 250.6368 117.265301 
L 251.232 121.367711 
L 251.8272 128.441349 
L 254.208 149.951867 
L 254.8032 153.456361 
L 255.9936 163.760482 
L 256.5888 167.982752 
L 257.7792 173.789198 
L 258.3744 178.425539 
L 258.9696 181.840134 
L 259.5648 184.436378 
L 260.16 188.200824 
L 263.7312 205.75615 
L 264.3264 207.40291 
L 264.9216 208.579051 
L 266.7072 214.35086 
L 267.3024 216.136654 
L 267.8976 217.50117 
L 268.4928 219.266268 
L 270.8736 224.988803 
L 271.4688 226.391626 
L 272.064 228.237124 
L 272.6592 229.225943 
L 274.4448 232.931099 
L 275.04 234.235457 
L 276.8256 237.116203 
L 277.4208 238.506446 
L 278.016 239.488 
L 279.8016 241.558591 
L 280.3968 242.549292 
L 282.7776 245.243092 
L 283.968 246.457734 
L 286.3488 248.228762 
L 287.5392 249.249722 
L 288.1344 249.579492 
L 290.5152 251.467113 
L 294.0864 253.460894 
L 298.2528 255.408199 
L 299.4432 255.743272 
L 300.6336 256.209712 
L 302.4192 256.70213 
L 304.2048 257.270121 
L 304.8 257.357153 
L 305.9904 257.643937 
L 311.9424 258.950795 
L 320.2752 259.901103 
L 325.0368 260.232709 
L 335.7504 260.720931 
L 361.9392 261.085794 
L 364.9152 261.102754 
L 364.9152 261.102754 
" clip-path="url(#pb6cf821be9)" style="fill: none; stroke: #72b5f2; stroke-width: 1.5; stroke-linecap: square"/>
   </g>
   <g id="line2d_10">
    <path d="M 7.2 261.216 
L 126.8352 261.216 
L 128.6208 236.170562 
L 129.8112 221.043821 
L 132.192 196.141887 
L 133.9776 182.056671 
L 134.5728 178.176147 
L 135.7632 169.014041 
L 136.3584 165.914903 
L 136.9536 160.70611 
L 137.5488 157.299485 
L 138.144 155.12628 
L 138.7392 152.185262 
L 139.3344 147.825653 
L 139.9296 145.52105 
L 140.5248 144.370394 
L 141.12 142.282397 
L 141.7152 142.140371 
L 142.3104 142.240023 
L 143.5008 135.821696 
L 144.096 134.247018 
L 144.6912 134.062817 
L 145.2864 134.198121 
L 145.8816 134.864905 
L 146.4768 131.397755 
L 147.072 130.425756 
L 147.6672 130.34587 
L 148.2624 125.915178 
L 148.8576 124.446515 
L 149.4528 122.499178 
L 150.048 121.116657 
L 150.6432 121.408144 
L 151.2384 119.895654 
L 151.8336 119.438488 
L 152.4288 117.97769 
L 153.024 117.984755 
L 153.6192 116.946015 
L 154.2144 119.671488 
L 154.8096 121.087995 
L 155.4048 121.208772 
L 156 119.565793 
L 156.5952 118.362404 
L 157.1904 118.647681 
L 157.7856 117.962418 
L 158.3808 115.912132 
L 158.976 119.197395 
L 159.5712 119.55354 
L 160.1664 122.483307 
L 160.7616 123.051862 
L 161.3568 122.229574 
L 161.952 127.620797 
L 162.5472 128.935868 
L 163.1424 128.128751 
L 164.3328 136.208984 
L 164.928 143.278359 
L 165.5232 173.835365 
L 166.1184 33.29397 
L 166.7136 32.403262 
L 167.3088 34.055518 
L 167.904 36.536692 
L 168.4992 35.377795 
L 170.2848 37.630884 
L 170.88 36.90261 
L 171.4752 36.54865 
L 172.6656 38.263645 
L 173.2608 38.571257 
L 173.856 40.265482 
L 174.4512 37.249813 
L 175.0464 36.283193 
L 175.6416 34.655665 
L 176.2368 36.168048 
L 176.832 36.643637 
L 177.4272 35.801722 
L 178.0224 37.549696 
L 178.6176 38.797789 
L 179.2128 37.164332 
L 179.808 38.965401 
L 180.4032 35.790821 
L 180.9984 35.656784 
L 181.5936 34.946663 
L 182.1888 37.411649 
L 182.784 36.077289 
L 183.3792 35.690908 
L 183.9744 35.437021 
L 184.5696 37.639646 
L 185.1648 42.881281 
L 185.76 44.277752 
L 186.3552 41.299874 
L 186.9504 40.589861 
L 187.5456 37.410424 
L 188.1408 35.769338 
L 188.736 34.982517 
L 189.9264 41.358681 
L 190.5216 40.925292 
L 191.1168 41.900827 
L 191.712 39.617314 
L 192.3072 42.01707 
L 192.9024 42.522057 
L 193.4976 42.455091 
L 194.0928 43.279205 
L 194.688 44.737308 
L 195.2832 45.750382 
L 195.8784 43.357214 
L 196.4736 43.50398 
L 197.0688 46.381099 
L 197.664 45.470093 
L 198.2592 46.108785 
L 198.8544 52.919143 
L 199.4496 52.150632 
L 200.0448 54.659711 
L 201.2352 57.289867 
L 201.8304 60.575138 
L 202.4256 59.492371 
L 203.0208 60.602648 
L 203.616 62.261743 
L 204.2112 62.752324 
L 204.8064 64.023522 
L 205.4016 66.053398 
L 205.9968 63.816591 
L 206.592 65.466018 
L 207.1872 63.244412 
L 207.7824 61.613767 
L 208.3776 65.367027 
L 208.9728 64.823697 
L 209.568 67.044354 
L 210.1632 65.966773 
L 210.7584 66.283617 
L 212.544 72.897483 
L 213.1392 73.600172 
L 213.7344 75.325004 
L 214.3296 76.627806 
L 214.9248 82.477376 
L 215.52 85.166563 
L 216.7104 83.935554 
L 217.3056 82.67145 
L 217.9008 78.873514 
L 218.496 79.978148 
L 219.0912 80.154299 
L 221.472 89.586728 
L 222.0672 92.500735 
L 222.6624 91.458845 
L 223.2576 92.721069 
L 223.8528 93.064626 
L 224.448 92.397441 
L 225.6384 96.080386 
L 226.2336 96.804461 
L 226.8288 100.521857 
L 227.424 103.406589 
L 228.0192 104.726693 
L 228.6144 106.954513 
L 229.2096 104.088851 
L 229.8048 105.908644 
L 230.4 108.760015 
L 230.9952 110.695251 
L 231.5904 111.587654 
L 232.1856 114.018016 
L 232.7808 118.048679 
L 233.376 123.138127 
L 233.9712 126.332363 
L 234.5664 136.221888 
L 235.1616 170.428908 
L 235.7568 19.296 
L 236.9472 23.45134 
L 237.5424 27.897596 
L 238.1376 28.257801 
L 238.7328 28.330029 
L 239.328 30.996855 
L 239.9232 31.932375 
L 241.1136 39.855298 
L 241.7088 37.61166 
L 242.304 37.360209 
L 243.4944 41.167648 
L 244.0896 43.103938 
L 244.6848 42.700063 
L 245.28 43.01632 
L 245.8752 45.006024 
L 247.0656 67.536109 
L 248.256 83.080732 
L 248.8512 95.105534 
L 249.4464 97.789421 
L 250.6368 110.510052 
L 251.8272 123.647243 
L 252.4224 129.736895 
L 253.0176 134.071831 
L 254.208 143.642546 
L 255.9936 156.535234 
L 256.5888 159.398003 
L 257.184 163.21967 
L 257.7792 164.400253 
L 258.3744 167.504964 
L 258.9696 171.877177 
L 260.7552 182.545161 
L 261.9456 190.266864 
L 264.3264 199.966697 
L 264.9216 201.803892 
L 266.7072 209.378388 
L 267.3024 211.26828 
L 267.8976 212.752771 
L 270.2784 219.941493 
L 270.8736 221.196847 
L 272.064 224.520348 
L 274.4448 230.766694 
L 275.6352 232.825898 
L 276.2304 234.593226 
L 278.6112 238.893723 
L 279.2064 239.41949 
L 280.3968 241.119118 
L 280.992 242.080157 
L 282.1824 243.322755 
L 282.7776 244.214326 
L 285.1584 246.611396 
L 285.7536 247.413661 
L 286.944 248.400482 
L 288.1344 249.367984 
L 288.7296 249.689968 
L 290.5152 251.030643 
L 291.7056 251.663619 
L 292.3008 252.078729 
L 297.0624 254.279366 
L 298.2528 254.791564 
L 300.6336 255.602437 
L 303.0144 256.324665 
L 308.3712 257.851125 
L 313.1328 258.732225 
L 322.0608 259.715279 
L 329.2032 260.27695 
L 342.2976 260.798089 
L 350.0352 260.953748 
L 359.5584 261.057086 
L 364.9152 261.09185 
L 364.9152 261.09185 
" clip-path="url(#pb6cf821be9)" style="fill: none; stroke: #72b5f2; stroke-width: 1.5; stroke-linecap: square"/>
   </g>
  </g>
 </g>
 <defs>
  <clipPath id="pb6cf821be9">
   <rect x="7.2" y="7.2" width="357.12" height="266.112"/>
  </clipPath>
 </defs>
</svg>
