<?xml version="1.0" encoding="utf-8" standalone="no"?>
<!DOCTYPE svg PUBLIC "-//W3C//DTD SVG 1.1//EN"
  "http://www.w3.org/Graphics/SVG/1.1/DTD/svg11.dtd">
<svg xmlns:xlink="http://www.w3.org/1999/xlink" width="225.236125pt" height="116.889pt" viewBox="0 0 225.236125 116.889" xmlns="http://www.w3.org/2000/svg" version="1.1">
 <metadata>
  <rdf:RDF xmlns:dc="http://purl.org/dc/elements/1.1/" xmlns:cc="http://creativecommons.org/ns#" xmlns:rdf="http://www.w3.org/1999/02/22-rdf-syntax-ns#">
   <cc:Work>
    <dc:type rdf:resource="http://purl.org/dc/dcmitype/StillImage"/>
    <dc:date>2022-03-23T12:27:42.786857</dc:date>
    <dc:format>image/svg+xml</dc:format>
    <dc:creator>
     <cc:Agent>
      <dc:title>Matplotlib v3.5.1, https://matplotlib.org/</dc:title>
     </cc:Agent>
    </dc:creator>
   </cc:Work>
  </rdf:RDF>
 </metadata>
 <defs>
  <style type="text/css">*{stroke-linejoin: round; stroke-linecap: butt}</style>
 </defs>
 <g id="figure_1">
  <g id="patch_1">
   <path d="M 0 116.889 
L 225.236125 116.889 
L 225.236125 -0 
L 0 -0 
z
" style="fill: #ffffff"/>
  </g>
  <g id="axes_1">
   <g id="patch_2">
    <path d="M 45.01175 79.758 
L 212.41175 79.758 
L 212.41175 9.09 
L 45.01175 9.09 
z
" style="fill: #ffffff"/>
   </g>
   <g id="matplotlib.axis_1">
    <g id="xtick_1">
     <g id="line2d_1">
      <path d="M 45.01175 79.758 
L 45.01175 9.09 
" clip-path="url(#p6b381702de)" style="fill: none; stroke: #b0b0b0; stroke-width: 0.8; stroke-linecap: square"/>
     </g>
     <g id="line2d_2">
      <defs>
       <path id="mbc1ed54d2a" d="M 0 0 
L 0 3.5 
" style="stroke: #000000; stroke-width: 0.8"/>
      </defs>
      <g>
       <use xlink:href="#mbc1ed54d2a" x="45.01175" y="79.758" style="stroke: #000000; stroke-width: 0.8"/>
      </g>
     </g>
     <g id="text_1">
      <!-- 0.0 -->
      <g transform="translate(39.387375 94.93675)scale(0.08 -0.08)">
       <defs>
        <path id="OpenSans-Regular-30" d="M 3334 2291 
Q 3334 1734 3250 1296 
Q 3166 859 2984 556 
Q 2803 253 2515 95 
Q 2228 -63 1825 -63 
Q 1316 -63 983 215 
Q 650 494 486 1020 
Q 322 1547 322 2291 
Q 322 3022 470 3548 
Q 619 4075 950 4358 
Q 1281 4641 1825 4641 
Q 2341 4641 2675 4361 
Q 3009 4081 3171 3554 
Q 3334 3028 3334 2291 
z
M 844 2291 
Q 844 1653 941 1228 
Q 1038 803 1255 592 
Q 1472 381 1825 381 
Q 2178 381 2395 590 
Q 2613 800 2711 1225 
Q 2809 1650 2809 2291 
Q 2809 2919 2712 3342 
Q 2616 3766 2400 3980 
Q 2184 4194 1825 4194 
Q 1466 4194 1250 3980 
Q 1034 3766 939 3342 
Q 844 2919 844 2291 
z
" transform="scale(0.015625)"/>
        <path id="OpenSans-Regular-2e" d="M 469 325 
Q 469 544 575 636 
Q 681 728 834 728 
Q 994 728 1103 636 
Q 1213 544 1213 325 
Q 1213 109 1103 10 
Q 994 -88 834 -88 
Q 681 -88 575 10 
Q 469 109 469 325 
z
" transform="scale(0.015625)"/>
       </defs>
       <use xlink:href="#OpenSans-Regular-30"/>
       <use xlink:href="#OpenSans-Regular-2e" x="57.177734"/>
       <use xlink:href="#OpenSans-Regular-30" x="83.447266"/>
      </g>
     </g>
    </g>
    <g id="xtick_2">
     <g id="line2d_3">
      <path d="M 86.86175 79.758 
L 86.86175 9.09 
" clip-path="url(#p6b381702de)" style="fill: none; stroke: #b0b0b0; stroke-width: 0.8; stroke-linecap: square"/>
     </g>
     <g id="line2d_4">
      <g>
       <use xlink:href="#mbc1ed54d2a" x="86.86175" y="79.758" style="stroke: #000000; stroke-width: 0.8"/>
      </g>
     </g>
     <g id="text_2">
      <!-- 0.5 -->
      <g transform="translate(81.237375 94.93675)scale(0.08 -0.08)">
       <defs>
        <path id="OpenSans-Regular-35" d="M 1759 2794 
Q 2225 2794 2569 2636 
Q 2913 2478 3102 2178 
Q 3291 1878 3291 1450 
Q 3291 981 3087 642 
Q 2884 303 2503 120 
Q 2122 -63 1591 -63 
Q 1234 -63 928 0 
Q 622 63 413 188 
L 413 681 
Q 641 544 966 462 
Q 1291 381 1597 381 
Q 1944 381 2205 492 
Q 2466 603 2611 829 
Q 2756 1056 2756 1400 
Q 2756 1856 2476 2104 
Q 2197 2353 1594 2353 
Q 1400 2353 1169 2322 
Q 938 2291 788 2253 
L 525 2425 
L 700 4569 
L 2972 4569 
L 2972 4094 
L 1144 4094 
L 1028 2716 
Q 1147 2741 1334 2767 
Q 1522 2794 1759 2794 
z
" transform="scale(0.015625)"/>
       </defs>
       <use xlink:href="#OpenSans-Regular-30"/>
       <use xlink:href="#OpenSans-Regular-2e" x="57.177734"/>
       <use xlink:href="#OpenSans-Regular-35" x="83.447266"/>
      </g>
     </g>
    </g>
    <g id="xtick_3">
     <g id="line2d_5">
      <path d="M 128.71175 79.758 
L 128.71175 9.09 
" clip-path="url(#p6b381702de)" style="fill: none; stroke: #b0b0b0; stroke-width: 0.8; stroke-linecap: square"/>
     </g>
     <g id="line2d_6">
      <g>
       <use xlink:href="#mbc1ed54d2a" x="128.71175" y="79.758" style="stroke: #000000; stroke-width: 0.8"/>
      </g>
     </g>
     <g id="text_3">
      <!-- 1.0 -->
      <g transform="translate(123.087375 94.93675)scale(0.08 -0.08)">
       <defs>
        <path id="OpenSans-Regular-31" d="M 2247 0 
L 1741 0 
L 1741 3238 
Q 1741 3422 1742 3555 
Q 1744 3688 1748 3798 
Q 1753 3909 1763 4025 
Q 1666 3925 1581 3854 
Q 1497 3784 1372 3681 
L 850 3263 
L 578 3616 
L 1816 4569 
L 2247 4569 
L 2247 0 
z
" transform="scale(0.015625)"/>
       </defs>
       <use xlink:href="#OpenSans-Regular-31"/>
       <use xlink:href="#OpenSans-Regular-2e" x="57.177734"/>
       <use xlink:href="#OpenSans-Regular-30" x="83.447266"/>
      </g>
     </g>
    </g>
    <g id="xtick_4">
     <g id="line2d_7">
      <path d="M 170.56175 79.758 
L 170.56175 9.09 
" clip-path="url(#p6b381702de)" style="fill: none; stroke: #b0b0b0; stroke-width: 0.8; stroke-linecap: square"/>
     </g>
     <g id="line2d_8">
      <g>
       <use xlink:href="#mbc1ed54d2a" x="170.56175" y="79.758" style="stroke: #000000; stroke-width: 0.8"/>
      </g>
     </g>
     <g id="text_4">
      <!-- 1.5 -->
      <g transform="translate(164.937375 94.93675)scale(0.08 -0.08)">
       <use xlink:href="#OpenSans-Regular-31"/>
       <use xlink:href="#OpenSans-Regular-2e" x="57.177734"/>
       <use xlink:href="#OpenSans-Regular-35" x="83.447266"/>
      </g>
     </g>
    </g>
    <g id="xtick_5">
     <g id="line2d_9">
      <path d="M 212.41175 79.758 
L 212.41175 9.09 
" clip-path="url(#p6b381702de)" style="fill: none; stroke: #b0b0b0; stroke-width: 0.8; stroke-linecap: square"/>
     </g>
     <g id="line2d_10">
      <g>
       <use xlink:href="#mbc1ed54d2a" x="212.41175" y="79.758" style="stroke: #000000; stroke-width: 0.8"/>
      </g>
     </g>
     <g id="text_5">
      <!-- 2.0 -->
      <g transform="translate(206.787375 94.93675)scale(0.08 -0.08)">
       <defs>
        <path id="OpenSans-Regular-32" d="M 3309 0 
L 316 0 
L 316 434 
L 1538 1675 
Q 1878 2019 2111 2287 
Q 2344 2556 2466 2817 
Q 2588 3078 2588 3391 
Q 2588 3778 2358 3983 
Q 2128 4188 1753 4188 
Q 1425 4188 1172 4075 
Q 919 3963 653 3756 
L 375 4106 
Q 556 4259 770 4378 
Q 984 4497 1229 4565 
Q 1475 4634 1753 4634 
Q 2175 4634 2481 4487 
Q 2788 4341 2955 4069 
Q 3122 3797 3122 3422 
Q 3122 3059 2978 2748 
Q 2834 2438 2575 2133 
Q 2316 1828 1969 1488 
L 975 497 
L 975 475 
L 3309 475 
L 3309 0 
z
" transform="scale(0.015625)"/>
       </defs>
       <use xlink:href="#OpenSans-Regular-32"/>
       <use xlink:href="#OpenSans-Regular-2e" x="57.177734"/>
       <use xlink:href="#OpenSans-Regular-30" x="83.447266"/>
      </g>
     </g>
    </g>
    <g id="text_6">
     <!-- Distance from optic fiber (mm) -->
     <g transform="translate(66.026875 107.583875)scale(0.088 -0.088)">
      <defs>
       <path id="OpenSans-Regular-44" d="M 4253 2328 
Q 4253 1556 3972 1039 
Q 3691 522 3158 261 
Q 2625 0 1866 0 
L 625 0 
L 625 4569 
L 2003 4569 
Q 2700 4569 3203 4314 
Q 3706 4059 3979 3561 
Q 4253 3063 4253 2328 
z
M 3694 2309 
Q 3694 2925 3489 3325 
Q 3284 3725 2889 3920 
Q 2494 4116 1922 4116 
L 1156 4116 
L 1156 456 
L 1803 456 
Q 2747 456 3220 922 
Q 3694 1388 3694 2309 
z
" transform="scale(0.015625)"/>
       <path id="OpenSans-Regular-69" d="M 1066 3425 
L 1066 0 
L 547 0 
L 547 3425 
L 1066 3425 
z
M 813 4706 
Q 941 4706 1033 4623 
Q 1125 4541 1125 4366 
Q 1125 4194 1033 4109 
Q 941 4025 813 4025 
Q 678 4025 589 4109 
Q 500 4194 500 4366 
Q 500 4541 589 4623 
Q 678 4706 813 4706 
z
" transform="scale(0.015625)"/>
       <path id="OpenSans-Regular-73" d="M 2763 938 
Q 2763 609 2598 386 
Q 2434 163 2129 50 
Q 1825 -63 1403 -63 
Q 1044 -63 781 -6 
Q 519 50 322 153 
L 322 631 
Q 531 528 822 443 
Q 1113 359 1416 359 
Q 1859 359 2059 503 
Q 2259 647 2259 894 
Q 2259 1034 2179 1142 
Q 2100 1250 1912 1351 
Q 1725 1453 1394 1575 
Q 1066 1700 827 1823 
Q 588 1947 458 2125 
Q 328 2303 328 2588 
Q 328 3022 679 3255 
Q 1031 3488 1603 3488 
Q 1913 3488 2183 3427 
Q 2453 3366 2688 3263 
L 2513 2847 
Q 2300 2938 2059 3000 
Q 1819 3063 1569 3063 
Q 1209 3063 1017 2944 
Q 825 2825 825 2619 
Q 825 2459 914 2356 
Q 1003 2253 1200 2162 
Q 1397 2072 1719 1950 
Q 2041 1831 2275 1704 
Q 2509 1578 2636 1398 
Q 2763 1219 2763 938 
z
" transform="scale(0.015625)"/>
       <path id="OpenSans-Regular-74" d="M 1653 363 
Q 1781 363 1915 384 
Q 2050 406 2134 438 
L 2134 34 
Q 2044 -6 1883 -34 
Q 1722 -63 1569 -63 
Q 1297 -63 1075 32 
Q 853 128 720 356 
Q 588 584 588 988 
L 588 3019 
L 100 3019 
L 100 3272 
L 591 3475 
L 797 4219 
L 1109 4219 
L 1109 3425 
L 2113 3425 
L 2113 3019 
L 1109 3019 
L 1109 1003 
Q 1109 681 1257 522 
Q 1406 363 1653 363 
z
" transform="scale(0.015625)"/>
       <path id="OpenSans-Regular-61" d="M 1828 3481 
Q 2441 3481 2737 3206 
Q 3034 2931 3034 2328 
L 3034 0 
L 2656 0 
L 2556 506 
L 2531 506 
Q 2388 319 2231 192 
Q 2075 66 1870 1 
Q 1666 -63 1369 -63 
Q 1056 -63 814 46 
Q 572 156 433 378 
Q 294 600 294 941 
Q 294 1453 700 1728 
Q 1106 2003 1938 2028 
L 2528 2053 
L 2528 2263 
Q 2528 2706 2337 2884 
Q 2147 3063 1800 3063 
Q 1531 3063 1287 2984 
Q 1044 2906 825 2800 
L 666 3194 
Q 897 3313 1197 3397 
Q 1497 3481 1828 3481 
z
M 2522 1688 
L 2000 1666 
Q 1359 1641 1096 1456 
Q 834 1272 834 934 
Q 834 641 1012 500 
Q 1191 359 1484 359 
Q 1941 359 2231 612 
Q 2522 866 2522 1372 
L 2522 1688 
z
" transform="scale(0.015625)"/>
       <path id="OpenSans-Regular-6e" d="M 2169 3488 
Q 2778 3488 3090 3189 
Q 3403 2891 3403 2231 
L 3403 0 
L 2891 0 
L 2891 2197 
Q 2891 2625 2695 2837 
Q 2500 3050 2097 3050 
Q 1528 3050 1297 2728 
Q 1066 2406 1066 1794 
L 1066 0 
L 547 0 
L 547 3425 
L 966 3425 
L 1044 2931 
L 1072 2931 
Q 1181 3113 1350 3236 
Q 1519 3359 1728 3423 
Q 1938 3488 2169 3488 
z
" transform="scale(0.015625)"/>
       <path id="OpenSans-Regular-63" d="M 1919 -63 
Q 1456 -63 1103 128 
Q 750 319 553 709 
Q 356 1100 356 1694 
Q 356 2316 564 2711 
Q 772 3106 1137 3297 
Q 1503 3488 1969 3488 
Q 2225 3488 2464 3436 
Q 2703 3384 2856 3306 
L 2700 2872 
Q 2544 2934 2339 2984 
Q 2134 3034 1956 3034 
Q 1600 3034 1364 2881 
Q 1128 2728 1011 2431 
Q 894 2134 894 1700 
Q 894 1284 1008 990 
Q 1122 697 1348 542 
Q 1575 388 1916 388 
Q 2188 388 2406 445 
Q 2625 503 2803 581 
L 2803 119 
Q 2631 31 2420 -16 
Q 2209 -63 1919 -63 
z
" transform="scale(0.015625)"/>
       <path id="OpenSans-Regular-65" d="M 1866 3488 
Q 2303 3488 2615 3294 
Q 2928 3100 3093 2751 
Q 3259 2403 3259 1938 
L 3259 1616 
L 894 1616 
Q 903 1013 1193 697 
Q 1484 381 2013 381 
Q 2338 381 2588 440 
Q 2838 500 3106 616 
L 3106 159 
Q 2847 44 2592 -9 
Q 2338 -63 1991 -63 
Q 1497 -63 1130 139 
Q 763 341 559 731 
Q 356 1122 356 1688 
Q 356 2241 542 2645 
Q 728 3050 1067 3269 
Q 1406 3488 1866 3488 
z
M 1859 3063 
Q 1444 3063 1197 2791 
Q 950 2519 903 2031 
L 2716 2031 
Q 2713 2338 2620 2570 
Q 2528 2803 2340 2933 
Q 2153 3063 1859 3063 
z
" transform="scale(0.015625)"/>
       <path id="OpenSans-Regular-20" transform="scale(0.015625)"/>
       <path id="OpenSans-Regular-66" d="M 2072 3019 
L 1219 3019 
L 1219 0 
L 700 0 
L 700 3019 
L 94 3019 
L 94 3269 
L 700 3441 
L 700 3669 
Q 700 4100 828 4370 
Q 956 4641 1200 4769 
Q 1444 4897 1794 4897 
Q 1991 4897 2155 4862 
Q 2319 4828 2444 4784 
L 2309 4375 
Q 2203 4409 2070 4439 
Q 1938 4469 1800 4469 
Q 1503 4469 1361 4276 
Q 1219 4084 1219 3675 
L 1219 3425 
L 2072 3425 
L 2072 3019 
z
" transform="scale(0.015625)"/>
       <path id="OpenSans-Regular-72" d="M 2103 3488 
Q 2206 3488 2318 3477 
Q 2431 3466 2519 3447 
L 2453 2966 
Q 2369 2988 2266 3000 
Q 2163 3013 2072 3013 
Q 1866 3013 1683 2930 
Q 1500 2847 1362 2692 
Q 1225 2538 1147 2320 
Q 1069 2103 1069 1838 
L 1069 0 
L 547 0 
L 547 3425 
L 978 3425 
L 1034 2794 
L 1056 2794 
Q 1163 2984 1313 3142 
Q 1463 3300 1661 3394 
Q 1859 3488 2103 3488 
z
" transform="scale(0.015625)"/>
       <path id="OpenSans-Regular-6f" d="M 3500 1719 
Q 3500 1297 3390 965 
Q 3281 634 3075 406 
Q 2869 178 2576 57 
Q 2284 -63 1916 -63 
Q 1572 -63 1286 57 
Q 1000 178 792 406 
Q 584 634 470 965 
Q 356 1297 356 1719 
Q 356 2281 547 2676 
Q 738 3072 1092 3280 
Q 1447 3488 1938 3488 
Q 2406 3488 2757 3278 
Q 3109 3069 3304 2673 
Q 3500 2278 3500 1719 
z
M 894 1719 
Q 894 1306 1003 1003 
Q 1113 700 1341 534 
Q 1569 369 1928 369 
Q 2284 369 2514 534 
Q 2744 700 2853 1003 
Q 2963 1306 2963 1719 
Q 2963 2128 2853 2426 
Q 2744 2725 2516 2887 
Q 2288 3050 1925 3050 
Q 1391 3050 1142 2697 
Q 894 2344 894 1719 
z
" transform="scale(0.015625)"/>
       <path id="OpenSans-Regular-6d" d="M 4266 3488 
Q 4831 3488 5118 3192 
Q 5406 2897 5406 2244 
L 5406 0 
L 4894 0 
L 4894 2219 
Q 4894 2634 4714 2842 
Q 4534 3050 4181 3050 
Q 3684 3050 3459 2762 
Q 3234 2475 3234 1916 
L 3234 0 
L 2719 0 
L 2719 2219 
Q 2719 2497 2639 2681 
Q 2559 2866 2401 2958 
Q 2244 3050 2003 3050 
Q 1663 3050 1456 2909 
Q 1250 2769 1158 2492 
Q 1066 2216 1066 1813 
L 1066 0 
L 547 0 
L 547 3425 
L 966 3425 
L 1044 2941 
L 1072 2941 
Q 1175 3119 1331 3241 
Q 1488 3363 1681 3425 
Q 1875 3488 2094 3488 
Q 2484 3488 2748 3342 
Q 3013 3197 3131 2900 
L 3159 2900 
Q 3328 3197 3622 3342 
Q 3916 3488 4266 3488 
z
" transform="scale(0.015625)"/>
       <path id="OpenSans-Regular-70" d="M 2156 3488 
Q 2797 3488 3178 3047 
Q 3559 2606 3559 1722 
Q 3559 1138 3384 741 
Q 3209 344 2892 140 
Q 2575 -63 2144 -63 
Q 1872 -63 1665 9 
Q 1459 81 1312 203 
Q 1166 325 1069 469 
L 1031 469 
Q 1041 347 1055 175 
Q 1069 3 1069 -125 
L 1069 -1531 
L 547 -1531 
L 547 3425 
L 975 3425 
L 1044 2919 
L 1069 2919 
Q 1169 3075 1312 3204 
Q 1456 3334 1664 3411 
Q 1872 3488 2156 3488 
z
M 2066 3050 
Q 1709 3050 1492 2912 
Q 1275 2775 1175 2501 
Q 1075 2228 1069 1816 
L 1069 1716 
Q 1069 1281 1164 981 
Q 1259 681 1479 525 
Q 1700 369 2072 369 
Q 2391 369 2603 541 
Q 2816 713 2920 1020 
Q 3025 1328 3025 1728 
Q 3025 2334 2789 2692 
Q 2553 3050 2066 3050 
z
" transform="scale(0.015625)"/>
       <path id="OpenSans-Regular-62" d="M 1066 4863 
L 1066 3647 
Q 1066 3438 1055 3241 
Q 1044 3044 1038 2934 
L 1066 2934 
Q 1206 3166 1472 3325 
Q 1738 3484 2150 3484 
Q 2794 3484 3176 3039 
Q 3559 2594 3559 1716 
Q 3559 1138 3384 741 
Q 3209 344 2890 140 
Q 2572 -63 2138 -63 
Q 1731 -63 1470 89 
Q 1209 241 1069 459 
L 1028 459 
L 922 0 
L 547 0 
L 547 4863 
L 1066 4863 
z
M 2066 3050 
Q 1694 3050 1475 2904 
Q 1256 2759 1161 2467 
Q 1066 2175 1066 1728 
L 1066 1700 
Q 1066 1053 1281 711 
Q 1497 369 2066 369 
Q 2544 369 2783 719 
Q 3022 1069 3022 1719 
Q 3022 2381 2786 2715 
Q 2550 3050 2066 3050 
z
" transform="scale(0.015625)"/>
       <path id="OpenSans-Regular-28" d="M 256 1753 
Q 256 2281 357 2781 
Q 459 3281 668 3734 
Q 878 4188 1197 4569 
L 1694 4569 
Q 1241 3975 1012 3250 
Q 784 2525 784 1759 
Q 784 1259 886 773 
Q 988 288 1189 -162 
Q 1391 -613 1688 -1013 
L 1197 -1013 
Q 878 -638 668 -195 
Q 459 247 357 740 
Q 256 1234 256 1753 
z
" transform="scale(0.015625)"/>
       <path id="OpenSans-Regular-29" d="M 1631 1759 
Q 1631 1238 1529 742 
Q 1428 247 1220 -197 
Q 1013 -641 691 -1013 
L 200 -1013 
Q 500 -616 701 -162 
Q 903 291 1004 777 
Q 1106 1263 1106 1763 
Q 1106 2272 1003 2765 
Q 900 3259 698 3715 
Q 497 4172 194 4569 
L 691 4569 
Q 1013 4184 1220 3732 
Q 1428 3281 1529 2782 
Q 1631 2284 1631 1759 
z
" transform="scale(0.015625)"/>
      </defs>
      <use xlink:href="#OpenSans-Regular-44"/>
      <use xlink:href="#OpenSans-Regular-69" x="72.558594"/>
      <use xlink:href="#OpenSans-Regular-73" x="97.802734"/>
      <use xlink:href="#OpenSans-Regular-74" x="145.458984"/>
      <use xlink:href="#OpenSans-Regular-61" x="181.103516"/>
      <use xlink:href="#OpenSans-Regular-6e" x="236.669922"/>
      <use xlink:href="#OpenSans-Regular-63" x="297.998047"/>
      <use xlink:href="#OpenSans-Regular-65" x="345.898438"/>
      <use xlink:href="#OpenSans-Regular-20" x="402.050781"/>
      <use xlink:href="#OpenSans-Regular-66" x="428.027344"/>
      <use xlink:href="#OpenSans-Regular-72" x="461.669922"/>
      <use xlink:href="#OpenSans-Regular-6f" x="502.539062"/>
      <use xlink:href="#OpenSans-Regular-6d" x="562.695312"/>
      <use xlink:href="#OpenSans-Regular-20" x="655.273438"/>
      <use xlink:href="#OpenSans-Regular-6f" x="681.25"/>
      <use xlink:href="#OpenSans-Regular-70" x="741.40625"/>
      <use xlink:href="#OpenSans-Regular-74" x="802.587891"/>
      <use xlink:href="#OpenSans-Regular-69" x="838.232422"/>
      <use xlink:href="#OpenSans-Regular-63" x="863.476562"/>
      <use xlink:href="#OpenSans-Regular-20" x="911.376953"/>
      <use xlink:href="#OpenSans-Regular-66" x="937.353516"/>
      <use xlink:href="#OpenSans-Regular-69" x="970.996094"/>
      <use xlink:href="#OpenSans-Regular-62" x="996.240234"/>
      <use xlink:href="#OpenSans-Regular-65" x="1057.421875"/>
      <use xlink:href="#OpenSans-Regular-72" x="1113.574219"/>
      <use xlink:href="#OpenSans-Regular-20" x="1154.443359"/>
      <use xlink:href="#OpenSans-Regular-28" x="1180.419922"/>
      <use xlink:href="#OpenSans-Regular-6d" x="1209.912109"/>
      <use xlink:href="#OpenSans-Regular-6d" x="1302.490234"/>
      <use xlink:href="#OpenSans-Regular-29" x="1395.068359"/>
     </g>
    </g>
   </g>
   <g id="matplotlib.axis_2">
    <g id="ytick_1">
     <g id="line2d_11">
      <path d="M 45.01175 62.040162 
L 212.41175 62.040162 
" clip-path="url(#p6b381702de)" style="fill: none; stroke: #b0b0b0; stroke-width: 0.8; stroke-linecap: square"/>
     </g>
     <g id="line2d_12">
      <defs>
       <path id="m48f5e7f5dd" d="M 0 0 
L -3.5 0 
" style="stroke: #000000; stroke-width: 0.8"/>
      </defs>
      <g>
       <use xlink:href="#m48f5e7f5dd" x="45.01175" y="62.040162" style="stroke: #000000; stroke-width: 0.8"/>
      </g>
     </g>
     <g id="line2d_13">
      <defs>
       <path id="md9e1223304" d="M 0 0 
L 3.5 0 
" style="stroke: #000000; stroke-width: 0.8"/>
      </defs>
      <g>
       <use xlink:href="#md9e1223304" x="212.41175" y="62.040162" style="stroke: #000000; stroke-width: 0.8"/>
      </g>
     </g>
     <g id="text_7">
      <!-- $\mathdefault{10^{-3}}$ -->
      <g transform="translate(19.99175 65.079537)scale(0.08 -0.08)">
       <defs>
        <path id="OpenSans-Regular-2212" d="M 322 2044 
L 322 2469 
L 3331 2469 
L 3331 2044 
L 322 2044 
z
" transform="scale(0.015625)"/>
        <path id="OpenSans-Regular-33" d="M 3141 3503 
Q 3141 3197 3022 2972 
Q 2903 2747 2690 2605 
Q 2478 2463 2191 2406 
L 2191 2381 
Q 2734 2313 3007 2031 
Q 3281 1750 3281 1294 
Q 3281 897 3095 590 
Q 2909 284 2526 110 
Q 2144 -63 1547 -63 
Q 1184 -63 876 -5 
Q 569 53 288 188 
L 288 675 
Q 572 534 906 454 
Q 1241 375 1553 375 
Q 2178 375 2456 623 
Q 2734 872 2734 1303 
Q 2734 1600 2579 1783 
Q 2425 1966 2136 2052 
Q 1847 2138 1441 2138 
L 984 2138 
L 984 2581 
L 1444 2581 
Q 1816 2581 2075 2690 
Q 2334 2800 2470 2998 
Q 2606 3197 2606 3469 
Q 2606 3816 2375 4005 
Q 2144 4194 1747 4194 
Q 1503 4194 1303 4144 
Q 1103 4094 928 4006 
Q 753 3919 578 3803 
L 316 4159 
Q 566 4353 925 4493 
Q 1284 4634 1741 4634 
Q 2441 4634 2791 4315 
Q 3141 3997 3141 3503 
z
" transform="scale(0.015625)"/>
       </defs>
       <use xlink:href="#OpenSans-Regular-31" transform="translate(0 0.854688)"/>
       <use xlink:href="#OpenSans-Regular-30" transform="translate(57.177734 0.854688)"/>
       <use xlink:href="#OpenSans-Regular-2212" transform="translate(115.291992 38.315625)scale(0.7)"/>
       <use xlink:href="#OpenSans-Regular-33" transform="translate(155.316406 38.315625)scale(0.7)"/>
      </g>
     </g>
    </g>
    <g id="ytick_2">
     <g id="line2d_14">
      <path d="M 45.01175 28.881509 
L 212.41175 28.881509 
" clip-path="url(#p6b381702de)" style="fill: none; stroke: #b0b0b0; stroke-width: 0.8; stroke-linecap: square"/>
     </g>
     <g id="line2d_15">
      <g>
       <use xlink:href="#m48f5e7f5dd" x="45.01175" y="28.881509" style="stroke: #000000; stroke-width: 0.8"/>
      </g>
     </g>
     <g id="line2d_16">
      <g>
       <use xlink:href="#md9e1223304" x="212.41175" y="28.881509" style="stroke: #000000; stroke-width: 0.8"/>
      </g>
     </g>
     <g id="text_8">
      <!-- $\mathdefault{10^{-1}}$ -->
      <g transform="translate(19.99175 31.920884)scale(0.08 -0.08)">
       <use xlink:href="#OpenSans-Regular-31" transform="translate(0 0.565625)"/>
       <use xlink:href="#OpenSans-Regular-30" transform="translate(57.177734 0.565625)"/>
       <use xlink:href="#OpenSans-Regular-2212" transform="translate(115.291992 38.026563)scale(0.7)"/>
       <use xlink:href="#OpenSans-Regular-31" transform="translate(155.316406 38.026563)scale(0.7)"/>
      </g>
     </g>
    </g>
    <g id="text_9">
     <!-- Transmission ($I/I_0$) -->
     <g transform="translate(13.886625 81.648)rotate(-90)scale(0.088 -0.088)">
      <defs>
       <path id="OpenSans-Regular-54" d="M 2028 0 
L 1494 0 
L 1494 4100 
L 56 4100 
L 56 4569 
L 3459 4569 
L 3459 4100 
L 2028 4100 
L 2028 0 
z
" transform="scale(0.015625)"/>
       <path id="DejaVuSans-Oblique-49" d="M 1081 4666 
L 1716 4666 
L 806 0 
L 172 0 
L 1081 4666 
z
" transform="scale(0.015625)"/>
       <path id="DejaVuSans-2f" d="M 1625 4666 
L 2156 4666 
L 531 -594 
L 0 -594 
L 1625 4666 
z
" transform="scale(0.015625)"/>
       <path id="DejaVuSans-30" d="M 2034 4250 
Q 1547 4250 1301 3770 
Q 1056 3291 1056 2328 
Q 1056 1369 1301 889 
Q 1547 409 2034 409 
Q 2525 409 2770 889 
Q 3016 1369 3016 2328 
Q 3016 3291 2770 3770 
Q 2525 4250 2034 4250 
z
M 2034 4750 
Q 2819 4750 3233 4129 
Q 3647 3509 3647 2328 
Q 3647 1150 3233 529 
Q 2819 -91 2034 -91 
Q 1250 -91 836 529 
Q 422 1150 422 2328 
Q 422 3509 836 4129 
Q 1250 4750 2034 4750 
z
" transform="scale(0.015625)"/>
      </defs>
      <use xlink:href="#OpenSans-Regular-54" transform="translate(0 0.46875)"/>
      <use xlink:href="#OpenSans-Regular-72" transform="translate(55.078125 0.46875)"/>
      <use xlink:href="#OpenSans-Regular-61" transform="translate(95.947266 0.46875)"/>
      <use xlink:href="#OpenSans-Regular-6e" transform="translate(151.513672 0.46875)"/>
      <use xlink:href="#OpenSans-Regular-73" transform="translate(212.841797 0.46875)"/>
      <use xlink:href="#OpenSans-Regular-6d" transform="translate(260.498047 0.46875)"/>
      <use xlink:href="#OpenSans-Regular-69" transform="translate(353.076172 0.46875)"/>
      <use xlink:href="#OpenSans-Regular-73" transform="translate(378.320312 0.46875)"/>
      <use xlink:href="#OpenSans-Regular-73" transform="translate(425.976562 0.46875)"/>
      <use xlink:href="#OpenSans-Regular-69" transform="translate(473.632812 0.46875)"/>
      <use xlink:href="#OpenSans-Regular-6f" transform="translate(498.876953 0.46875)"/>
      <use xlink:href="#OpenSans-Regular-6e" transform="translate(559.033203 0.46875)"/>
      <use xlink:href="#OpenSans-Regular-20" transform="translate(620.361328 0.46875)"/>
      <use xlink:href="#OpenSans-Regular-28" transform="translate(646.337891 0.46875)"/>
      <use xlink:href="#DejaVuSans-Oblique-49" transform="translate(675.830078 0.46875)"/>
      <use xlink:href="#DejaVuSans-2f" transform="translate(705.322266 0.46875)"/>
      <use xlink:href="#DejaVuSans-Oblique-49" transform="translate(739.013672 0.46875)"/>
      <use xlink:href="#DejaVuSans-30" transform="translate(768.505859 -15.9375)scale(0.7)"/>
      <use xlink:href="#OpenSans-Regular-29" transform="translate(815.776367 0.46875)"/>
     </g>
    </g>
   </g>
   <g id="line2d_17">
    <path d="M 45.01175 12.302182 
L 46.694162 14.865288 
L 49.21778 18.218979 
L 51.741398 21.127119 
L 54.265016 23.697482 
L 56.788634 26.002993 
L 60.153459 28.752318 
L 63.518283 31.207979 
L 67.724313 33.954993 
L 71.930343 36.419442 
L 76.977579 39.084454 
L 82.024815 41.496794 
L 87.913258 44.058734 
L 94.642906 46.723267 
L 102.21376 49.457367 
L 110.62582 52.239683 
L 119.879087 55.057926 
L 129.973559 57.906434 
L 141.750443 60.997861 
L 155.20974 64.294347 
L 170.351448 67.770913 
L 188.016775 71.589147 
L 208.20572 75.713131 
L 212.41175 76.545818 
L 212.41175 76.545818 
" clip-path="url(#p6b381702de)" style="fill: none; stroke-dasharray: 5.18,2.24; stroke-dashoffset: 0; stroke: #0000ff; stroke-width: 1.4"/>
   </g>
   <g id="line2d_18">
    <path d="M 45.01175 12.302182 
L 47.535368 14.952538 
L 50.058986 17.273476 
L 53.42381 19.994621 
L 56.788634 22.3965 
L 60.153459 24.555034 
L 64.359489 26.987217 
L 69.406725 29.60278 
L 74.453961 31.961682 
L 80.342403 34.461188 
L 87.072052 37.057246 
L 94.642906 39.719513 
L 103.054966 42.428838 
L 112.308232 45.174634 
L 123.243911 48.175392 
L 135.862001 51.386148 
L 150.162504 54.777773 
L 166.145418 58.333111 
L 184.651951 62.214957 
L 205.682102 66.39399 
L 212.41175 67.688906 
L 212.41175 67.688906 
" clip-path="url(#p6b381702de)" style="fill: none; stroke-dasharray: 8.96,2.24,1.4,2.24; stroke-dashoffset: 0; stroke: #008000; stroke-width: 1.4"/>
   </g>
   <g id="line2d_19">
    <path d="M 45.01175 12.302182 
L 47.535368 14.375566 
L 50.058986 16.18457 
L 53.42381 18.306176 
L 56.788634 20.18607 
L 60.994665 22.287525 
L 66.041901 24.53982 
L 71.930343 26.894004 
L 78.659991 29.318276 
L 86.230845 31.793451 
L 94.642906 34.309336 
L 104.737378 37.084851 
L 116.514263 40.073119 
L 129.973559 43.245169 
L 145.115268 46.585253 
L 162.780594 50.256508 
L 183.810745 54.393463 
L 208.20572 58.957103 
L 212.41175 59.72326 
L 212.41175 59.72326 
" clip-path="url(#p6b381702de)" style="fill: none; stroke: #ff0000; stroke-width: 1.4; stroke-linecap: square"/>
   </g>
   <g id="patch_3">
    <path d="M 45.01175 79.758 
L 45.01175 9.09 
" style="fill: none; stroke: #000000; stroke-width: 0.8; stroke-linejoin: miter; stroke-linecap: square"/>
   </g>
   <g id="patch_4">
    <path d="M 212.41175 79.758 
L 212.41175 9.09 
" style="fill: none; stroke: #000000; stroke-width: 0.8; stroke-linejoin: miter; stroke-linecap: square"/>
   </g>
   <g id="patch_5">
    <path d="M 45.01175 79.758 
L 212.41175 79.758 
" style="fill: none; stroke: #000000; stroke-width: 0.8; stroke-linejoin: miter; stroke-linecap: square"/>
   </g>
   <g id="patch_6">
    <path d="M 45.01175 9.09 
L 212.41175 9.09 
" style="fill: none; stroke: #000000; stroke-width: 0.8; stroke-linejoin: miter; stroke-linecap: square"/>
   </g>
   <g id="legend_1">
    <g id="patch_7">
     <path d="M 150.116437 65.458125 
L 206.81175 65.458125 
Q 208.41175 65.458125 208.41175 63.858125 
L 208.41175 14.69 
Q 208.41175 13.09 206.81175 13.09 
L 150.116437 13.09 
Q 148.516437 13.09 148.516437 14.69 
L 148.516437 63.858125 
Q 148.516437 65.458125 150.116437 65.458125 
z
" style="fill: #ffffff; opacity: 0.8; stroke: #cccccc; stroke-width: 0.24; stroke-linejoin: miter"/>
    </g>
    <g id="text_10">
     <!-- fiber radius -->
     <g transform="translate(151.716437 23.888438)scale(0.1 -0.1)">
      <defs>
       <path id="OpenSans-Regular-64" d="M 1766 -63 
Q 1116 -63 736 381 
Q 356 825 356 1700 
Q 356 2584 743 3036 
Q 1131 3488 1775 3488 
Q 2047 3488 2250 3416 
Q 2453 3344 2600 3223 
Q 2747 3103 2847 2950 
L 2884 2950 
Q 2872 3047 2859 3215 
Q 2847 3384 2847 3491 
L 2847 4863 
L 3366 4863 
L 3366 0 
L 2947 0 
L 2869 488 
L 2847 488 
Q 2750 334 2601 209 
Q 2453 84 2248 10 
Q 2044 -63 1766 -63 
z
M 1847 369 
Q 2397 369 2625 681 
Q 2853 994 2853 1609 
L 2853 1703 
Q 2853 2356 2636 2706 
Q 2419 3056 1847 3056 
Q 1369 3056 1131 2689 
Q 894 2322 894 1688 
Q 894 1056 1130 712 
Q 1366 369 1847 369 
z
" transform="scale(0.015625)"/>
       <path id="OpenSans-Regular-75" d="M 3375 3425 
L 3375 0 
L 2950 0 
L 2875 481 
L 2847 481 
Q 2741 303 2572 181 
Q 2403 59 2192 -2 
Q 1981 -63 1744 -63 
Q 1338 -63 1063 68 
Q 788 200 648 475 
Q 509 750 509 1181 
L 509 3425 
L 1034 3425 
L 1034 1219 
Q 1034 791 1228 580 
Q 1422 369 1819 369 
Q 2200 369 2426 512 
Q 2653 656 2753 936 
Q 2853 1216 2853 1622 
L 2853 3425 
L 3375 3425 
z
" transform="scale(0.015625)"/>
      </defs>
      <use xlink:href="#OpenSans-Regular-66"/>
      <use xlink:href="#OpenSans-Regular-69" x="33.642578"/>
      <use xlink:href="#OpenSans-Regular-62" x="58.886719"/>
      <use xlink:href="#OpenSans-Regular-65" x="120.068359"/>
      <use xlink:href="#OpenSans-Regular-72" x="176.220703"/>
      <use xlink:href="#OpenSans-Regular-20" x="217.089844"/>
      <use xlink:href="#OpenSans-Regular-72" x="243.066406"/>
      <use xlink:href="#OpenSans-Regular-61" x="283.935547"/>
      <use xlink:href="#OpenSans-Regular-64" x="339.501953"/>
      <use xlink:href="#OpenSans-Regular-69" x="400.683594"/>
      <use xlink:href="#OpenSans-Regular-75" x="425.927734"/>
      <use xlink:href="#OpenSans-Regular-73" x="487.255859"/>
     </g>
    </g>
    <g id="line2d_20">
     <path d="M 153.194094 33.559375 
L 161.194094 33.559375 
L 169.194094 33.559375 
" style="fill: none; stroke-dasharray: 5.18,2.24; stroke-dashoffset: 0; stroke: #0000ff; stroke-width: 1.4"/>
    </g>
    <g id="text_11">
     <!-- 0.1 mm -->
     <g transform="translate(175.594094 36.359375)scale(0.08 -0.08)">
      <use xlink:href="#OpenSans-Regular-30"/>
      <use xlink:href="#OpenSans-Regular-2e" x="57.177734"/>
      <use xlink:href="#OpenSans-Regular-31" x="83.447266"/>
      <use xlink:href="#OpenSans-Regular-20" x="140.625"/>
      <use xlink:href="#OpenSans-Regular-6d" x="166.601562"/>
      <use xlink:href="#OpenSans-Regular-6d" x="259.179688"/>
     </g>
    </g>
    <g id="line2d_21">
     <path d="M 153.194094 45.551875 
L 161.194094 45.551875 
L 169.194094 45.551875 
" style="fill: none; stroke-dasharray: 8.96,2.24,1.4,2.24; stroke-dashoffset: 0; stroke: #008000; stroke-width: 1.4"/>
    </g>
    <g id="text_12">
     <!-- 0.2 mm -->
     <g transform="translate(175.594094 48.351875)scale(0.08 -0.08)">
      <use xlink:href="#OpenSans-Regular-30"/>
      <use xlink:href="#OpenSans-Regular-2e" x="57.177734"/>
      <use xlink:href="#OpenSans-Regular-32" x="83.447266"/>
      <use xlink:href="#OpenSans-Regular-20" x="140.625"/>
      <use xlink:href="#OpenSans-Regular-6d" x="166.601562"/>
      <use xlink:href="#OpenSans-Regular-6d" x="259.179688"/>
     </g>
    </g>
    <g id="line2d_22">
     <path d="M 153.194094 57.544375 
L 161.194094 57.544375 
L 169.194094 57.544375 
" style="fill: none; stroke: #ff0000; stroke-width: 1.4; stroke-linecap: square"/>
    </g>
    <g id="text_13">
     <!-- 0.4 mm -->
     <g transform="translate(175.594094 60.344375)scale(0.08 -0.08)">
      <defs>
       <path id="OpenSans-Regular-34" d="M 3538 1059 
L 2853 1059 
L 2853 0 
L 2347 0 
L 2347 1059 
L 138 1059 
L 138 1497 
L 2313 4594 
L 2853 4594 
L 2853 1528 
L 3538 1528 
L 3538 1059 
z
M 2347 1528 
L 2347 3022 
Q 2347 3194 2350 3333 
Q 2353 3472 2359 3592 
Q 2366 3713 2370 3822 
Q 2375 3931 2378 4038 
L 2353 4038 
Q 2294 3913 2217 3773 
Q 2141 3634 2063 3525 
L 653 1528 
L 2347 1528 
z
" transform="scale(0.015625)"/>
      </defs>
      <use xlink:href="#OpenSans-Regular-30"/>
      <use xlink:href="#OpenSans-Regular-2e" x="57.177734"/>
      <use xlink:href="#OpenSans-Regular-34" x="83.447266"/>
      <use xlink:href="#OpenSans-Regular-20" x="140.625"/>
      <use xlink:href="#OpenSans-Regular-6d" x="166.601562"/>
      <use xlink:href="#OpenSans-Regular-6d" x="259.179688"/>
     </g>
    </g>
   </g>
  </g>
 </g>
 <defs>
  <clipPath id="p6b381702de">
   <rect x="45.01175" y="9.09" width="167.4" height="70.668"/>
  </clipPath>
 </defs>
</svg>
