<?xml version="1.0" encoding="utf-8" standalone="no"?>
<!DOCTYPE svg PUBLIC "-//W3C//DTD SVG 1.1//EN"
  "http://www.w3.org/Graphics/SVG/1.1/DTD/svg11.dtd">
<svg height="140.439688pt" version="1.1" viewBox="0 0 429.41614 140.439688" width="429.41614pt" xmlns="http://www.w3.org/2000/svg" xmlns:xlink="http://www.w3.org/1999/xlink">
 <metadata>
  <rdf:RDF xmlns:cc="http://creativecommons.org/ns#" xmlns:dc="http://purl.org/dc/elements/1.1/" xmlns:rdf="http://www.w3.org/1999/02/22-rdf-syntax-ns#">
   <cc:Work>
    <dc:type rdf:resource="http://purl.org/dc/dcmitype/StillImage"/>
    <dc:date>2021-06-17T17:21:25.651728</dc:date>
    <dc:format>image/svg+xml</dc:format>
    <dc:creator>
     <cc:Agent>
      <dc:title>Matplotlib v3.4.2, https://matplotlib.org/</dc:title>
     </cc:Agent>
    </dc:creator>
   </cc:Work>
  </rdf:RDF>
 </metadata>
 <defs>
  <style type="text/css">*{stroke-linecap:butt;stroke-linejoin:round;}</style>
 </defs>
 <g id="figure_1">
  <g id="patch_1">
   <path d="M 0 140.439688 
L 429.41614 140.439688 
L 429.41614 0 
L 0 0 
z
" style="fill:#ffffff;"/>
  </g>
  <g id="axes_1">
   <g id="patch_2">
    <path d="M 55.249688 103.57875 
L 161.926158 103.57875 
L 161.926158 22.03875 
L 55.249688 22.03875 
z
" style="fill:#ffffff;"/>
   </g>
   <g id="matplotlib.axis_1">
    <g id="xtick_1">
     <g id="line2d_1">
      <defs>
       <path d="M 0 0 
L 0 3.5 
" id="m9da2efa3de" style="stroke:#000000;stroke-width:0.8;"/>
      </defs>
      <g>
       <use style="stroke:#000000;stroke-width:0.8;" x="57.611987" xlink:href="#m9da2efa3de" y="103.57875"/>
      </g>
     </g>
     <g id="text_1">
      <!-- 0 -->
      <g transform="translate(54.711987 117.944375)scale(0.1 -0.1)">
       <defs>
        <path d="M 3520 2291 
Q 3520 1690 3390 1250 
Q 3261 810 3037 522 
Q 2813 234 2507 93 
Q 2202 -48 1853 -48 
Q 1501 -48 1198 93 
Q 896 234 672 522 
Q 448 810 320 1250 
Q 192 1690 192 2291 
Q 192 2893 320 3334 
Q 448 3776 672 4065 
Q 896 4355 1198 4496 
Q 1501 4637 1853 4637 
Q 2202 4637 2507 4496 
Q 2813 4355 3037 4065 
Q 3261 3776 3390 3334 
Q 3520 2893 3520 2291 
z
M 2928 2291 
Q 2928 2816 2840 3173 
Q 2752 3530 2603 3747 
Q 2454 3965 2259 4059 
Q 2064 4154 1853 4154 
Q 1642 4154 1446 4059 
Q 1251 3965 1104 3747 
Q 957 3530 869 3173 
Q 781 2816 781 2291 
Q 781 1766 869 1411 
Q 957 1056 1104 838 
Q 1251 621 1446 526 
Q 1642 432 1853 432 
Q 2064 432 2259 526 
Q 2454 621 2603 838 
Q 2752 1056 2840 1411 
Q 2928 1766 2928 2291 
z
" id="Lato-Regular-30" transform="scale(0.015625)"/>
       </defs>
       <use xlink:href="#Lato-Regular-30"/>
      </g>
     </g>
    </g>
    <g id="xtick_2">
     <g id="line2d_2">
      <g>
       <use style="stroke:#000000;stroke-width:0.8;" x="107.344607" xlink:href="#m9da2efa3de" y="103.57875"/>
      </g>
     </g>
     <g id="text_2">
      <!-- 100 -->
      <g transform="translate(98.644607 117.944375)scale(0.1 -0.1)">
       <defs>
        <path d="M 918 435 
L 1904 435 
L 1904 3562 
Q 1904 3702 1914 3846 
L 1094 3146 
Q 1062 3120 1030 3109 
Q 998 3098 970 3098 
Q 922 3098 883 3118 
Q 845 3139 826 3168 
L 646 3414 
L 2010 4595 
L 2474 4595 
L 2474 435 
L 3376 435 
L 3376 0 
L 918 0 
L 918 435 
z
" id="Lato-Regular-31" transform="scale(0.015625)"/>
       </defs>
       <use xlink:href="#Lato-Regular-31"/>
       <use x="58" xlink:href="#Lato-Regular-30"/>
       <use x="116" xlink:href="#Lato-Regular-30"/>
      </g>
     </g>
    </g>
    <g id="xtick_3">
     <g id="line2d_3">
      <g>
       <use style="stroke:#000000;stroke-width:0.8;" x="157.077228" xlink:href="#m9da2efa3de" y="103.57875"/>
      </g>
     </g>
     <g id="text_3">
      <!-- 200 -->
      <g transform="translate(148.377228 117.944375)scale(0.1 -0.1)">
       <defs>
        <path d="M 1923 4637 
Q 2214 4637 2467 4550 
Q 2720 4464 2904 4299 
Q 3088 4134 3193 3897 
Q 3299 3661 3299 3360 
Q 3299 3104 3222 2886 
Q 3146 2669 3014 2469 
Q 2883 2269 2712 2081 
Q 2541 1894 2349 1699 
L 1142 464 
Q 1270 499 1401 520 
Q 1533 541 1654 541 
L 3190 541 
Q 3283 541 3337 486 
Q 3392 432 3392 346 
L 3392 0 
L 333 0 
L 333 195 
Q 333 256 357 320 
Q 381 384 435 438 
L 1904 1914 
Q 2086 2099 2236 2270 
Q 2387 2442 2494 2614 
Q 2602 2787 2659 2964 
Q 2717 3142 2717 3344 
Q 2717 3546 2653 3698 
Q 2589 3850 2477 3949 
Q 2365 4048 2214 4097 
Q 2064 4147 1891 4147 
Q 1718 4147 1571 4096 
Q 1424 4045 1310 3953 
Q 1197 3862 1118 3737 
Q 1040 3613 1008 3462 
Q 982 3370 931 3328 
Q 880 3286 797 3286 
Q 781 3286 763 3288 
Q 746 3290 723 3293 
L 426 3344 
Q 470 3658 598 3899 
Q 726 4141 923 4304 
Q 1120 4467 1374 4552 
Q 1629 4637 1923 4637 
z
" id="Lato-Regular-32" transform="scale(0.015625)"/>
       </defs>
       <use xlink:href="#Lato-Regular-32"/>
       <use x="58" xlink:href="#Lato-Regular-30"/>
       <use x="116" xlink:href="#Lato-Regular-30"/>
      </g>
     </g>
    </g>
    <g id="text_4">
     <!-- Light-pulse frequency (Hz) -->
     <g transform="translate(50.983235 131.414688)scale(0.1 -0.1)">
      <defs>
       <path d="M 1178 522 
L 3162 522 
L 3162 0 
L 557 0 
L 557 4586 
L 1178 4586 
L 1178 522 
z
" id="Lato-Regular-4c" transform="scale(0.015625)"/>
       <path d="M 1101 3242 
L 1101 0 
L 531 0 
L 531 3242 
L 1101 3242 
z
M 1229 4259 
Q 1229 4176 1195 4104 
Q 1162 4032 1106 3976 
Q 1050 3920 976 3888 
Q 902 3856 819 3856 
Q 736 3856 664 3888 
Q 592 3920 536 3976 
Q 480 4032 448 4104 
Q 416 4176 416 4259 
Q 416 4342 448 4417 
Q 480 4493 536 4549 
Q 592 4605 664 4637 
Q 736 4669 819 4669 
Q 902 4669 976 4637 
Q 1050 4605 1106 4549 
Q 1162 4493 1195 4417 
Q 1229 4342 1229 4259 
z
" id="Lato-Regular-69" transform="scale(0.015625)"/>
       <path d="M 1558 3296 
Q 1770 3296 1954 3249 
Q 2138 3203 2288 3114 
L 3168 3114 
L 3168 2902 
Q 3168 2797 3034 2768 
L 2666 2717 
Q 2774 2509 2774 2253 
Q 2774 2016 2683 1822 
Q 2592 1629 2430 1491 
Q 2269 1354 2046 1280 
Q 1824 1206 1558 1206 
Q 1331 1206 1130 1261 
Q 1027 1197 974 1123 
Q 922 1050 922 979 
Q 922 864 1014 805 
Q 1107 746 1260 720 
Q 1414 694 1609 688 
Q 1805 682 2008 667 
Q 2211 653 2406 617 
Q 2602 582 2755 502 
Q 2909 422 3001 281 
Q 3094 141 3094 -83 
Q 3094 -291 2990 -486 
Q 2886 -682 2691 -834 
Q 2496 -986 2214 -1077 
Q 1933 -1168 1578 -1168 
Q 1222 -1168 955 -1097 
Q 688 -1027 512 -908 
Q 336 -790 248 -635 
Q 160 -480 160 -310 
Q 160 -70 312 98 
Q 464 266 730 365 
Q 592 429 510 536 
Q 429 643 429 822 
Q 429 893 454 968 
Q 480 1043 533 1116 
Q 586 1190 662 1257 
Q 739 1325 842 1376 
Q 602 1510 466 1732 
Q 330 1955 330 2253 
Q 330 2490 421 2683 
Q 512 2877 675 3013 
Q 838 3149 1064 3222 
Q 1290 3296 1558 3296 
z
M 2570 -176 
Q 2570 -54 2502 19 
Q 2435 93 2320 133 
Q 2205 173 2054 192 
Q 1904 211 1737 219 
Q 1571 227 1398 236 
Q 1226 246 1069 272 
Q 886 186 772 61 
Q 659 -64 659 -237 
Q 659 -346 715 -440 
Q 771 -534 886 -603 
Q 1002 -672 1176 -712 
Q 1350 -752 1587 -752 
Q 1818 -752 2000 -710 
Q 2182 -669 2308 -592 
Q 2435 -515 2502 -409 
Q 2570 -304 2570 -176 
z
M 1558 1584 
Q 1731 1584 1864 1632 
Q 1997 1680 2086 1766 
Q 2176 1853 2221 1973 
Q 2266 2093 2266 2237 
Q 2266 2534 2085 2710 
Q 1904 2886 1558 2886 
Q 1216 2886 1035 2710 
Q 854 2534 854 2237 
Q 854 2093 900 1973 
Q 947 1853 1036 1766 
Q 1126 1680 1257 1632 
Q 1389 1584 1558 1584 
z
" id="Lato-Regular-67" transform="scale(0.015625)"/>
       <path d="M 467 0 
L 467 4714 
L 1037 4714 
L 1037 2806 
Q 1245 3027 1497 3160 
Q 1750 3293 2080 3293 
Q 2346 3293 2549 3205 
Q 2752 3117 2888 2955 
Q 3024 2794 3094 2566 
Q 3165 2339 3165 2064 
L 3165 0 
L 2595 0 
L 2595 2064 
Q 2595 2432 2427 2635 
Q 2259 2838 1914 2838 
Q 1661 2838 1441 2716 
Q 1222 2595 1037 2387 
L 1037 0 
L 467 0 
z
" id="Lato-Regular-68" transform="scale(0.015625)"/>
       <path d="M 1450 -51 
Q 1066 -51 859 163 
Q 653 378 653 781 
L 653 2765 
L 262 2765 
Q 211 2765 176 2795 
Q 141 2826 141 2890 
L 141 3117 
L 672 3184 
L 803 4186 
Q 810 4234 845 4264 
Q 880 4294 934 4294 
L 1222 4294 
L 1222 3178 
L 2150 3178 
L 2150 2765 
L 1222 2765 
L 1222 819 
Q 1222 614 1321 515 
Q 1421 416 1578 416 
Q 1667 416 1732 440 
Q 1798 464 1846 493 
Q 1894 522 1928 546 
Q 1962 570 1987 570 
Q 2032 570 2067 515 
L 2234 243 
Q 2086 106 1878 27 
Q 1670 -51 1450 -51 
z
" id="Lato-Regular-74" transform="scale(0.015625)"/>
       <path d="M 320 2160 
L 1901 2160 
L 1901 1677 
L 320 1677 
L 320 2160 
z
" id="Lato-Regular-2d" transform="scale(0.015625)"/>
       <path d="M 467 -1098 
L 467 3242 
L 806 3242 
Q 928 3242 960 3123 
L 1008 2739 
Q 1216 2992 1483 3145 
Q 1750 3299 2099 3299 
Q 2378 3299 2605 3192 
Q 2832 3085 2992 2875 
Q 3152 2666 3238 2355 
Q 3325 2045 3325 1642 
Q 3325 1283 3229 974 
Q 3133 666 2953 440 
Q 2774 214 2513 84 
Q 2253 -45 1926 -45 
Q 1626 -45 1413 54 
Q 1200 154 1037 336 
L 1037 -1098 
L 467 -1098 
z
M 1910 2838 
Q 1632 2838 1422 2710 
Q 1213 2582 1037 2349 
L 1037 781 
Q 1194 570 1381 483 
Q 1568 397 1798 397 
Q 2250 397 2493 720 
Q 2736 1043 2736 1642 
Q 2736 1958 2680 2185 
Q 2624 2413 2518 2558 
Q 2413 2704 2259 2771 
Q 2106 2838 1910 2838 
z
" id="Lato-Regular-70" transform="scale(0.015625)"/>
       <path d="M 960 3242 
L 960 1174 
Q 960 806 1129 604 
Q 1299 403 1642 403 
Q 1891 403 2112 521 
Q 2333 640 2518 851 
L 2518 3242 
L 3088 3242 
L 3088 0 
L 2749 0 
Q 2627 0 2595 118 
L 2550 467 
Q 2339 234 2076 91 
Q 1814 -51 1475 -51 
Q 1210 -51 1006 37 
Q 803 125 665 285 
Q 528 445 459 672 
Q 390 899 390 1174 
L 390 3242 
L 960 3242 
z
" id="Lato-Regular-75" transform="scale(0.015625)"/>
       <path d="M 1101 4714 
L 1101 0 
L 531 0 
L 531 4714 
L 1101 4714 
z
" id="Lato-Regular-6c" transform="scale(0.015625)"/>
       <path d="M 2323 2707 
Q 2285 2637 2205 2637 
Q 2157 2637 2096 2672 
Q 2035 2707 1947 2750 
Q 1859 2794 1737 2830 
Q 1616 2867 1450 2867 
Q 1306 2867 1190 2830 
Q 1075 2794 993 2730 
Q 912 2666 869 2581 
Q 826 2496 826 2397 
Q 826 2272 898 2189 
Q 970 2106 1088 2045 
Q 1206 1984 1356 1937 
Q 1507 1891 1665 1838 
Q 1824 1786 1974 1722 
Q 2125 1658 2243 1562 
Q 2362 1466 2434 1326 
Q 2506 1187 2506 992 
Q 2506 768 2426 577 
Q 2346 387 2189 248 
Q 2032 109 1805 29 
Q 1578 -51 1280 -51 
Q 941 -51 665 59 
Q 390 170 198 342 
L 333 560 
Q 358 602 393 624 
Q 429 646 486 646 
Q 544 646 608 601 
Q 672 557 763 502 
Q 854 448 984 403 
Q 1114 358 1309 358 
Q 1475 358 1600 401 
Q 1725 445 1808 518 
Q 1891 592 1931 688 
Q 1971 784 1971 893 
Q 1971 1027 1899 1115 
Q 1827 1203 1708 1265 
Q 1590 1328 1438 1374 
Q 1286 1421 1128 1472 
Q 970 1523 818 1588 
Q 666 1654 547 1753 
Q 429 1853 357 1998 
Q 285 2144 285 2352 
Q 285 2538 361 2709 
Q 438 2880 585 3009 
Q 733 3139 947 3216 
Q 1162 3293 1437 3293 
Q 1757 3293 2011 3192 
Q 2266 3091 2451 2915 
L 2323 2707 
z
" id="Lato-Regular-73" transform="scale(0.015625)"/>
       <path d="M 1750 3293 
Q 2042 3293 2288 3195 
Q 2534 3098 2713 2914 
Q 2893 2730 2993 2459 
Q 3094 2189 3094 1843 
Q 3094 1709 3065 1664 
Q 3037 1619 2957 1619 
L 800 1619 
Q 806 1312 883 1085 
Q 960 858 1094 706 
Q 1229 554 1414 478 
Q 1600 403 1830 403 
Q 2045 403 2200 452 
Q 2355 502 2467 560 
Q 2579 618 2654 667 
Q 2730 717 2784 717 
Q 2854 717 2893 662 
L 3053 454 
Q 2947 326 2800 232 
Q 2653 138 2485 77 
Q 2317 16 2137 -14 
Q 1958 -45 1782 -45 
Q 1446 -45 1163 68 
Q 880 182 673 401 
Q 467 621 352 944 
Q 237 1267 237 1686 
Q 237 2026 341 2320 
Q 445 2614 640 2830 
Q 835 3046 1116 3169 
Q 1398 3293 1750 3293 
z
M 1763 2874 
Q 1350 2874 1113 2635 
Q 877 2397 819 1974 
L 2582 1974 
Q 2582 2173 2528 2337 
Q 2474 2502 2368 2622 
Q 2262 2742 2110 2808 
Q 1958 2874 1763 2874 
z
" id="Lato-Regular-65" transform="scale(0.015625)"/>
       <path id="Lato-Regular-20" transform="scale(0.015625)"/>
       <path d="M 595 0 
L 595 2755 
L 237 2797 
Q 170 2813 126 2846 
Q 83 2880 83 2944 
L 83 3178 
L 595 3178 
L 595 3491 
Q 595 3770 673 3986 
Q 752 4202 897 4350 
Q 1043 4499 1248 4576 
Q 1453 4653 1709 4653 
Q 1926 4653 2112 4589 
L 2099 4304 
Q 2096 4240 2045 4227 
Q 1994 4214 1901 4214 
L 1802 4214 
Q 1654 4214 1534 4176 
Q 1414 4138 1328 4051 
Q 1242 3965 1195 3824 
Q 1149 3683 1149 3475 
L 1149 3178 
L 2086 3178 
L 2086 2765 
L 1168 2765 
L 1168 0 
L 595 0 
z
" id="Lato-Regular-66" transform="scale(0.015625)"/>
       <path d="M 467 0 
L 467 3242 
L 794 3242 
Q 886 3242 921 3206 
Q 957 3171 970 3085 
L 1008 2579 
Q 1174 2918 1419 3108 
Q 1664 3299 1994 3299 
Q 2128 3299 2237 3268 
Q 2346 3238 2438 3184 
L 2365 2758 
Q 2342 2678 2266 2678 
Q 2221 2678 2128 2708 
Q 2035 2739 1869 2739 
Q 1571 2739 1371 2566 
Q 1171 2394 1037 2064 
L 1037 0 
L 467 0 
z
" id="Lato-Regular-72" transform="scale(0.015625)"/>
       <path d="M 3088 3242 
L 3088 -1098 
L 2518 -1098 
L 2518 480 
Q 2314 243 2053 99 
Q 1792 -45 1456 -45 
Q 1178 -45 950 62 
Q 723 170 563 378 
Q 403 586 316 896 
Q 230 1206 230 1610 
Q 230 1968 326 2277 
Q 422 2586 603 2813 
Q 784 3040 1043 3169 
Q 1302 3299 1632 3299 
Q 1946 3299 2165 3187 
Q 2384 3075 2557 2870 
L 2595 3123 
Q 2627 3242 2749 3242 
L 3088 3242 
z
M 1645 416 
Q 1923 416 2132 544 
Q 2342 672 2518 906 
L 2518 2474 
Q 2365 2678 2176 2766 
Q 1987 2854 1760 2854 
Q 1306 2854 1062 2531 
Q 819 2208 819 1610 
Q 819 1293 873 1067 
Q 928 842 1033 696 
Q 1139 550 1292 483 
Q 1446 416 1645 416 
z
" id="Lato-Regular-71" transform="scale(0.015625)"/>
       <path d="M 467 0 
L 467 3242 
L 806 3242 
Q 928 3242 960 3123 
L 1005 2771 
Q 1216 3005 1477 3149 
Q 1738 3293 2080 3293 
Q 2346 3293 2549 3205 
Q 2752 3117 2888 2955 
Q 3024 2794 3094 2566 
Q 3165 2339 3165 2064 
L 3165 0 
L 2595 0 
L 2595 2064 
Q 2595 2432 2427 2635 
Q 2259 2838 1914 2838 
Q 1661 2838 1441 2716 
Q 1222 2595 1037 2387 
L 1037 0 
L 467 0 
z
" id="Lato-Regular-6e" transform="scale(0.015625)"/>
       <path d="M 2678 2666 
Q 2653 2630 2627 2611 
Q 2602 2592 2554 2592 
Q 2506 2592 2450 2632 
Q 2394 2672 2307 2720 
Q 2221 2768 2097 2808 
Q 1974 2848 1795 2848 
Q 1558 2848 1376 2763 
Q 1194 2678 1070 2518 
Q 947 2358 884 2131 
Q 822 1904 822 1622 
Q 822 1328 889 1099 
Q 957 870 1078 715 
Q 1200 560 1374 478 
Q 1549 397 1766 397 
Q 1974 397 2108 446 
Q 2243 496 2332 557 
Q 2422 618 2480 667 
Q 2538 717 2595 717 
Q 2669 717 2704 662 
L 2864 454 
Q 2653 195 2336 75 
Q 2019 -45 1667 -45 
Q 1363 -45 1102 67 
Q 842 179 650 392 
Q 458 605 347 915 
Q 237 1226 237 1622 
Q 237 1984 337 2291 
Q 438 2598 632 2820 
Q 826 3043 1110 3168 
Q 1395 3293 1763 3293 
Q 2102 3293 2364 3182 
Q 2627 3072 2829 2870 
L 2678 2666 
z
" id="Lato-Regular-63" transform="scale(0.015625)"/>
       <path d="M 1418 -957 
Q 1389 -1021 1345 -1059 
Q 1302 -1098 1213 -1098 
L 790 -1098 
L 1382 189 
L 45 3242 
L 538 3242 
Q 611 3242 652 3205 
Q 694 3168 714 3123 
L 1581 1082 
Q 1610 1011 1630 940 
Q 1651 870 1667 797 
Q 1690 870 1712 940 
Q 1734 1011 1763 1085 
L 2605 3123 
Q 2624 3174 2670 3208 
Q 2717 3242 2771 3242 
L 3226 3242 
L 1418 -957 
z
" id="Lato-Regular-79" transform="scale(0.015625)"/>
       <path d="M 925 2013 
Q 925 1328 1101 683 
Q 1277 38 1610 -547 
Q 1629 -582 1635 -608 
Q 1642 -634 1642 -659 
Q 1642 -704 1619 -733 
Q 1597 -762 1562 -784 
L 1309 -938 
Q 1069 -570 901 -208 
Q 733 154 629 518 
Q 525 883 477 1252 
Q 429 1622 429 2013 
Q 429 2400 477 2771 
Q 525 3142 629 3505 
Q 733 3869 901 4230 
Q 1069 4592 1309 4963 
L 1562 4806 
Q 1597 4784 1619 4755 
Q 1642 4726 1642 4682 
Q 1642 4634 1610 4573 
Q 1274 3990 1099 3344 
Q 925 2698 925 2013 
z
" id="Lato-Regular-28" transform="scale(0.015625)"/>
       <path d="M 4275 0 
L 3651 0 
L 3651 2086 
L 1181 2086 
L 1181 0 
L 557 0 
L 557 4586 
L 1181 4586 
L 1181 2541 
L 3651 2541 
L 3651 4586 
L 4275 4586 
L 4275 0 
z
" id="Lato-Regular-48" transform="scale(0.015625)"/>
       <path d="M 2730 2998 
Q 2730 2938 2707 2882 
Q 2685 2826 2650 2781 
L 896 445 
L 2666 445 
L 2666 0 
L 224 0 
L 224 237 
Q 224 278 245 334 
Q 266 390 304 442 
L 2067 2794 
L 323 2794 
L 323 3242 
L 2730 3242 
L 2730 2998 
z
" id="Lato-Regular-7a" transform="scale(0.015625)"/>
       <path d="M 954 2013 
Q 954 2698 779 3344 
Q 605 3990 269 4573 
Q 237 4634 237 4682 
Q 237 4726 259 4755 
Q 282 4784 317 4806 
L 570 4963 
Q 810 4592 978 4230 
Q 1146 3869 1250 3505 
Q 1354 3142 1402 2771 
Q 1450 2400 1450 2013 
Q 1450 1622 1402 1252 
Q 1354 883 1250 518 
Q 1146 154 978 -208 
Q 810 -570 570 -938 
L 317 -784 
Q 282 -762 259 -733 
Q 237 -704 237 -659 
Q 237 -634 243 -608 
Q 250 -582 269 -547 
Q 602 38 778 683 
Q 954 1328 954 2013 
z
" id="Lato-Regular-29" transform="scale(0.015625)"/>
      </defs>
      <use xlink:href="#Lato-Regular-4c"/>
      <use x="51.400009" xlink:href="#Lato-Regular-69"/>
      <use x="77.000015" xlink:href="#Lato-Regular-67"/>
      <use x="128.100021" xlink:href="#Lato-Regular-68"/>
      <use x="183.700027" xlink:href="#Lato-Regular-74"/>
      <use x="221.000031" xlink:href="#Lato-Regular-2d"/>
      <use x="255.700027" xlink:href="#Lato-Regular-70"/>
      <use x="310.90004" xlink:href="#Lato-Regular-75"/>
      <use x="366.500046" xlink:href="#Lato-Regular-6c"/>
      <use x="392.100052" xlink:href="#Lato-Regular-73"/>
      <use x="435.500061" xlink:href="#Lato-Regular-65"/>
      <use x="487.90007" xlink:href="#Lato-Regular-20"/>
      <use x="507.200073" xlink:href="#Lato-Regular-66"/>
      <use x="540.90007" xlink:href="#Lato-Regular-72"/>
      <use x="581.200073" xlink:href="#Lato-Regular-65"/>
      <use x="633.600082" xlink:href="#Lato-Regular-71"/>
      <use x="689.500092" xlink:href="#Lato-Regular-75"/>
      <use x="745.100098" xlink:href="#Lato-Regular-65"/>
      <use x="797.500107" xlink:href="#Lato-Regular-6e"/>
      <use x="853.100113" xlink:href="#Lato-Regular-63"/>
      <use x="899.80011" xlink:href="#Lato-Regular-79"/>
      <use x="951.000122" xlink:href="#Lato-Regular-20"/>
      <use x="970.300125" xlink:href="#Lato-Regular-28"/>
      <use x="1000.300125" xlink:href="#Lato-Regular-48"/>
      <use x="1075.900131" xlink:href="#Lato-Regular-7a"/>
      <use x="1122.100128" xlink:href="#Lato-Regular-29"/>
     </g>
    </g>
   </g>
   <g id="matplotlib.axis_2">
    <g id="ytick_1">
     <g id="line2d_4">
      <defs>
       <path d="M 0 0 
L -3.5 0 
" id="m373933d738" style="stroke:#000000;stroke-width:0.8;"/>
      </defs>
      <g>
       <use style="stroke:#000000;stroke-width:0.8;" x="55.249688" xlink:href="#m373933d738" y="103.57875"/>
      </g>
     </g>
     <g id="text_5">
      <!-- 0 -->
      <g transform="translate(42.449688 107.261563)scale(0.1 -0.1)">
       <use xlink:href="#Lato-Regular-30"/>
      </g>
     </g>
    </g>
    <g id="ytick_2">
     <g id="line2d_5">
      <g>
       <use style="stroke:#000000;stroke-width:0.8;" x="55.249688" xlink:href="#m373933d738" y="66.515114"/>
      </g>
     </g>
     <g id="text_6">
      <!-- 100 -->
      <g transform="translate(30.849688 70.197926)scale(0.1 -0.1)">
       <use xlink:href="#Lato-Regular-31"/>
       <use x="58" xlink:href="#Lato-Regular-30"/>
       <use x="116" xlink:href="#Lato-Regular-30"/>
      </g>
     </g>
    </g>
    <g id="ytick_3">
     <g id="line2d_6">
      <g>
       <use style="stroke:#000000;stroke-width:0.8;" x="55.249688" xlink:href="#m373933d738" y="29.451477"/>
      </g>
     </g>
     <g id="text_7">
      <!-- 200 -->
      <g transform="translate(30.849688 33.13429)scale(0.1 -0.1)">
       <use xlink:href="#Lato-Regular-32"/>
       <use x="58" xlink:href="#Lato-Regular-30"/>
       <use x="116" xlink:href="#Lato-Regular-30"/>
      </g>
     </g>
    </g>
    <g id="text_8">
     <!-- Percentage of -->
     <g transform="translate(14.470313 93.238438)rotate(-90)scale(0.1 -0.1)">
      <defs>
       <path d="M 1238 1715 
L 1238 0 
L 621 0 
L 621 4586 
L 1974 4586 
Q 2410 4586 2731 4485 
Q 3053 4384 3264 4198 
Q 3475 4013 3579 3750 
Q 3683 3488 3683 3165 
Q 3683 2845 3571 2579 
Q 3459 2314 3243 2122 
Q 3027 1930 2707 1822 
Q 2387 1715 1974 1715 
L 1238 1715 
z
M 1238 2208 
L 1974 2208 
Q 2240 2208 2443 2278 
Q 2646 2349 2784 2475 
Q 2922 2602 2992 2778 
Q 3062 2954 3062 3165 
Q 3062 3603 2792 3849 
Q 2522 4096 1974 4096 
L 1238 4096 
L 1238 2208 
z
" id="Lato-Regular-50" transform="scale(0.015625)"/>
       <path d="M 2848 0 
L 2595 0 
Q 2512 0 2461 25 
Q 2410 51 2394 134 
L 2330 435 
Q 2202 320 2080 229 
Q 1958 138 1824 75 
Q 1690 13 1538 -19 
Q 1386 -51 1200 -51 
Q 1011 -51 846 1 
Q 682 54 560 160 
Q 438 266 366 427 
Q 294 589 294 810 
Q 294 1002 400 1179 
Q 506 1357 741 1494 
Q 976 1632 1357 1720 
Q 1738 1808 2288 1821 
L 2288 2074 
Q 2288 2451 2126 2644 
Q 1965 2838 1648 2838 
Q 1440 2838 1297 2785 
Q 1155 2733 1051 2667 
Q 947 2602 872 2549 
Q 797 2496 723 2496 
Q 666 2496 622 2526 
Q 579 2557 554 2602 
L 451 2784 
Q 720 3043 1030 3171 
Q 1341 3299 1718 3299 
Q 1990 3299 2201 3209 
Q 2413 3120 2557 2960 
Q 2701 2800 2774 2573 
Q 2848 2346 2848 2074 
L 2848 0 
z
M 1370 349 
Q 1520 349 1645 379 
Q 1770 410 1880 466 
Q 1990 522 2091 602 
Q 2192 682 2288 784 
L 2288 1459 
Q 1894 1446 1619 1396 
Q 1344 1347 1171 1267 
Q 998 1187 920 1078 
Q 842 970 842 835 
Q 842 707 883 614 
Q 925 522 995 462 
Q 1066 403 1162 376 
Q 1258 349 1370 349 
z
" id="Lato-Regular-61" transform="scale(0.015625)"/>
       <path d="M 1779 3293 
Q 2134 3293 2420 3174 
Q 2707 3056 2907 2838 
Q 3107 2621 3214 2312 
Q 3322 2003 3322 1622 
Q 3322 1238 3214 931 
Q 3107 624 2907 406 
Q 2707 189 2420 72 
Q 2134 -45 1779 -45 
Q 1424 -45 1137 72 
Q 851 189 649 406 
Q 448 624 339 931 
Q 230 1238 230 1622 
Q 230 2003 339 2312 
Q 448 2621 649 2838 
Q 851 3056 1137 3174 
Q 1424 3293 1779 3293 
z
M 1779 400 
Q 2259 400 2496 721 
Q 2733 1043 2733 1619 
Q 2733 2198 2496 2521 
Q 2259 2845 1779 2845 
Q 1536 2845 1357 2761 
Q 1178 2678 1058 2521 
Q 938 2365 878 2136 
Q 819 1907 819 1619 
Q 819 1331 878 1104 
Q 938 877 1058 721 
Q 1178 566 1357 483 
Q 1536 400 1779 400 
z
" id="Lato-Regular-6f" transform="scale(0.015625)"/>
      </defs>
      <use xlink:href="#Lato-Regular-50"/>
      <use x="61.100006" xlink:href="#Lato-Regular-65"/>
      <use x="113.500015" xlink:href="#Lato-Regular-72"/>
      <use x="153.800018" xlink:href="#Lato-Regular-63"/>
      <use x="200.500015" xlink:href="#Lato-Regular-65"/>
      <use x="252.900024" xlink:href="#Lato-Regular-6e"/>
      <use x="308.500031" xlink:href="#Lato-Regular-74"/>
      <use x="345.800034" xlink:href="#Lato-Regular-61"/>
      <use x="396.500046" xlink:href="#Lato-Regular-67"/>
      <use x="447.600052" xlink:href="#Lato-Regular-65"/>
      <use x="500.000061" xlink:href="#Lato-Regular-20"/>
      <use x="519.300064" xlink:href="#Lato-Regular-6f"/>
      <use x="574.90007" xlink:href="#Lato-Regular-66"/>
     </g>
     <!-- successful spikes -->
     <g transform="translate(25.134063 99.720469)rotate(-90)scale(0.1 -0.1)">
      <defs>
       <path d="M 1059 4714 
L 1059 1939 
L 1206 1939 
Q 1270 1939 1312 1956 
Q 1354 1974 1405 2029 
L 2429 3126 
Q 2477 3178 2525 3210 
Q 2573 3242 2653 3242 
L 3171 3242 
L 1978 1971 
Q 1933 1917 1889 1875 
Q 1846 1834 1792 1802 
Q 1850 1763 1896 1713 
Q 1942 1664 1984 1600 
L 3251 0 
L 2739 0 
Q 2669 0 2619 27 
Q 2570 54 2525 112 
L 1459 1440 
Q 1411 1507 1363 1528 
Q 1315 1549 1219 1549 
L 1059 1549 
L 1059 0 
L 486 0 
L 486 4714 
L 1059 4714 
z
" id="Lato-Regular-6b" transform="scale(0.015625)"/>
      </defs>
      <use xlink:href="#Lato-Regular-73"/>
      <use x="43.400009" xlink:href="#Lato-Regular-75"/>
      <use x="99.000015" xlink:href="#Lato-Regular-63"/>
      <use x="145.700012" xlink:href="#Lato-Regular-63"/>
      <use x="192.400009" xlink:href="#Lato-Regular-65"/>
      <use x="244.800018" xlink:href="#Lato-Regular-73"/>
      <use x="288.200027" xlink:href="#Lato-Regular-73"/>
      <use x="331.600037" xlink:href="#Lato-Regular-66"/>
      <use x="365.300034" xlink:href="#Lato-Regular-75"/>
      <use x="420.90004" xlink:href="#Lato-Regular-6c"/>
      <use x="446.500046" xlink:href="#Lato-Regular-20"/>
      <use x="465.800049" xlink:href="#Lato-Regular-73"/>
      <use x="509.200058" xlink:href="#Lato-Regular-70"/>
      <use x="564.40007" xlink:href="#Lato-Regular-69"/>
      <use x="590.000076" xlink:href="#Lato-Regular-6b"/>
      <use x="642.400085" xlink:href="#Lato-Regular-65"/>
      <use x="694.800095" xlink:href="#Lato-Regular-73"/>
     </g>
    </g>
   </g>
   <g id="line2d_7">
    <path clip-path="url(#p368e624044)" d="M 60.098618 66.515114 
L 70.874019 66.051818 
L 81.64942 44.532543 
L 92.424821 34.746282 
L 103.200222 32.416568 
L 113.975623 31.631691 
L 124.751024 32.196932 
L 135.526425 32.842406 
L 146.301827 34.162369 
L 157.077228 35.196341 
" style="fill:none;stroke:#1f77b4;stroke-linecap:square;stroke-width:1.5;"/>
    <defs>
     <path d="M 0 1.5 
C 0.397805 1.5 0.77937 1.341951 1.06066 1.06066 
C 1.341951 0.77937 1.5 0.397805 1.5 0 
C 1.5 -0.397805 1.341951 -0.77937 1.06066 -1.06066 
C 0.77937 -1.341951 0.397805 -1.5 0 -1.5 
C -0.397805 -1.5 -0.77937 -1.341951 -1.06066 -1.06066 
C -1.341951 -0.77937 -1.5 -0.397805 -1.5 0 
C -1.5 0.397805 -1.341951 0.77937 -1.06066 1.06066 
C -0.77937 1.341951 -0.397805 1.5 0 1.5 
z
" id="m27fafa0a93" style="stroke:#1f77b4;"/>
    </defs>
    <g clip-path="url(#p368e624044)">
     <use style="fill:#1f77b4;stroke:#1f77b4;" x="60.098618" xlink:href="#m27fafa0a93" y="66.515114"/>
     <use style="fill:#1f77b4;stroke:#1f77b4;" x="70.874019" xlink:href="#m27fafa0a93" y="66.051818"/>
     <use style="fill:#1f77b4;stroke:#1f77b4;" x="81.64942" xlink:href="#m27fafa0a93" y="44.532543"/>
     <use style="fill:#1f77b4;stroke:#1f77b4;" x="92.424821" xlink:href="#m27fafa0a93" y="34.746282"/>
     <use style="fill:#1f77b4;stroke:#1f77b4;" x="103.200222" xlink:href="#m27fafa0a93" y="32.416568"/>
     <use style="fill:#1f77b4;stroke:#1f77b4;" x="113.975623" xlink:href="#m27fafa0a93" y="31.631691"/>
     <use style="fill:#1f77b4;stroke:#1f77b4;" x="124.751024" xlink:href="#m27fafa0a93" y="32.196932"/>
     <use style="fill:#1f77b4;stroke:#1f77b4;" x="135.526425" xlink:href="#m27fafa0a93" y="32.842406"/>
     <use style="fill:#1f77b4;stroke:#1f77b4;" x="146.301827" xlink:href="#m27fafa0a93" y="34.162369"/>
     <use style="fill:#1f77b4;stroke:#1f77b4;" x="157.077228" xlink:href="#m27fafa0a93" y="35.196341"/>
    </g>
   </g>
   <g id="line2d_8">
    <path clip-path="url(#p368e624044)" d="M 60.098618 66.515114 
L 70.874019 74.391136 
L 81.64942 83.64107 
L 92.424821 84.517451 
L 103.200222 82.95789 
L 113.975623 81.6676 
L 124.751024 80.791477 
L 135.526425 80.630839 
L 146.301827 80.717068 
L 157.077228 80.969932 
" style="fill:none;stroke:#ff7f0e;stroke-linecap:square;stroke-width:1.5;"/>
    <defs>
     <path d="M 0 1.5 
C 0.397805 1.5 0.77937 1.341951 1.06066 1.06066 
C 1.341951 0.77937 1.5 0.397805 1.5 0 
C 1.5 -0.397805 1.341951 -0.77937 1.06066 -1.06066 
C 0.77937 -1.341951 0.397805 -1.5 0 -1.5 
C -0.397805 -1.5 -0.77937 -1.341951 -1.06066 -1.06066 
C -1.341951 -0.77937 -1.5 -0.397805 -1.5 0 
C -1.5 0.397805 -1.341951 0.77937 -1.06066 1.06066 
C -0.77937 1.341951 -0.397805 1.5 0 1.5 
z
" id="mc1180d2d85" style="stroke:#ff7f0e;"/>
    </defs>
    <g clip-path="url(#p368e624044)">
     <use style="fill:#ff7f0e;stroke:#ff7f0e;" x="60.098618" xlink:href="#mc1180d2d85" y="66.515114"/>
     <use style="fill:#ff7f0e;stroke:#ff7f0e;" x="70.874019" xlink:href="#mc1180d2d85" y="74.391136"/>
     <use style="fill:#ff7f0e;stroke:#ff7f0e;" x="81.64942" xlink:href="#mc1180d2d85" y="83.64107"/>
     <use style="fill:#ff7f0e;stroke:#ff7f0e;" x="92.424821" xlink:href="#mc1180d2d85" y="84.517451"/>
     <use style="fill:#ff7f0e;stroke:#ff7f0e;" x="103.200222" xlink:href="#mc1180d2d85" y="82.95789"/>
     <use style="fill:#ff7f0e;stroke:#ff7f0e;" x="113.975623" xlink:href="#mc1180d2d85" y="81.6676"/>
     <use style="fill:#ff7f0e;stroke:#ff7f0e;" x="124.751024" xlink:href="#mc1180d2d85" y="80.791477"/>
     <use style="fill:#ff7f0e;stroke:#ff7f0e;" x="135.526425" xlink:href="#mc1180d2d85" y="80.630839"/>
     <use style="fill:#ff7f0e;stroke:#ff7f0e;" x="146.301827" xlink:href="#mc1180d2d85" y="80.717068"/>
     <use style="fill:#ff7f0e;stroke:#ff7f0e;" x="157.077228" xlink:href="#mc1180d2d85" y="80.969932"/>
    </g>
   </g>
   <g id="line2d_9">
    <path clip-path="url(#p368e624044)" d="M 60.098618 66.515114 
L 70.874019 78.560795 
L 81.64942 82.874236 
L 92.424821 83.45849 
L 103.200222 83.766552 
L 113.975623 84.610889 
L 124.751024 85.184205 
L 135.526425 85.598943 
L 146.301827 86.120738 
L 157.077228 86.529477 
" style="fill:none;stroke:#2ca02c;stroke-linecap:square;stroke-width:1.5;"/>
    <defs>
     <path d="M 0 1.5 
C 0.397805 1.5 0.77937 1.341951 1.06066 1.06066 
C 1.341951 0.77937 1.5 0.397805 1.5 0 
C 1.5 -0.397805 1.341951 -0.77937 1.06066 -1.06066 
C 0.77937 -1.341951 0.397805 -1.5 0 -1.5 
C -0.397805 -1.5 -0.77937 -1.341951 -1.06066 -1.06066 
C -1.341951 -0.77937 -1.5 -0.397805 -1.5 0 
C -1.5 0.397805 -1.341951 0.77937 -1.06066 1.06066 
C -0.77937 1.341951 -0.397805 1.5 0 1.5 
z
" id="m4ae4443fea" style="stroke:#2ca02c;"/>
    </defs>
    <g clip-path="url(#p368e624044)">
     <use style="fill:#2ca02c;stroke:#2ca02c;" x="60.098618" xlink:href="#m4ae4443fea" y="66.515114"/>
     <use style="fill:#2ca02c;stroke:#2ca02c;" x="70.874019" xlink:href="#m4ae4443fea" y="78.560795"/>
     <use style="fill:#2ca02c;stroke:#2ca02c;" x="81.64942" xlink:href="#m4ae4443fea" y="82.874236"/>
     <use style="fill:#2ca02c;stroke:#2ca02c;" x="92.424821" xlink:href="#m4ae4443fea" y="83.45849"/>
     <use style="fill:#2ca02c;stroke:#2ca02c;" x="103.200222" xlink:href="#m4ae4443fea" y="83.766552"/>
     <use style="fill:#2ca02c;stroke:#2ca02c;" x="113.975623" xlink:href="#m4ae4443fea" y="84.610889"/>
     <use style="fill:#2ca02c;stroke:#2ca02c;" x="124.751024" xlink:href="#m4ae4443fea" y="85.184205"/>
     <use style="fill:#2ca02c;stroke:#2ca02c;" x="135.526425" xlink:href="#m4ae4443fea" y="85.598943"/>
     <use style="fill:#2ca02c;stroke:#2ca02c;" x="146.301827" xlink:href="#m4ae4443fea" y="86.120738"/>
     <use style="fill:#2ca02c;stroke:#2ca02c;" x="157.077228" xlink:href="#m4ae4443fea" y="86.529477"/>
    </g>
   </g>
   <g id="patch_3">
    <path d="M 55.249688 103.57875 
L 55.249688 22.03875 
" style="fill:none;stroke:#000000;stroke-linecap:square;stroke-linejoin:miter;stroke-width:0.8;"/>
   </g>
   <g id="patch_4">
    <path d="M 161.926158 103.57875 
L 161.926158 22.03875 
" style="fill:none;stroke:#000000;stroke-linecap:square;stroke-linejoin:miter;stroke-width:0.8;"/>
   </g>
   <g id="patch_5">
    <path d="M 55.249688 103.57875 
L 161.926158 103.57875 
" style="fill:none;stroke:#000000;stroke-linecap:square;stroke-linejoin:miter;stroke-width:0.8;"/>
   </g>
   <g id="patch_6">
    <path d="M 55.249688 22.03875 
L 161.926158 22.03875 
" style="fill:none;stroke:#000000;stroke-linecap:square;stroke-linejoin:miter;stroke-width:0.8;"/>
   </g>
   <g id="text_9">
    <!-- 1-ms pulse width -->
    <g transform="translate(64.18886 16.03875)scale(0.12 -0.12)">
     <defs>
      <path d="M 467 0 
L 467 3242 
L 806 3242 
Q 928 3242 960 3123 
L 1002 2790 
Q 1181 3011 1403 3152 
Q 1626 3293 1920 3293 
Q 2250 3293 2453 3110 
Q 2656 2928 2746 2618 
Q 2813 2794 2923 2922 
Q 3034 3050 3171 3133 
Q 3309 3216 3464 3254 
Q 3619 3293 3779 3293 
Q 4035 3293 4235 3211 
Q 4435 3130 4574 2973 
Q 4714 2816 4787 2587 
Q 4861 2358 4861 2064 
L 4861 0 
L 4291 0 
L 4291 2064 
Q 4291 2445 4124 2641 
Q 3958 2838 3642 2838 
Q 3501 2838 3374 2788 
Q 3248 2739 3152 2643 
Q 3056 2547 3000 2401 
Q 2944 2256 2944 2064 
L 2944 0 
L 2374 0 
L 2374 2064 
Q 2374 2454 2217 2646 
Q 2061 2838 1760 2838 
Q 1549 2838 1368 2724 
Q 1187 2611 1037 2416 
L 1037 0 
L 467 0 
z
" id="Lato-Regular-6d" transform="scale(0.015625)"/>
      <path d="M 45 3242 
L 493 3242 
Q 563 3242 608 3206 
Q 653 3171 669 3123 
L 1290 1037 
Q 1315 922 1337 814 
Q 1360 707 1376 598 
Q 1402 707 1434 814 
Q 1466 922 1501 1037 
L 2186 3136 
Q 2202 3184 2242 3216 
Q 2282 3248 2342 3248 
L 2589 3248 
Q 2653 3248 2694 3216 
Q 2736 3184 2752 3136 
L 3421 1037 
Q 3456 925 3483 816 
Q 3510 707 3536 602 
Q 3552 707 3577 822 
Q 3603 938 3632 1037 
L 4266 3123 
Q 4282 3174 4326 3208 
Q 4371 3242 4432 3242 
L 4861 3242 
L 3811 0 
L 3360 0 
Q 3277 0 3245 109 
L 2528 2307 
Q 2502 2381 2486 2456 
Q 2470 2531 2454 2605 
Q 2438 2531 2422 2454 
Q 2406 2378 2381 2304 
L 1654 109 
Q 1619 0 1523 0 
L 1094 0 
L 45 3242 
z
" id="Lato-Regular-77" transform="scale(0.015625)"/>
      <path d="M 2749 0 
Q 2627 0 2595 118 
L 2544 512 
Q 2336 259 2069 107 
Q 1802 -45 1456 -45 
Q 1178 -45 950 62 
Q 723 170 563 378 
Q 403 586 316 896 
Q 230 1206 230 1610 
Q 230 1968 326 2277 
Q 422 2586 603 2813 
Q 784 3040 1043 3169 
Q 1302 3299 1632 3299 
Q 1930 3299 2141 3198 
Q 2352 3098 2518 2915 
L 2518 4714 
L 3088 4714 
L 3088 0 
L 2749 0 
z
M 1645 416 
Q 1923 416 2132 544 
Q 2342 672 2518 906 
L 2518 2474 
Q 2362 2685 2174 2769 
Q 1987 2854 1760 2854 
Q 1306 2854 1062 2531 
Q 819 2208 819 1610 
Q 819 1293 873 1067 
Q 928 842 1033 696 
Q 1139 550 1292 483 
Q 1446 416 1645 416 
z
" id="Lato-Regular-64" transform="scale(0.015625)"/>
     </defs>
     <use xlink:href="#Lato-Regular-31"/>
     <use x="58" xlink:href="#Lato-Regular-2d"/>
     <use x="92.699997" xlink:href="#Lato-Regular-6d"/>
     <use x="174.800003" xlink:href="#Lato-Regular-73"/>
     <use x="218.200012" xlink:href="#Lato-Regular-20"/>
     <use x="237.500015" xlink:href="#Lato-Regular-70"/>
     <use x="292.700027" xlink:href="#Lato-Regular-75"/>
     <use x="348.300034" xlink:href="#Lato-Regular-6c"/>
     <use x="373.90004" xlink:href="#Lato-Regular-73"/>
     <use x="417.300049" xlink:href="#Lato-Regular-65"/>
     <use x="469.700058" xlink:href="#Lato-Regular-20"/>
     <use x="489.000061" xlink:href="#Lato-Regular-77"/>
     <use x="565.600067" xlink:href="#Lato-Regular-69"/>
     <use x="591.200073" xlink:href="#Lato-Regular-64"/>
     <use x="647.100082" xlink:href="#Lato-Regular-74"/>
     <use x="684.400085" xlink:href="#Lato-Regular-68"/>
    </g>
   </g>
  </g>
  <g id="axes_2">
   <g id="patch_7">
    <path d="M 183.261452 103.57875 
L 289.937923 103.57875 
L 289.937923 22.03875 
L 183.261452 22.03875 
z
" style="fill:#ffffff;"/>
   </g>
   <g id="matplotlib.axis_3">
    <g id="xtick_4">
     <g id="line2d_10">
      <g>
       <use style="stroke:#000000;stroke-width:0.8;" x="185.623752" xlink:href="#m9da2efa3de" y="103.57875"/>
      </g>
     </g>
     <g id="text_10">
      <!-- 0 -->
      <g transform="translate(182.723752 117.944375)scale(0.1 -0.1)">
       <use xlink:href="#Lato-Regular-30"/>
      </g>
     </g>
    </g>
    <g id="xtick_5">
     <g id="line2d_11">
      <g>
       <use style="stroke:#000000;stroke-width:0.8;" x="235.356372" xlink:href="#m9da2efa3de" y="103.57875"/>
      </g>
     </g>
     <g id="text_11">
      <!-- 100 -->
      <g transform="translate(226.656372 117.944375)scale(0.1 -0.1)">
       <use xlink:href="#Lato-Regular-31"/>
       <use x="58" xlink:href="#Lato-Regular-30"/>
       <use x="116" xlink:href="#Lato-Regular-30"/>
      </g>
     </g>
    </g>
    <g id="xtick_6">
     <g id="line2d_12">
      <g>
       <use style="stroke:#000000;stroke-width:0.8;" x="285.088992" xlink:href="#m9da2efa3de" y="103.57875"/>
      </g>
     </g>
     <g id="text_12">
      <!-- 200 -->
      <g transform="translate(276.388992 117.944375)scale(0.1 -0.1)">
       <use xlink:href="#Lato-Regular-32"/>
       <use x="58" xlink:href="#Lato-Regular-30"/>
       <use x="116" xlink:href="#Lato-Regular-30"/>
      </g>
     </g>
    </g>
    <g id="text_13">
     <!-- Light-pulse frequency (Hz) -->
     <g transform="translate(178.995 131.414688)scale(0.1 -0.1)">
      <use xlink:href="#Lato-Regular-4c"/>
      <use x="51.400009" xlink:href="#Lato-Regular-69"/>
      <use x="77.000015" xlink:href="#Lato-Regular-67"/>
      <use x="128.100021" xlink:href="#Lato-Regular-68"/>
      <use x="183.700027" xlink:href="#Lato-Regular-74"/>
      <use x="221.000031" xlink:href="#Lato-Regular-2d"/>
      <use x="255.700027" xlink:href="#Lato-Regular-70"/>
      <use x="310.90004" xlink:href="#Lato-Regular-75"/>
      <use x="366.500046" xlink:href="#Lato-Regular-6c"/>
      <use x="392.100052" xlink:href="#Lato-Regular-73"/>
      <use x="435.500061" xlink:href="#Lato-Regular-65"/>
      <use x="487.90007" xlink:href="#Lato-Regular-20"/>
      <use x="507.200073" xlink:href="#Lato-Regular-66"/>
      <use x="540.90007" xlink:href="#Lato-Regular-72"/>
      <use x="581.200073" xlink:href="#Lato-Regular-65"/>
      <use x="633.600082" xlink:href="#Lato-Regular-71"/>
      <use x="689.500092" xlink:href="#Lato-Regular-75"/>
      <use x="745.100098" xlink:href="#Lato-Regular-65"/>
      <use x="797.500107" xlink:href="#Lato-Regular-6e"/>
      <use x="853.100113" xlink:href="#Lato-Regular-63"/>
      <use x="899.80011" xlink:href="#Lato-Regular-79"/>
      <use x="951.000122" xlink:href="#Lato-Regular-20"/>
      <use x="970.300125" xlink:href="#Lato-Regular-28"/>
      <use x="1000.300125" xlink:href="#Lato-Regular-48"/>
      <use x="1075.900131" xlink:href="#Lato-Regular-7a"/>
      <use x="1122.100128" xlink:href="#Lato-Regular-29"/>
     </g>
    </g>
   </g>
   <g id="matplotlib.axis_4">
    <g id="ytick_4">
     <g id="line2d_13">
      <g>
       <use style="stroke:#000000;stroke-width:0.8;" x="183.261452" xlink:href="#m373933d738" y="103.57875"/>
      </g>
     </g>
    </g>
    <g id="ytick_5">
     <g id="line2d_14">
      <g>
       <use style="stroke:#000000;stroke-width:0.8;" x="183.261452" xlink:href="#m373933d738" y="66.515114"/>
      </g>
     </g>
    </g>
    <g id="ytick_6">
     <g id="line2d_15">
      <g>
       <use style="stroke:#000000;stroke-width:0.8;" x="183.261452" xlink:href="#m373933d738" y="29.451477"/>
      </g>
     </g>
    </g>
   </g>
   <g id="line2d_16">
    <path clip-path="url(#p9cd6355aa1)" d="M 188.110383 66.515114 
L 198.885784 66.051818 
L 209.661185 44.532543 
L 220.436586 34.746282 
L 231.211987 32.012238 
L 241.987388 31.631691 
L 252.762789 32.196932 
L 263.53819 32.842406 
L 274.313591 33.954536 
L 285.088992 35.196341 
" style="fill:none;stroke:#1f77b4;stroke-linecap:square;stroke-width:1.5;"/>
    <g clip-path="url(#p9cd6355aa1)">
     <use style="fill:#1f77b4;stroke:#1f77b4;" x="188.110383" xlink:href="#m27fafa0a93" y="66.515114"/>
     <use style="fill:#1f77b4;stroke:#1f77b4;" x="198.885784" xlink:href="#m27fafa0a93" y="66.051818"/>
     <use style="fill:#1f77b4;stroke:#1f77b4;" x="209.661185" xlink:href="#m27fafa0a93" y="44.532543"/>
     <use style="fill:#1f77b4;stroke:#1f77b4;" x="220.436586" xlink:href="#m27fafa0a93" y="34.746282"/>
     <use style="fill:#1f77b4;stroke:#1f77b4;" x="231.211987" xlink:href="#m27fafa0a93" y="32.012238"/>
     <use style="fill:#1f77b4;stroke:#1f77b4;" x="241.987388" xlink:href="#m27fafa0a93" y="31.631691"/>
     <use style="fill:#1f77b4;stroke:#1f77b4;" x="252.762789" xlink:href="#m27fafa0a93" y="32.196932"/>
     <use style="fill:#1f77b4;stroke:#1f77b4;" x="263.53819" xlink:href="#m27fafa0a93" y="32.842406"/>
     <use style="fill:#1f77b4;stroke:#1f77b4;" x="274.313591" xlink:href="#m27fafa0a93" y="33.954536"/>
     <use style="fill:#1f77b4;stroke:#1f77b4;" x="285.088992" xlink:href="#m27fafa0a93" y="35.196341"/>
    </g>
   </g>
   <g id="line2d_17">
    <path clip-path="url(#p9cd6355aa1)" d="M 188.110383 66.515114 
L 198.885784 74.391136 
L 209.661185 84.407904 
L 220.436586 84.517451 
L 231.211987 83.362221 
L 241.987388 81.340568 
L 252.762789 80.516932 
L 263.53819 80.394263 
L 274.313591 80.509234 
L 285.088992 80.599295 
" style="fill:none;stroke:#ff7f0e;stroke-linecap:square;stroke-width:1.5;"/>
    <g clip-path="url(#p9cd6355aa1)">
     <use style="fill:#ff7f0e;stroke:#ff7f0e;" x="188.110383" xlink:href="#mc1180d2d85" y="66.515114"/>
     <use style="fill:#ff7f0e;stroke:#ff7f0e;" x="198.885784" xlink:href="#mc1180d2d85" y="74.391136"/>
     <use style="fill:#ff7f0e;stroke:#ff7f0e;" x="209.661185" xlink:href="#mc1180d2d85" y="84.407904"/>
     <use style="fill:#ff7f0e;stroke:#ff7f0e;" x="220.436586" xlink:href="#mc1180d2d85" y="84.517451"/>
     <use style="fill:#ff7f0e;stroke:#ff7f0e;" x="231.211987" xlink:href="#mc1180d2d85" y="83.362221"/>
     <use style="fill:#ff7f0e;stroke:#ff7f0e;" x="241.987388" xlink:href="#mc1180d2d85" y="81.340568"/>
     <use style="fill:#ff7f0e;stroke:#ff7f0e;" x="252.762789" xlink:href="#mc1180d2d85" y="80.516932"/>
     <use style="fill:#ff7f0e;stroke:#ff7f0e;" x="263.53819" xlink:href="#mc1180d2d85" y="80.394263"/>
     <use style="fill:#ff7f0e;stroke:#ff7f0e;" x="274.313591" xlink:href="#mc1180d2d85" y="80.509234"/>
     <use style="fill:#ff7f0e;stroke:#ff7f0e;" x="285.088992" xlink:href="#mc1180d2d85" y="80.599295"/>
    </g>
   </g>
   <g id="line2d_18">
    <path clip-path="url(#p9cd6355aa1)" d="M 188.110383 66.515114 
L 198.885784 79.950682 
L 209.661185 82.874236 
L 220.436586 83.45849 
L 231.211987 84.170882 
L 241.987388 84.610889 
L 252.762789 85.184205 
L 263.53819 85.83552 
L 274.313591 86.328572 
L 285.088992 86.714795 
" style="fill:none;stroke:#2ca02c;stroke-linecap:square;stroke-width:1.5;"/>
    <g clip-path="url(#p9cd6355aa1)">
     <use style="fill:#2ca02c;stroke:#2ca02c;" x="188.110383" xlink:href="#m4ae4443fea" y="66.515114"/>
     <use style="fill:#2ca02c;stroke:#2ca02c;" x="198.885784" xlink:href="#m4ae4443fea" y="79.950682"/>
     <use style="fill:#2ca02c;stroke:#2ca02c;" x="209.661185" xlink:href="#m4ae4443fea" y="82.874236"/>
     <use style="fill:#2ca02c;stroke:#2ca02c;" x="220.436586" xlink:href="#m4ae4443fea" y="83.45849"/>
     <use style="fill:#2ca02c;stroke:#2ca02c;" x="231.211987" xlink:href="#m4ae4443fea" y="84.170882"/>
     <use style="fill:#2ca02c;stroke:#2ca02c;" x="241.987388" xlink:href="#m4ae4443fea" y="84.610889"/>
     <use style="fill:#2ca02c;stroke:#2ca02c;" x="252.762789" xlink:href="#m4ae4443fea" y="85.184205"/>
     <use style="fill:#2ca02c;stroke:#2ca02c;" x="263.53819" xlink:href="#m4ae4443fea" y="85.83552"/>
     <use style="fill:#2ca02c;stroke:#2ca02c;" x="274.313591" xlink:href="#m4ae4443fea" y="86.328572"/>
     <use style="fill:#2ca02c;stroke:#2ca02c;" x="285.088992" xlink:href="#m4ae4443fea" y="86.714795"/>
    </g>
   </g>
   <g id="patch_8">
    <path d="M 183.261452 103.57875 
L 183.261452 22.03875 
" style="fill:none;stroke:#000000;stroke-linecap:square;stroke-linejoin:miter;stroke-width:0.8;"/>
   </g>
   <g id="patch_9">
    <path d="M 289.937923 103.57875 
L 289.937923 22.03875 
" style="fill:none;stroke:#000000;stroke-linecap:square;stroke-linejoin:miter;stroke-width:0.8;"/>
   </g>
   <g id="patch_10">
    <path d="M 183.261452 103.57875 
L 289.937923 103.57875 
" style="fill:none;stroke:#000000;stroke-linecap:square;stroke-linejoin:miter;stroke-width:0.8;"/>
   </g>
   <g id="patch_11">
    <path d="M 183.261452 22.03875 
L 289.937923 22.03875 
" style="fill:none;stroke:#000000;stroke-linecap:square;stroke-linejoin:miter;stroke-width:0.8;"/>
   </g>
   <g id="text_14">
    <!-- 2-ms pulse width -->
    <g transform="translate(192.200625 16.03875)scale(0.12 -0.12)">
     <use xlink:href="#Lato-Regular-32"/>
     <use x="58" xlink:href="#Lato-Regular-2d"/>
     <use x="92.699997" xlink:href="#Lato-Regular-6d"/>
     <use x="174.800003" xlink:href="#Lato-Regular-73"/>
     <use x="218.200012" xlink:href="#Lato-Regular-20"/>
     <use x="237.500015" xlink:href="#Lato-Regular-70"/>
     <use x="292.700027" xlink:href="#Lato-Regular-75"/>
     <use x="348.300034" xlink:href="#Lato-Regular-6c"/>
     <use x="373.90004" xlink:href="#Lato-Regular-73"/>
     <use x="417.300049" xlink:href="#Lato-Regular-65"/>
     <use x="469.700058" xlink:href="#Lato-Regular-20"/>
     <use x="489.000061" xlink:href="#Lato-Regular-77"/>
     <use x="565.600067" xlink:href="#Lato-Regular-69"/>
     <use x="591.200073" xlink:href="#Lato-Regular-64"/>
     <use x="647.100082" xlink:href="#Lato-Regular-74"/>
     <use x="684.400085" xlink:href="#Lato-Regular-68"/>
    </g>
   </g>
  </g>
  <g id="axes_3">
   <g id="patch_12">
    <path d="M 311.273217 103.57875 
L 417.949687 103.57875 
L 417.949687 22.03875 
L 311.273217 22.03875 
z
" style="fill:#ffffff;"/>
   </g>
   <g id="matplotlib.axis_5">
    <g id="xtick_7">
     <g id="line2d_19">
      <g>
       <use style="stroke:#000000;stroke-width:0.8;" x="313.635516" xlink:href="#m9da2efa3de" y="103.57875"/>
      </g>
     </g>
     <g id="text_15">
      <!-- 0 -->
      <g transform="translate(310.735516 117.944375)scale(0.1 -0.1)">
       <use xlink:href="#Lato-Regular-30"/>
      </g>
     </g>
    </g>
    <g id="xtick_8">
     <g id="line2d_20">
      <g>
       <use style="stroke:#000000;stroke-width:0.8;" x="363.368137" xlink:href="#m9da2efa3de" y="103.57875"/>
      </g>
     </g>
     <g id="text_16">
      <!-- 100 -->
      <g transform="translate(354.668137 117.944375)scale(0.1 -0.1)">
       <use xlink:href="#Lato-Regular-31"/>
       <use x="58" xlink:href="#Lato-Regular-30"/>
       <use x="116" xlink:href="#Lato-Regular-30"/>
      </g>
     </g>
    </g>
    <g id="xtick_9">
     <g id="line2d_21">
      <g>
       <use style="stroke:#000000;stroke-width:0.8;" x="413.100757" xlink:href="#m9da2efa3de" y="103.57875"/>
      </g>
     </g>
     <g id="text_17">
      <!-- 200 -->
      <g transform="translate(404.400757 117.944375)scale(0.1 -0.1)">
       <use xlink:href="#Lato-Regular-32"/>
       <use x="58" xlink:href="#Lato-Regular-30"/>
       <use x="116" xlink:href="#Lato-Regular-30"/>
      </g>
     </g>
    </g>
    <g id="text_18">
     <!-- Light-pulse frequency (Hz) -->
     <g transform="translate(307.006765 131.414688)scale(0.1 -0.1)">
      <use xlink:href="#Lato-Regular-4c"/>
      <use x="51.400009" xlink:href="#Lato-Regular-69"/>
      <use x="77.000015" xlink:href="#Lato-Regular-67"/>
      <use x="128.100021" xlink:href="#Lato-Regular-68"/>
      <use x="183.700027" xlink:href="#Lato-Regular-74"/>
      <use x="221.000031" xlink:href="#Lato-Regular-2d"/>
      <use x="255.700027" xlink:href="#Lato-Regular-70"/>
      <use x="310.90004" xlink:href="#Lato-Regular-75"/>
      <use x="366.500046" xlink:href="#Lato-Regular-6c"/>
      <use x="392.100052" xlink:href="#Lato-Regular-73"/>
      <use x="435.500061" xlink:href="#Lato-Regular-65"/>
      <use x="487.90007" xlink:href="#Lato-Regular-20"/>
      <use x="507.200073" xlink:href="#Lato-Regular-66"/>
      <use x="540.90007" xlink:href="#Lato-Regular-72"/>
      <use x="581.200073" xlink:href="#Lato-Regular-65"/>
      <use x="633.600082" xlink:href="#Lato-Regular-71"/>
      <use x="689.500092" xlink:href="#Lato-Regular-75"/>
      <use x="745.100098" xlink:href="#Lato-Regular-65"/>
      <use x="797.500107" xlink:href="#Lato-Regular-6e"/>
      <use x="853.100113" xlink:href="#Lato-Regular-63"/>
      <use x="899.80011" xlink:href="#Lato-Regular-79"/>
      <use x="951.000122" xlink:href="#Lato-Regular-20"/>
      <use x="970.300125" xlink:href="#Lato-Regular-28"/>
      <use x="1000.300125" xlink:href="#Lato-Regular-48"/>
      <use x="1075.900131" xlink:href="#Lato-Regular-7a"/>
      <use x="1122.100128" xlink:href="#Lato-Regular-29"/>
     </g>
    </g>
   </g>
   <g id="matplotlib.axis_6">
    <g id="ytick_7">
     <g id="line2d_22">
      <g>
       <use style="stroke:#000000;stroke-width:0.8;" x="311.273217" xlink:href="#m373933d738" y="103.57875"/>
      </g>
     </g>
    </g>
    <g id="ytick_8">
     <g id="line2d_23">
      <g>
       <use style="stroke:#000000;stroke-width:0.8;" x="311.273217" xlink:href="#m373933d738" y="66.515114"/>
      </g>
     </g>
    </g>
    <g id="ytick_9">
     <g id="line2d_24">
      <g>
       <use style="stroke:#000000;stroke-width:0.8;" x="311.273217" xlink:href="#m373933d738" y="29.451477"/>
      </g>
     </g>
    </g>
   </g>
   <g id="line2d_25">
    <path clip-path="url(#p917e292589)" d="M 316.122147 66.515114 
L 326.897548 66.051818 
L 337.67295 44.532543 
L 348.448351 34.216802 
L 359.223752 31.203576 
L 369.999153 30.977627 
L 380.774554 31.647841 
L 391.549955 32.369253 
L 402.325356 33.538869 
L 413.100757 34.640386 
" style="fill:none;stroke:#1f77b4;stroke-linecap:square;stroke-width:1.5;"/>
    <g clip-path="url(#p917e292589)">
     <use style="fill:#1f77b4;stroke:#1f77b4;" x="316.122147" xlink:href="#m27fafa0a93" y="66.515114"/>
     <use style="fill:#1f77b4;stroke:#1f77b4;" x="326.897548" xlink:href="#m27fafa0a93" y="66.051818"/>
     <use style="fill:#1f77b4;stroke:#1f77b4;" x="337.67295" xlink:href="#m27fafa0a93" y="44.532543"/>
     <use style="fill:#1f77b4;stroke:#1f77b4;" x="348.448351" xlink:href="#m27fafa0a93" y="34.216802"/>
     <use style="fill:#1f77b4;stroke:#1f77b4;" x="359.223752" xlink:href="#m27fafa0a93" y="31.203576"/>
     <use style="fill:#1f77b4;stroke:#1f77b4;" x="369.999153" xlink:href="#m27fafa0a93" y="30.977627"/>
     <use style="fill:#1f77b4;stroke:#1f77b4;" x="380.774554" xlink:href="#m27fafa0a93" y="31.647841"/>
     <use style="fill:#1f77b4;stroke:#1f77b4;" x="391.549955" xlink:href="#m27fafa0a93" y="32.369253"/>
     <use style="fill:#1f77b4;stroke:#1f77b4;" x="402.325356" xlink:href="#m27fafa0a93" y="33.538869"/>
     <use style="fill:#1f77b4;stroke:#1f77b4;" x="413.100757" xlink:href="#m27fafa0a93" y="34.640386"/>
    </g>
   </g>
   <g id="line2d_26">
    <path clip-path="url(#p917e292589)" d="M 316.122147 66.515114 
L 326.897548 75.781023 
L 337.67295 84.407904 
L 348.448351 83.987971 
L 359.223752 82.55356 
L 369.999153 80.359472 
L 380.774554 79.41875 
L 391.549955 79.211381 
L 402.325356 79.262233 
L 413.100757 79.487386 
" style="fill:none;stroke:#ff7f0e;stroke-linecap:square;stroke-width:1.5;"/>
    <g clip-path="url(#p917e292589)">
     <use style="fill:#ff7f0e;stroke:#ff7f0e;" x="316.122147" xlink:href="#mc1180d2d85" y="66.515114"/>
     <use style="fill:#ff7f0e;stroke:#ff7f0e;" x="326.897548" xlink:href="#mc1180d2d85" y="75.781023"/>
     <use style="fill:#ff7f0e;stroke:#ff7f0e;" x="337.67295" xlink:href="#mc1180d2d85" y="84.407904"/>
     <use style="fill:#ff7f0e;stroke:#ff7f0e;" x="348.448351" xlink:href="#mc1180d2d85" y="83.987971"/>
     <use style="fill:#ff7f0e;stroke:#ff7f0e;" x="359.223752" xlink:href="#mc1180d2d85" y="82.55356"/>
     <use style="fill:#ff7f0e;stroke:#ff7f0e;" x="369.999153" xlink:href="#mc1180d2d85" y="80.359472"/>
     <use style="fill:#ff7f0e;stroke:#ff7f0e;" x="380.774554" xlink:href="#mc1180d2d85" y="79.41875"/>
     <use style="fill:#ff7f0e;stroke:#ff7f0e;" x="391.549955" xlink:href="#mc1180d2d85" y="79.211381"/>
     <use style="fill:#ff7f0e;stroke:#ff7f0e;" x="402.325356" xlink:href="#mc1180d2d85" y="79.262233"/>
     <use style="fill:#ff7f0e;stroke:#ff7f0e;" x="413.100757" xlink:href="#mc1180d2d85" y="79.487386"/>
    </g>
   </g>
   <g id="line2d_27">
    <path clip-path="url(#p917e292589)" d="M 316.122147 66.515114 
L 326.897548 81.340568 
L 337.67295 84.407904 
L 348.448351 84.517451 
L 359.223752 84.979543 
L 369.999153 85.264953 
L 380.774554 85.733295 
L 391.549955 86.308673 
L 402.325356 86.744239 
L 413.100757 87.085432 
" style="fill:none;stroke:#2ca02c;stroke-linecap:square;stroke-width:1.5;"/>
    <g clip-path="url(#p917e292589)">
     <use style="fill:#2ca02c;stroke:#2ca02c;" x="316.122147" xlink:href="#m4ae4443fea" y="66.515114"/>
     <use style="fill:#2ca02c;stroke:#2ca02c;" x="326.897548" xlink:href="#m4ae4443fea" y="81.340568"/>
     <use style="fill:#2ca02c;stroke:#2ca02c;" x="337.67295" xlink:href="#m4ae4443fea" y="84.407904"/>
     <use style="fill:#2ca02c;stroke:#2ca02c;" x="348.448351" xlink:href="#m4ae4443fea" y="84.517451"/>
     <use style="fill:#2ca02c;stroke:#2ca02c;" x="359.223752" xlink:href="#m4ae4443fea" y="84.979543"/>
     <use style="fill:#2ca02c;stroke:#2ca02c;" x="369.999153" xlink:href="#m4ae4443fea" y="85.264953"/>
     <use style="fill:#2ca02c;stroke:#2ca02c;" x="380.774554" xlink:href="#m4ae4443fea" y="85.733295"/>
     <use style="fill:#2ca02c;stroke:#2ca02c;" x="391.549955" xlink:href="#m4ae4443fea" y="86.308673"/>
     <use style="fill:#2ca02c;stroke:#2ca02c;" x="402.325356" xlink:href="#m4ae4443fea" y="86.744239"/>
     <use style="fill:#2ca02c;stroke:#2ca02c;" x="413.100757" xlink:href="#m4ae4443fea" y="87.085432"/>
    </g>
   </g>
   <g id="patch_13">
    <path d="M 311.273217 103.57875 
L 311.273217 22.03875 
" style="fill:none;stroke:#000000;stroke-linecap:square;stroke-linejoin:miter;stroke-width:0.8;"/>
   </g>
   <g id="patch_14">
    <path d="M 417.949687 103.57875 
L 417.949687 22.03875 
" style="fill:none;stroke:#000000;stroke-linecap:square;stroke-linejoin:miter;stroke-width:0.8;"/>
   </g>
   <g id="patch_15">
    <path d="M 311.273217 103.57875 
L 417.949687 103.57875 
" style="fill:none;stroke:#000000;stroke-linecap:square;stroke-linejoin:miter;stroke-width:0.8;"/>
   </g>
   <g id="patch_16">
    <path d="M 311.273217 22.03875 
L 417.949687 22.03875 
" style="fill:none;stroke:#000000;stroke-linecap:square;stroke-linejoin:miter;stroke-width:0.8;"/>
   </g>
   <g id="text_19">
    <!-- 5-ms pulse width -->
    <g transform="translate(320.21239 16.03875)scale(0.12 -0.12)">
     <defs>
      <path d="M 3130 4336 
Q 3130 4214 3053 4136 
Q 2976 4058 2794 4058 
L 1354 4058 
L 1142 2854 
Q 1501 2931 1805 2931 
Q 2163 2931 2436 2825 
Q 2710 2720 2896 2534 
Q 3082 2349 3176 2096 
Q 3270 1843 3270 1546 
Q 3270 1181 3142 886 
Q 3014 592 2792 382 
Q 2570 173 2269 61 
Q 1968 -51 1619 -51 
Q 1418 -51 1232 -11 
Q 1046 29 886 96 
Q 726 163 588 249 
Q 451 336 346 432 
L 518 675 
Q 576 758 672 758 
Q 733 758 814 708 
Q 896 659 1011 598 
Q 1126 538 1281 488 
Q 1437 438 1651 438 
Q 1891 438 2083 515 
Q 2275 592 2411 734 
Q 2547 877 2620 1075 
Q 2694 1274 2694 1520 
Q 2694 1734 2632 1907 
Q 2570 2080 2443 2201 
Q 2317 2323 2128 2390 
Q 1939 2458 1686 2458 
Q 1514 2458 1328 2429 
Q 1142 2400 944 2336 
L 586 2442 
L 957 4586 
L 3130 4586 
L 3130 4336 
z
" id="Lato-Regular-35" transform="scale(0.015625)"/>
     </defs>
     <use xlink:href="#Lato-Regular-35"/>
     <use x="58" xlink:href="#Lato-Regular-2d"/>
     <use x="92.699997" xlink:href="#Lato-Regular-6d"/>
     <use x="174.800003" xlink:href="#Lato-Regular-73"/>
     <use x="218.200012" xlink:href="#Lato-Regular-20"/>
     <use x="237.500015" xlink:href="#Lato-Regular-70"/>
     <use x="292.700027" xlink:href="#Lato-Regular-75"/>
     <use x="348.300034" xlink:href="#Lato-Regular-6c"/>
     <use x="373.90004" xlink:href="#Lato-Regular-73"/>
     <use x="417.300049" xlink:href="#Lato-Regular-65"/>
     <use x="469.700058" xlink:href="#Lato-Regular-20"/>
     <use x="489.000061" xlink:href="#Lato-Regular-77"/>
     <use x="565.600067" xlink:href="#Lato-Regular-69"/>
     <use x="591.200073" xlink:href="#Lato-Regular-64"/>
     <use x="647.100082" xlink:href="#Lato-Regular-74"/>
     <use x="684.400085" xlink:href="#Lato-Regular-68"/>
    </g>
   </g>
   <g id="legend_1">
    <g id="patch_17">
     <path d="M 334.749687 72.2825 
L 410.949687 72.2825 
Q 412.949687 72.2825 412.949687 70.2825 
L 412.949687 29.03875 
Q 412.949687 27.03875 410.949687 27.03875 
L 334.749687 27.03875 
Q 332.749687 27.03875 332.749687 29.03875 
L 332.749687 70.2825 
Q 332.749687 72.2825 334.749687 72.2825 
z
" style="fill:#ffffff;opacity:0.8;stroke:#cccccc;stroke-linejoin:miter;"/>
    </g>
    <g id="line2d_28">
     <path d="M 336.749687 34.904375 
L 356.749687 34.904375 
" style="fill:none;stroke:#1f77b4;stroke-linecap:square;stroke-width:1.5;"/>
    </g>
    <g id="line2d_29">
     <g>
      <use style="fill:#1f77b4;stroke:#1f77b4;" x="346.749687" xlink:href="#m27fafa0a93" y="34.904375"/>
     </g>
    </g>
    <g id="text_20">
     <!-- LIF -->
     <g transform="translate(364.749687 38.404375)scale(0.1 -0.1)">
      <defs>
       <path d="M 1293 0 
L 672 0 
L 672 4586 
L 1293 4586 
L 1293 0 
z
" id="Lato-Regular-49" transform="scale(0.015625)"/>
       <path d="M 3382 4586 
L 3382 4080 
L 1181 4080 
L 1181 2477 
L 3062 2477 
L 3062 1971 
L 1181 1971 
L 1181 0 
L 557 0 
L 557 4586 
L 3382 4586 
z
" id="Lato-Regular-46" transform="scale(0.015625)"/>
      </defs>
      <use xlink:href="#Lato-Regular-4c"/>
      <use x="51.400009" xlink:href="#Lato-Regular-49"/>
      <use x="82.100006" xlink:href="#Lato-Regular-46"/>
     </g>
    </g>
    <g id="line2d_30">
     <path d="M 336.749687 48.985625 
L 356.749687 48.985625 
" style="fill:none;stroke:#ff7f0e;stroke-linecap:square;stroke-width:1.5;"/>
    </g>
    <g id="line2d_31">
     <g>
      <use style="fill:#ff7f0e;stroke:#ff7f0e;" x="346.749687" xlink:href="#mc1180d2d85" y="48.985625"/>
     </g>
    </g>
    <g id="text_21">
     <!-- Izhikevich -->
     <g transform="translate(364.749687 52.485625)scale(0.1 -0.1)">
      <defs>
       <path d="M 58 3242 
L 525 3242 
Q 592 3242 637 3206 
Q 682 3171 701 3123 
L 1523 1037 
Q 1568 922 1593 806 
Q 1619 691 1642 579 
Q 1667 691 1696 806 
Q 1725 922 1770 1037 
L 2602 3123 
Q 2621 3174 2664 3208 
Q 2707 3242 2771 3242 
L 3216 3242 
L 1894 0 
L 1379 0 
L 58 3242 
z
" id="Lato-Regular-76" transform="scale(0.015625)"/>
      </defs>
      <use xlink:href="#Lato-Regular-49"/>
      <use x="30.699997" xlink:href="#Lato-Regular-7a"/>
      <use x="76.899994" xlink:href="#Lato-Regular-68"/>
      <use x="132.5" xlink:href="#Lato-Regular-69"/>
      <use x="158.100006" xlink:href="#Lato-Regular-6b"/>
      <use x="210.500015" xlink:href="#Lato-Regular-65"/>
      <use x="262.900024" xlink:href="#Lato-Regular-76"/>
      <use x="314.100037" xlink:href="#Lato-Regular-69"/>
      <use x="339.700043" xlink:href="#Lato-Regular-63"/>
      <use x="386.40004" xlink:href="#Lato-Regular-68"/>
     </g>
    </g>
    <g id="line2d_32">
     <path d="M 336.749687 63.066875 
L 356.749687 63.066875 
" style="fill:none;stroke:#2ca02c;stroke-linecap:square;stroke-width:1.5;"/>
    </g>
    <g id="line2d_33">
     <g>
      <use style="fill:#2ca02c;stroke:#2ca02c;" x="346.749687" xlink:href="#m4ae4443fea" y="63.066875"/>
     </g>
    </g>
    <g id="text_22">
     <!-- AdEx -->
     <g transform="translate(364.749687 66.566875)scale(0.1 -0.1)">
      <defs>
       <path d="M 4330 0 
L 3850 0 
Q 3766 0 3715 41 
Q 3664 83 3638 147 
L 3210 1254 
L 1152 1254 
L 723 147 
Q 701 90 646 45 
Q 592 0 512 0 
L 32 0 
L 1866 4586 
L 2496 4586 
L 4330 0 
z
M 1325 1702 
L 3037 1702 
L 2317 3568 
Q 2246 3741 2179 4000 
Q 2144 3869 2110 3758 
Q 2077 3648 2045 3565 
L 1325 1702 
z
" id="Lato-Regular-41" transform="scale(0.015625)"/>
       <path d="M 3382 4586 
L 3382 4080 
L 1181 4080 
L 1181 2557 
L 2963 2557 
L 2963 2070 
L 1181 2070 
L 1181 506 
L 3382 506 
L 3382 0 
L 557 0 
L 557 4586 
L 3382 4586 
z
" id="Lato-Regular-45" transform="scale(0.015625)"/>
       <path d="M 1226 1661 
L 134 3242 
L 682 3242 
Q 752 3242 784 3219 
Q 816 3197 842 3155 
L 1635 1939 
Q 1664 2029 1718 2118 
L 2416 3142 
Q 2448 3187 2480 3214 
Q 2512 3242 2560 3242 
L 3085 3242 
L 1994 1693 
L 3130 0 
L 2582 0 
Q 2512 0 2472 37 
Q 2432 74 2406 118 
L 1590 1389 
Q 1568 1296 1523 1222 
L 768 118 
Q 736 74 699 37 
Q 662 0 598 0 
L 90 0 
L 1226 1661 
z
" id="Lato-Regular-78" transform="scale(0.015625)"/>
      </defs>
      <use xlink:href="#Lato-Regular-41"/>
      <use x="68.000015" xlink:href="#Lato-Regular-64"/>
      <use x="123.900024" xlink:href="#Lato-Regular-45"/>
      <use x="182.000031" xlink:href="#Lato-Regular-78"/>
     </g>
    </g>
   </g>
  </g>
 </g>
 <defs>
  <clipPath id="p368e624044">
   <rect height="81.54" width="106.676471" x="55.249688" y="22.03875"/>
  </clipPath>
  <clipPath id="p9cd6355aa1">
   <rect height="81.54" width="106.676471" x="183.261452" y="22.03875"/>
  </clipPath>
  <clipPath id="p917e292589">
   <rect height="81.54" width="106.676471" x="311.273217" y="22.03875"/>
  </clipPath>
 </defs>
</svg>
