<?xml version="1.0" encoding="utf-8" standalone="no"?>
<!DOCTYPE svg PUBLIC "-//W3C//DTD SVG 1.1//EN"
  "http://www.w3.org/Graphics/SVG/1.1/DTD/svg11.dtd">
<svg xmlns:xlink="http://www.w3.org/1999/xlink" width="264.324641pt" height="533.009575pt" viewBox="0 0 264.324641 533.009575" xmlns="http://www.w3.org/2000/svg" version="1.1">
 <metadata>
  <rdf:RDF xmlns:dc="http://purl.org/dc/elements/1.1/" xmlns:cc="http://creativecommons.org/ns#" xmlns:rdf="http://www.w3.org/1999/02/22-rdf-syntax-ns#">
   <cc:Work>
    <dc:type rdf:resource="http://purl.org/dc/dcmitype/StillImage"/>
    <dc:date>2022-04-20T12:42:59.718991</dc:date>
    <dc:format>image/svg+xml</dc:format>
    <dc:creator>
     <cc:Agent>
      <dc:title>Matplotlib v3.5.1, https://matplotlib.org/</dc:title>
     </cc:Agent>
    </dc:creator>
   </cc:Work>
  </rdf:RDF>
 </metadata>
 <defs>
  <style type="text/css">*{stroke-linejoin: round; stroke-linecap: butt}</style>
 </defs>
 <g id="figure_1">
  <g id="patch_1">
   <path d="M 0 533.009575 
L 264.324641 533.009575 
L 264.324641 0 
L 0 0 
L 0 533.009575 
z
" style="fill: none"/>
  </g>
  <g id="axes_1">
   <g id="patch_2">
    <path d="M 58.264925 93.045325 
L 201.344141 93.045325 
L 201.344141 30.025325 
L 58.264925 30.025325 
z
" style="fill: #ffffff"/>
   </g>
   <g id="matplotlib.axis_1">
    <g id="xtick_1">
     <g id="line2d_1">
      <defs>
       <path id="m797a062855" d="M 0 0 
L 0 3.5 
" style="stroke: #000000; stroke-width: 0.8"/>
      </defs>
      <g>
       <use xlink:href="#m797a062855" x="62.116466" y="93.045325" style="stroke: #000000; stroke-width: 0.8"/>
      </g>
     </g>
    </g>
    <g id="xtick_2">
     <g id="line2d_2">
      <g>
       <use xlink:href="#m797a062855" x="95.26721" y="93.045325" style="stroke: #000000; stroke-width: 0.8"/>
      </g>
     </g>
    </g>
    <g id="xtick_3">
     <g id="line2d_3">
      <g>
       <use xlink:href="#m797a062855" x="128.417954" y="93.045325" style="stroke: #000000; stroke-width: 0.8"/>
      </g>
     </g>
    </g>
    <g id="xtick_4">
     <g id="line2d_4">
      <g>
       <use xlink:href="#m797a062855" x="161.568698" y="93.045325" style="stroke: #000000; stroke-width: 0.8"/>
      </g>
     </g>
    </g>
    <g id="xtick_5">
     <g id="line2d_5">
      <g>
       <use xlink:href="#m797a062855" x="194.719442" y="93.045325" style="stroke: #000000; stroke-width: 0.8"/>
      </g>
     </g>
    </g>
   </g>
   <g id="matplotlib.axis_2">
    <g id="ytick_1">
     <g id="line2d_6">
      <defs>
       <path id="m8766110a73" d="M 0 0 
L -3.5 0 
" style="stroke: #000000; stroke-width: 0.8"/>
      </defs>
      <g>
       <use xlink:href="#m8766110a73" x="58.264925" y="93.045325" style="stroke: #000000; stroke-width: 0.8"/>
      </g>
     </g>
     <g id="text_1">
      <!-- 0 -->
      <g transform="translate(44.591175 96.0847)scale(0.08 -0.08)">
       <defs>
        <path id="OpenSans-Regular-30" d="M 3334 2291 
Q 3334 1734 3250 1296 
Q 3166 859 2984 556 
Q 2803 253 2515 95 
Q 2228 -63 1825 -63 
Q 1316 -63 983 215 
Q 650 494 486 1020 
Q 322 1547 322 2291 
Q 322 3022 470 3548 
Q 619 4075 950 4358 
Q 1281 4641 1825 4641 
Q 2341 4641 2675 4361 
Q 3009 4081 3171 3554 
Q 3334 3028 3334 2291 
z
M 844 2291 
Q 844 1653 941 1228 
Q 1038 803 1255 592 
Q 1472 381 1825 381 
Q 2178 381 2395 590 
Q 2613 800 2711 1225 
Q 2809 1650 2809 2291 
Q 2809 2919 2712 3342 
Q 2616 3766 2400 3980 
Q 2184 4194 1825 4194 
Q 1466 4194 1250 3980 
Q 1034 3766 939 3342 
Q 844 2919 844 2291 
z
" transform="scale(0.015625)"/>
       </defs>
       <use xlink:href="#OpenSans-Regular-30"/>
      </g>
     </g>
    </g>
    <g id="ytick_2">
     <g id="line2d_7">
      <g>
       <use xlink:href="#m8766110a73" x="58.264925" y="61.535325" style="stroke: #000000; stroke-width: 0.8"/>
      </g>
     </g>
     <g id="text_2">
      <!-- 1000 -->
      <g transform="translate(30.869925 64.5747)scale(0.08 -0.08)">
       <defs>
        <path id="OpenSans-Regular-31" d="M 2247 0 
L 1741 0 
L 1741 3238 
Q 1741 3422 1742 3555 
Q 1744 3688 1748 3798 
Q 1753 3909 1763 4025 
Q 1666 3925 1581 3854 
Q 1497 3784 1372 3681 
L 850 3263 
L 578 3616 
L 1816 4569 
L 2247 4569 
L 2247 0 
z
" transform="scale(0.015625)"/>
       </defs>
       <use xlink:href="#OpenSans-Regular-31"/>
       <use xlink:href="#OpenSans-Regular-30" x="57.177734"/>
       <use xlink:href="#OpenSans-Regular-30" x="114.355469"/>
       <use xlink:href="#OpenSans-Regular-30" x="171.533203"/>
      </g>
     </g>
    </g>
    <g id="ytick_3">
     <g id="line2d_8">
      <g>
       <use xlink:href="#m8766110a73" x="58.264925" y="30.025325" style="stroke: #000000; stroke-width: 0.8"/>
      </g>
     </g>
     <g id="text_3">
      <!-- 2000 -->
      <g transform="translate(30.869925 33.0647)scale(0.08 -0.08)">
       <defs>
        <path id="OpenSans-Regular-32" d="M 3309 0 
L 316 0 
L 316 434 
L 1538 1675 
Q 1878 2019 2111 2287 
Q 2344 2556 2466 2817 
Q 2588 3078 2588 3391 
Q 2588 3778 2358 3983 
Q 2128 4188 1753 4188 
Q 1425 4188 1172 4075 
Q 919 3963 653 3756 
L 375 4106 
Q 556 4259 770 4378 
Q 984 4497 1229 4565 
Q 1475 4634 1753 4634 
Q 2175 4634 2481 4487 
Q 2788 4341 2955 4069 
Q 3122 3797 3122 3422 
Q 3122 3059 2978 2748 
Q 2834 2438 2575 2133 
Q 2316 1828 1969 1488 
L 975 497 
L 975 475 
L 3309 475 
L 3309 0 
z
" transform="scale(0.015625)"/>
       </defs>
       <use xlink:href="#OpenSans-Regular-32"/>
       <use xlink:href="#OpenSans-Regular-30" x="57.177734"/>
       <use xlink:href="#OpenSans-Regular-30" x="114.355469"/>
       <use xlink:href="#OpenSans-Regular-30" x="171.533203"/>
      </g>
     </g>
    </g>
   </g>
   <g id="line2d_9">
    <path d="M 70.593369 30.025325 
L 71.198862 40.545599 
L 72.530947 51.370809 
L 73.802482 60.518873 
L 75.195116 66.16018 
L 76.406102 70.429277 
L 78.222581 75.003309 
L 80.765652 79.577341 
L 84.277512 83.236567 
L 89.121456 86.43839 
L 95.176386 88.42047 
L 103.653289 89.945148 
L 112.493487 91.012422 
L 120.001601 91.317357 
L 130.173884 91.77476 
L 137.803096 91.927228 
L 151.36614 92.689567 
L 194.598343 92.842035 
" clip-path="url(#pe634e39981)" style="fill: none; stroke: #d9d9d9; stroke-width: 1.4; stroke-linecap: square"/>
   </g>
   <g id="line2d_10">
    <path d="M 80.88675 30.025325 
L 83.308723 44.052357 
L 88.273766 59.604067 
L 95.418583 71.649019 
L 101.957908 77.900196 
L 115.036558 83.998906 
L 128.236306 87.353196 
L 142.041548 88.725406 
L 158.268761 89.487744 
L 169.773129 90.097615 
L 182.004088 90.859954 
L 194.840541 90.707486 
" clip-path="url(#pe634e39981)" style="fill: none; stroke: #959595; stroke-width: 1.4; stroke-linecap: square"/>
   </g>
   <g id="line2d_11">
    <path d="M 99.293739 29.872857 
L 100.746922 35.361696 
L 103.289993 40.698067 
L 107.286247 47.711583 
L 110.434811 53.200422 
L 112.614586 57.469519 
L 116.247544 61.738615 
L 122.060277 66.465115 
L 126.17763 69.971873 
L 131.990363 73.783567 
L 139.861773 76.98539 
L 151.002845 80.034744 
L 167.714452 83.084099 
L 181.519694 84.913712 
L 189.148906 85.371115 
L 194.598343 85.523583 
" clip-path="url(#pe634e39981)" style="fill: none; stroke: #515151; stroke-width: 1.4; stroke-linecap: square"/>
   </g>
   <g id="line2d_12"/>
   <g id="line2d_13"/>
   <g id="line2d_14"/>
   <g id="patch_3">
    <path d="M 58.264925 93.045325 
L 58.264925 30.025325 
" style="fill: none; stroke: #000000; stroke-width: 0.8; stroke-linejoin: miter; stroke-linecap: square"/>
   </g>
   <g id="patch_4">
    <path d="M 58.264925 93.045325 
L 201.344141 93.045325 
" style="fill: none; stroke: #000000; stroke-width: 0.8; stroke-linejoin: miter; stroke-linecap: square"/>
   </g>
   <g id="text_4">
    <!-- Morphological HH neuron -->
    <g transform="translate(76.655971 13.886625)scale(0.088 -0.088)">
     <defs>
      <path id="OpenSans-Regular-4d" d="M 2634 0 
L 1100 4044 
L 1075 4044 
Q 1088 3916 1097 3731 
Q 1106 3547 1112 3330 
Q 1119 3113 1119 2888 
L 1119 0 
L 625 0 
L 625 4569 
L 1413 4569 
L 2859 769 
L 2881 769 
L 4350 4569 
L 5131 4569 
L 5131 0 
L 4606 0 
L 4606 2925 
Q 4606 3128 4612 3333 
Q 4619 3538 4628 3720 
Q 4638 3903 4647 4038 
L 4622 4038 
L 3069 0 
L 2634 0 
z
" transform="scale(0.015625)"/>
      <path id="OpenSans-Regular-6f" d="M 3500 1719 
Q 3500 1297 3390 965 
Q 3281 634 3075 406 
Q 2869 178 2576 57 
Q 2284 -63 1916 -63 
Q 1572 -63 1286 57 
Q 1000 178 792 406 
Q 584 634 470 965 
Q 356 1297 356 1719 
Q 356 2281 547 2676 
Q 738 3072 1092 3280 
Q 1447 3488 1938 3488 
Q 2406 3488 2757 3278 
Q 3109 3069 3304 2673 
Q 3500 2278 3500 1719 
z
M 894 1719 
Q 894 1306 1003 1003 
Q 1113 700 1341 534 
Q 1569 369 1928 369 
Q 2284 369 2514 534 
Q 2744 700 2853 1003 
Q 2963 1306 2963 1719 
Q 2963 2128 2853 2426 
Q 2744 2725 2516 2887 
Q 2288 3050 1925 3050 
Q 1391 3050 1142 2697 
Q 894 2344 894 1719 
z
" transform="scale(0.015625)"/>
      <path id="OpenSans-Regular-72" d="M 2103 3488 
Q 2206 3488 2318 3477 
Q 2431 3466 2519 3447 
L 2453 2966 
Q 2369 2988 2266 3000 
Q 2163 3013 2072 3013 
Q 1866 3013 1683 2930 
Q 1500 2847 1362 2692 
Q 1225 2538 1147 2320 
Q 1069 2103 1069 1838 
L 1069 0 
L 547 0 
L 547 3425 
L 978 3425 
L 1034 2794 
L 1056 2794 
Q 1163 2984 1313 3142 
Q 1463 3300 1661 3394 
Q 1859 3488 2103 3488 
z
" transform="scale(0.015625)"/>
      <path id="OpenSans-Regular-70" d="M 2156 3488 
Q 2797 3488 3178 3047 
Q 3559 2606 3559 1722 
Q 3559 1138 3384 741 
Q 3209 344 2892 140 
Q 2575 -63 2144 -63 
Q 1872 -63 1665 9 
Q 1459 81 1312 203 
Q 1166 325 1069 469 
L 1031 469 
Q 1041 347 1055 175 
Q 1069 3 1069 -125 
L 1069 -1531 
L 547 -1531 
L 547 3425 
L 975 3425 
L 1044 2919 
L 1069 2919 
Q 1169 3075 1312 3204 
Q 1456 3334 1664 3411 
Q 1872 3488 2156 3488 
z
M 2066 3050 
Q 1709 3050 1492 2912 
Q 1275 2775 1175 2501 
Q 1075 2228 1069 1816 
L 1069 1716 
Q 1069 1281 1164 981 
Q 1259 681 1479 525 
Q 1700 369 2072 369 
Q 2391 369 2603 541 
Q 2816 713 2920 1020 
Q 3025 1328 3025 1728 
Q 3025 2334 2789 2692 
Q 2553 3050 2066 3050 
z
" transform="scale(0.015625)"/>
      <path id="OpenSans-Regular-68" d="M 1066 4863 
L 1066 3409 
Q 1066 3284 1059 3157 
Q 1053 3031 1038 2925 
L 1072 2925 
Q 1178 3106 1342 3229 
Q 1506 3353 1715 3417 
Q 1925 3481 2159 3481 
Q 2572 3481 2848 3350 
Q 3125 3219 3264 2944 
Q 3403 2669 3403 2231 
L 3403 0 
L 2891 0 
L 2891 2197 
Q 2891 2625 2695 2837 
Q 2500 3050 2097 3050 
Q 1716 3050 1489 2904 
Q 1263 2759 1164 2478 
Q 1066 2197 1066 1791 
L 1066 0 
L 547 0 
L 547 4863 
L 1066 4863 
z
" transform="scale(0.015625)"/>
      <path id="OpenSans-Regular-6c" d="M 1069 0 
L 547 0 
L 547 4863 
L 1069 4863 
L 1069 0 
z
" transform="scale(0.015625)"/>
      <path id="OpenSans-Regular-67" d="M 1503 -1538 
Q 828 -1538 462 -1286 
Q 97 -1034 97 -581 
Q 97 -259 301 -31 
Q 506 197 869 272 
Q 734 334 639 459 
Q 544 584 544 747 
Q 544 934 648 1076 
Q 753 1219 969 1350 
Q 700 1459 533 1720 
Q 366 1981 366 2328 
Q 366 2697 519 2958 
Q 672 3219 962 3356 
Q 1253 3494 1666 3494 
Q 1756 3494 1848 3486 
Q 1941 3478 2025 3464 
Q 2109 3450 2172 3431 
L 3347 3431 
L 3347 3097 
L 2716 3019 
Q 2809 2897 2871 2725 
Q 2934 2553 2934 2344 
Q 2934 1831 2587 1529 
Q 2241 1228 1634 1228 
Q 1491 1228 1341 1253 
Q 1188 1169 1108 1066 
Q 1028 963 1028 828 
Q 1028 728 1089 668 
Q 1150 609 1265 582 
Q 1381 556 1544 556 
L 2147 556 
Q 2706 556 3004 322 
Q 3303 88 3303 -363 
Q 3303 -931 2840 -1234 
Q 2378 -1538 1503 -1538 
z
M 1519 -1131 
Q 1944 -1131 2223 -1045 
Q 2503 -959 2642 -798 
Q 2781 -638 2781 -416 
Q 2781 -209 2687 -104 
Q 2594 0 2412 36 
Q 2231 72 1969 72 
L 1375 72 
Q 1144 72 972 0 
Q 800 -72 708 -212 
Q 616 -353 616 -563 
Q 616 -841 850 -986 
Q 1084 -1131 1519 -1131 
z
M 1653 1606 
Q 2025 1606 2212 1793 
Q 2400 1981 2400 2341 
Q 2400 2725 2209 2917 
Q 2019 3109 1647 3109 
Q 1291 3109 1098 2911 
Q 906 2713 906 2331 
Q 906 1981 1100 1793 
Q 1294 1606 1653 1606 
z
" transform="scale(0.015625)"/>
      <path id="OpenSans-Regular-69" d="M 1066 3425 
L 1066 0 
L 547 0 
L 547 3425 
L 1066 3425 
z
M 813 4706 
Q 941 4706 1033 4623 
Q 1125 4541 1125 4366 
Q 1125 4194 1033 4109 
Q 941 4025 813 4025 
Q 678 4025 589 4109 
Q 500 4194 500 4366 
Q 500 4541 589 4623 
Q 678 4706 813 4706 
z
" transform="scale(0.015625)"/>
      <path id="OpenSans-Regular-63" d="M 1919 -63 
Q 1456 -63 1103 128 
Q 750 319 553 709 
Q 356 1100 356 1694 
Q 356 2316 564 2711 
Q 772 3106 1137 3297 
Q 1503 3488 1969 3488 
Q 2225 3488 2464 3436 
Q 2703 3384 2856 3306 
L 2700 2872 
Q 2544 2934 2339 2984 
Q 2134 3034 1956 3034 
Q 1600 3034 1364 2881 
Q 1128 2728 1011 2431 
Q 894 2134 894 1700 
Q 894 1284 1008 990 
Q 1122 697 1348 542 
Q 1575 388 1916 388 
Q 2188 388 2406 445 
Q 2625 503 2803 581 
L 2803 119 
Q 2631 31 2420 -16 
Q 2209 -63 1919 -63 
z
" transform="scale(0.015625)"/>
      <path id="OpenSans-Regular-61" d="M 1828 3481 
Q 2441 3481 2737 3206 
Q 3034 2931 3034 2328 
L 3034 0 
L 2656 0 
L 2556 506 
L 2531 506 
Q 2388 319 2231 192 
Q 2075 66 1870 1 
Q 1666 -63 1369 -63 
Q 1056 -63 814 46 
Q 572 156 433 378 
Q 294 600 294 941 
Q 294 1453 700 1728 
Q 1106 2003 1938 2028 
L 2528 2053 
L 2528 2263 
Q 2528 2706 2337 2884 
Q 2147 3063 1800 3063 
Q 1531 3063 1287 2984 
Q 1044 2906 825 2800 
L 666 3194 
Q 897 3313 1197 3397 
Q 1497 3481 1828 3481 
z
M 2522 1688 
L 2000 1666 
Q 1359 1641 1096 1456 
Q 834 1272 834 934 
Q 834 641 1012 500 
Q 1191 359 1484 359 
Q 1941 359 2231 612 
Q 2522 866 2522 1372 
L 2522 1688 
z
" transform="scale(0.015625)"/>
      <path id="OpenSans-Regular-20" transform="scale(0.015625)"/>
      <path id="OpenSans-Regular-48" d="M 4088 0 
L 3556 0 
L 3556 2153 
L 1156 2153 
L 1156 0 
L 625 0 
L 625 4569 
L 1156 4569 
L 1156 2622 
L 3556 2622 
L 3556 4569 
L 4088 4569 
L 4088 0 
z
" transform="scale(0.015625)"/>
      <path id="OpenSans-Regular-6e" d="M 2169 3488 
Q 2778 3488 3090 3189 
Q 3403 2891 3403 2231 
L 3403 0 
L 2891 0 
L 2891 2197 
Q 2891 2625 2695 2837 
Q 2500 3050 2097 3050 
Q 1528 3050 1297 2728 
Q 1066 2406 1066 1794 
L 1066 0 
L 547 0 
L 547 3425 
L 966 3425 
L 1044 2931 
L 1072 2931 
Q 1181 3113 1350 3236 
Q 1519 3359 1728 3423 
Q 1938 3488 2169 3488 
z
" transform="scale(0.015625)"/>
      <path id="OpenSans-Regular-65" d="M 1866 3488 
Q 2303 3488 2615 3294 
Q 2928 3100 3093 2751 
Q 3259 2403 3259 1938 
L 3259 1616 
L 894 1616 
Q 903 1013 1193 697 
Q 1484 381 2013 381 
Q 2338 381 2588 440 
Q 2838 500 3106 616 
L 3106 159 
Q 2847 44 2592 -9 
Q 2338 -63 1991 -63 
Q 1497 -63 1130 139 
Q 763 341 559 731 
Q 356 1122 356 1688 
Q 356 2241 542 2645 
Q 728 3050 1067 3269 
Q 1406 3488 1866 3488 
z
M 1859 3063 
Q 1444 3063 1197 2791 
Q 950 2519 903 2031 
L 2716 2031 
Q 2713 2338 2620 2570 
Q 2528 2803 2340 2933 
Q 2153 3063 1859 3063 
z
" transform="scale(0.015625)"/>
      <path id="OpenSans-Regular-75" d="M 3375 3425 
L 3375 0 
L 2950 0 
L 2875 481 
L 2847 481 
Q 2741 303 2572 181 
Q 2403 59 2192 -2 
Q 1981 -63 1744 -63 
Q 1338 -63 1063 68 
Q 788 200 648 475 
Q 509 750 509 1181 
L 509 3425 
L 1034 3425 
L 1034 1219 
Q 1034 791 1228 580 
Q 1422 369 1819 369 
Q 2200 369 2426 512 
Q 2653 656 2753 936 
Q 2853 1216 2853 1622 
L 2853 3425 
L 3375 3425 
z
" transform="scale(0.015625)"/>
     </defs>
     <use xlink:href="#OpenSans-Regular-4d"/>
     <use xlink:href="#OpenSans-Regular-6f" x="89.941406"/>
     <use xlink:href="#OpenSans-Regular-72" x="150.097656"/>
     <use xlink:href="#OpenSans-Regular-70" x="190.966797"/>
     <use xlink:href="#OpenSans-Regular-68" x="252.148438"/>
     <use xlink:href="#OpenSans-Regular-6f" x="313.476562"/>
     <use xlink:href="#OpenSans-Regular-6c" x="373.632812"/>
     <use xlink:href="#OpenSans-Regular-6f" x="398.876953"/>
     <use xlink:href="#OpenSans-Regular-67" x="459.033203"/>
     <use xlink:href="#OpenSans-Regular-69" x="513.330078"/>
     <use xlink:href="#OpenSans-Regular-63" x="538.574219"/>
     <use xlink:href="#OpenSans-Regular-61" x="586.474609"/>
     <use xlink:href="#OpenSans-Regular-6c" x="642.041016"/>
     <use xlink:href="#OpenSans-Regular-20" x="667.285156"/>
     <use xlink:href="#OpenSans-Regular-48" x="693.261719"/>
     <use xlink:href="#OpenSans-Regular-48" x="766.992188"/>
     <use xlink:href="#OpenSans-Regular-20" x="840.722656"/>
     <use xlink:href="#OpenSans-Regular-6e" x="866.699219"/>
     <use xlink:href="#OpenSans-Regular-65" x="928.027344"/>
     <use xlink:href="#OpenSans-Regular-75" x="984.179688"/>
     <use xlink:href="#OpenSans-Regular-72" x="1045.507812"/>
     <use xlink:href="#OpenSans-Regular-6f" x="1086.376953"/>
     <use xlink:href="#OpenSans-Regular-6e" x="1146.533203"/>
    </g>
    <!-- Markov opsin -->
    <g transform="translate(102.058408 24.025325)scale(0.088 -0.088)">
     <defs>
      <path id="OpenSans-Regular-6b" d="M 1063 4863 
L 1063 2338 
Q 1063 2213 1053 2033 
Q 1044 1853 1038 1716 
L 1059 1716 
Q 1125 1797 1251 1956 
Q 1378 2116 1466 2213 
L 2603 3425 
L 3213 3425 
L 1834 1963 
L 3313 0 
L 2688 0 
L 1478 1622 
L 1063 1241 
L 1063 0 
L 547 0 
L 547 4863 
L 1063 4863 
z
" transform="scale(0.015625)"/>
      <path id="OpenSans-Regular-76" d="M 1300 0 
L 0 3425 
L 556 3425 
L 1309 1353 
Q 1388 1141 1469 884 
Q 1550 628 1581 472 
L 1603 472 
Q 1641 628 1728 886 
Q 1816 1144 1888 1353 
L 2641 3425 
L 3197 3425 
L 1894 0 
L 1300 0 
z
" transform="scale(0.015625)"/>
      <path id="OpenSans-Regular-73" d="M 2763 938 
Q 2763 609 2598 386 
Q 2434 163 2129 50 
Q 1825 -63 1403 -63 
Q 1044 -63 781 -6 
Q 519 50 322 153 
L 322 631 
Q 531 528 822 443 
Q 1113 359 1416 359 
Q 1859 359 2059 503 
Q 2259 647 2259 894 
Q 2259 1034 2179 1142 
Q 2100 1250 1912 1351 
Q 1725 1453 1394 1575 
Q 1066 1700 827 1823 
Q 588 1947 458 2125 
Q 328 2303 328 2588 
Q 328 3022 679 3255 
Q 1031 3488 1603 3488 
Q 1913 3488 2183 3427 
Q 2453 3366 2688 3263 
L 2513 2847 
Q 2300 2938 2059 3000 
Q 1819 3063 1569 3063 
Q 1209 3063 1017 2944 
Q 825 2825 825 2619 
Q 825 2459 914 2356 
Q 1003 2253 1200 2162 
Q 1397 2072 1719 1950 
Q 2041 1831 2275 1704 
Q 2509 1578 2636 1398 
Q 2763 1219 2763 938 
z
" transform="scale(0.015625)"/>
     </defs>
     <use xlink:href="#OpenSans-Regular-4d"/>
     <use xlink:href="#OpenSans-Regular-61" x="89.941406"/>
     <use xlink:href="#OpenSans-Regular-72" x="145.507812"/>
     <use xlink:href="#OpenSans-Regular-6b" x="186.376953"/>
     <use xlink:href="#OpenSans-Regular-6f" x="238.916016"/>
     <use xlink:href="#OpenSans-Regular-76" x="299.072266"/>
     <use xlink:href="#OpenSans-Regular-20" x="349.023438"/>
     <use xlink:href="#OpenSans-Regular-6f" x="375"/>
     <use xlink:href="#OpenSans-Regular-70" x="435.15625"/>
     <use xlink:href="#OpenSans-Regular-73" x="496.337891"/>
     <use xlink:href="#OpenSans-Regular-69" x="543.994141"/>
     <use xlink:href="#OpenSans-Regular-6e" x="569.238281"/>
    </g>
   </g>
  </g>
  <g id="axes_2">
   <g id="patch_5">
    <path d="M 58.264925 193.765325 
L 201.344141 193.765325 
L 201.344141 130.745325 
L 58.264925 130.745325 
z
" style="fill: #ffffff"/>
   </g>
   <g id="matplotlib.axis_3">
    <g id="xtick_6">
     <g id="line2d_15">
      <g>
       <use xlink:href="#m797a062855" x="62.116466" y="193.765325" style="stroke: #000000; stroke-width: 0.8"/>
      </g>
     </g>
    </g>
    <g id="xtick_7">
     <g id="line2d_16">
      <g>
       <use xlink:href="#m797a062855" x="95.26721" y="193.765325" style="stroke: #000000; stroke-width: 0.8"/>
      </g>
     </g>
    </g>
    <g id="xtick_8">
     <g id="line2d_17">
      <g>
       <use xlink:href="#m797a062855" x="128.417954" y="193.765325" style="stroke: #000000; stroke-width: 0.8"/>
      </g>
     </g>
    </g>
    <g id="xtick_9">
     <g id="line2d_18">
      <g>
       <use xlink:href="#m797a062855" x="161.568698" y="193.765325" style="stroke: #000000; stroke-width: 0.8"/>
      </g>
     </g>
    </g>
    <g id="xtick_10">
     <g id="line2d_19">
      <g>
       <use xlink:href="#m797a062855" x="194.719442" y="193.765325" style="stroke: #000000; stroke-width: 0.8"/>
      </g>
     </g>
    </g>
   </g>
   <g id="matplotlib.axis_4">
    <g id="ytick_4">
     <g id="line2d_20">
      <g>
       <use xlink:href="#m8766110a73" x="58.264925" y="193.765325" style="stroke: #000000; stroke-width: 0.8"/>
      </g>
     </g>
     <g id="text_5">
      <!-- 0 -->
      <g transform="translate(44.591175 196.8047)scale(0.08 -0.08)">
       <use xlink:href="#OpenSans-Regular-30"/>
      </g>
     </g>
    </g>
    <g id="ytick_5">
     <g id="line2d_21">
      <g>
       <use xlink:href="#m8766110a73" x="58.264925" y="162.255325" style="stroke: #000000; stroke-width: 0.8"/>
      </g>
     </g>
     <g id="text_6">
      <!-- 1000 -->
      <g transform="translate(30.869925 165.2947)scale(0.08 -0.08)">
       <use xlink:href="#OpenSans-Regular-31"/>
       <use xlink:href="#OpenSans-Regular-30" x="57.177734"/>
       <use xlink:href="#OpenSans-Regular-30" x="114.355469"/>
       <use xlink:href="#OpenSans-Regular-30" x="171.533203"/>
      </g>
     </g>
    </g>
    <g id="ytick_6">
     <g id="line2d_22">
      <g>
       <use xlink:href="#m8766110a73" x="58.264925" y="130.745325" style="stroke: #000000; stroke-width: 0.8"/>
      </g>
     </g>
     <g id="text_7">
      <!-- 2000 -->
      <g transform="translate(30.869925 133.7847)scale(0.08 -0.08)">
       <use xlink:href="#OpenSans-Regular-32"/>
       <use xlink:href="#OpenSans-Regular-30" x="57.177734"/>
       <use xlink:href="#OpenSans-Regular-30" x="114.355469"/>
       <use xlink:href="#OpenSans-Regular-30" x="171.533203"/>
      </g>
     </g>
    </g>
   </g>
   <g id="line2d_23">
    <path d="M 64.768526 177.47567 
L 67.420585 185.591649 
L 70.072645 188.284154 
L 72.724704 189.630407 
L 75.376764 190.438158 
L 78.028823 190.976659 
L 80.680883 191.361303 
L 83.332942 191.669018 
L 85.985002 191.899804 
L 88.637061 192.053661 
L 91.289121 192.207519 
L 93.94118 192.322912 
L 96.59324 192.438305 
L 99.245299 192.515233 
L 101.897359 192.592162 
L 104.549419 192.669091 
L 107.201478 192.74602 
L 109.853538 192.784484 
L 112.505597 192.822948 
L 115.157657 192.861413 
L 117.809716 192.899877 
L 120.461776 192.938341 
L 123.113835 192.976806 
L 125.765895 193.01527 
L 128.417954 193.01527 
L 131.070014 193.053734 
L 133.722073 193.092199 
L 136.374133 193.092199 
L 139.026192 193.130663 
L 141.678252 193.130663 
L 144.330311 193.169127 
L 146.982371 193.169127 
L 149.63443 193.207592 
L 152.28649 193.207592 
L 154.938549 193.207592 
L 157.590609 193.246056 
L 160.242668 193.246056 
L 162.894728 193.246056 
L 165.546787 193.246056 
L 168.198847 193.284521 
L 170.850906 193.284521 
L 173.502966 193.284521 
L 176.155025 193.284521 
L 178.807085 193.322985 
L 181.459144 193.322985 
L 184.111204 193.322985 
L 186.763264 193.322985 
L 189.415323 193.322985 
L 192.067383 193.361449 
L 194.719442 193.361449 
" clip-path="url(#p1eb0f26f46)" style="fill: none; stroke: #d9d9d9; stroke-width: 1.4; stroke-linecap: square"/>
   </g>
   <g id="line2d_24">
    <path d="M 64.768526 99.777672 
L 67.420585 146.550329 
L 70.072645 162.128393 
L 72.724704 169.936657 
L 75.376764 174.590844 
L 78.028823 177.706457 
L 80.680883 179.937389 
L 83.332942 181.591356 
L 85.985002 182.899145 
L 88.637061 183.937682 
L 91.289121 184.783898 
L 93.94118 185.514721 
L 96.59324 186.091686 
L 99.245299 186.591723 
L 101.897359 187.053295 
L 104.549419 187.437939 
L 107.201478 187.784118 
L 109.853538 188.091833 
L 112.505597 188.361083 
L 115.157657 188.591869 
L 117.809716 188.822655 
L 120.461776 189.014977 
L 123.113835 189.207299 
L 125.765895 189.399621 
L 128.417954 189.553478 
L 131.070014 189.668871 
L 133.722073 189.822729 
L 136.374133 189.938122 
L 139.026192 190.053515 
L 141.678252 190.168908 
L 144.330311 190.245836 
L 146.982371 190.36123 
L 149.63443 190.438158 
L 152.28649 190.515087 
L 154.938549 190.592016 
L 157.590609 190.668944 
L 160.242668 190.745873 
L 162.894728 190.822802 
L 165.546787 190.861266 
L 168.198847 190.938195 
L 170.850906 190.976659 
L 173.502966 191.053588 
L 176.155025 191.092052 
L 178.807085 191.130517 
L 181.459144 191.168981 
L 184.111204 191.24591 
L 186.763264 191.284374 
L 189.415323 191.322838 
L 192.067383 191.361303 
L 194.719442 191.399767 
" clip-path="url(#p1eb0f26f46)" style="fill: none; stroke: #959595; stroke-width: 1.4; stroke-linecap: square"/>
   </g>
   <g id="line2d_25">
    <path d="M 67.152995 -1 
L 67.420585 12.50205 
L 70.072645 72.314123 
L 72.724704 102.239391 
L 75.376764 120.163781 
L 78.028823 132.126195 
L 80.680883 140.665282 
L 83.332942 147.08883 
L 85.985002 152.050731 
L 88.637061 156.051024 
L 91.289121 159.320495 
L 93.94118 162.013 
L 96.59324 164.320861 
L 99.245299 166.282543 
L 101.897359 168.013439 
L 104.549419 169.475085 
L 107.201478 170.821337 
L 109.853538 171.975268 
L 112.505597 173.013805 
L 115.157657 173.975414 
L 117.809716 174.82163 
L 120.461776 175.590917 
L 123.113835 176.283275 
L 125.765895 176.937169 
L 128.417954 177.552599 
L 131.070014 178.0911 
L 133.722073 178.591137 
L 136.374133 179.052709 
L 139.026192 179.514281 
L 141.678252 179.937389 
L 144.330311 180.283568 
L 146.982371 180.668212 
L 149.63443 181.014391 
L 152.28649 181.322106 
L 154.938549 181.629821 
L 157.590609 181.899071 
L 160.242668 182.168322 
L 162.894728 182.399108 
L 165.546787 182.668358 
L 168.198847 182.86068 
L 170.850906 183.091466 
L 173.502966 183.283788 
L 176.155025 183.514574 
L 178.807085 183.668432 
L 181.459144 183.860753 
L 184.111204 184.014611 
L 186.763264 184.206933 
L 189.415323 184.36079 
L 192.067383 184.514648 
L 194.719442 184.630041 
" clip-path="url(#p1eb0f26f46)" style="fill: none; stroke: #515151; stroke-width: 1.4; stroke-linecap: square"/>
   </g>
   <g id="patch_6">
    <path d="M 58.264925 193.765325 
L 58.264925 130.745325 
" style="fill: none; stroke: #000000; stroke-width: 0.8; stroke-linejoin: miter; stroke-linecap: square"/>
   </g>
   <g id="patch_7">
    <path d="M 58.264925 193.765325 
L 201.344141 193.765325 
" style="fill: none; stroke: #000000; stroke-width: 0.8; stroke-linejoin: miter; stroke-linecap: square"/>
   </g>
   <g id="text_8">
    <!-- LIF neuron -->
    <g transform="translate(107.852658 114.61625)scale(0.088 -0.088)">
     <defs>
      <path id="OpenSans-Regular-4c" d="M 625 0 
L 625 4569 
L 1156 4569 
L 1156 475 
L 3184 475 
L 3184 0 
L 625 0 
z
" transform="scale(0.015625)"/>
      <path id="OpenSans-Regular-49" d="M 625 0 
L 625 4569 
L 1156 4569 
L 1156 0 
L 625 0 
z
" transform="scale(0.015625)"/>
      <path id="OpenSans-Regular-46" d="M 1156 0 
L 625 0 
L 625 4569 
L 3169 4569 
L 3169 4100 
L 1156 4100 
L 1156 2425 
L 3047 2425 
L 3047 1959 
L 1156 1959 
L 1156 0 
z
" transform="scale(0.015625)"/>
     </defs>
     <use xlink:href="#OpenSans-Regular-4c"/>
     <use xlink:href="#OpenSans-Regular-49" x="52.197266"/>
     <use xlink:href="#OpenSans-Regular-46" x="80.126953"/>
     <use xlink:href="#OpenSans-Regular-20" x="131.738281"/>
     <use xlink:href="#OpenSans-Regular-6e" x="157.714844"/>
     <use xlink:href="#OpenSans-Regular-65" x="219.042969"/>
     <use xlink:href="#OpenSans-Regular-75" x="275.195312"/>
     <use xlink:href="#OpenSans-Regular-72" x="336.523438"/>
     <use xlink:href="#OpenSans-Regular-6f" x="377.392578"/>
     <use xlink:href="#OpenSans-Regular-6e" x="437.548828"/>
    </g>
    <!-- Simple opsin -->
    <g transform="translate(103.544783 124.745325)scale(0.088 -0.088)">
     <defs>
      <path id="OpenSans-Regular-53" d="M 3203 1216 
Q 3203 809 3001 523 
Q 2800 238 2437 87 
Q 2075 -63 1584 -63 
Q 1325 -63 1094 -38 
Q 863 -13 669 34 
Q 475 81 328 150 
L 328 659 
Q 563 563 900 480 
Q 1238 397 1606 397 
Q 1950 397 2187 489 
Q 2425 581 2548 754 
Q 2672 928 2672 1172 
Q 2672 1406 2569 1564 
Q 2466 1722 2227 1851 
Q 1988 1981 1575 2128 
Q 1284 2231 1062 2354 
Q 841 2478 691 2634 
Q 541 2791 464 2997 
Q 388 3203 388 3469 
Q 388 3834 573 4095 
Q 759 4356 1089 4495 
Q 1419 4634 1847 4634 
Q 2213 4634 2523 4565 
Q 2834 4497 3094 4381 
L 2928 3925 
Q 2681 4028 2404 4097 
Q 2128 4166 1834 4166 
Q 1541 4166 1339 4080 
Q 1138 3994 1031 3837 
Q 925 3681 925 3466 
Q 925 3225 1026 3065 
Q 1128 2906 1351 2782 
Q 1575 2659 1944 2525 
Q 2347 2378 2628 2214 
Q 2909 2050 3056 1814 
Q 3203 1578 3203 1216 
z
" transform="scale(0.015625)"/>
      <path id="OpenSans-Regular-6d" d="M 4266 3488 
Q 4831 3488 5118 3192 
Q 5406 2897 5406 2244 
L 5406 0 
L 4894 0 
L 4894 2219 
Q 4894 2634 4714 2842 
Q 4534 3050 4181 3050 
Q 3684 3050 3459 2762 
Q 3234 2475 3234 1916 
L 3234 0 
L 2719 0 
L 2719 2219 
Q 2719 2497 2639 2681 
Q 2559 2866 2401 2958 
Q 2244 3050 2003 3050 
Q 1663 3050 1456 2909 
Q 1250 2769 1158 2492 
Q 1066 2216 1066 1813 
L 1066 0 
L 547 0 
L 547 3425 
L 966 3425 
L 1044 2941 
L 1072 2941 
Q 1175 3119 1331 3241 
Q 1488 3363 1681 3425 
Q 1875 3488 2094 3488 
Q 2484 3488 2748 3342 
Q 3013 3197 3131 2900 
L 3159 2900 
Q 3328 3197 3622 3342 
Q 3916 3488 4266 3488 
z
" transform="scale(0.015625)"/>
     </defs>
     <use xlink:href="#OpenSans-Regular-53"/>
     <use xlink:href="#OpenSans-Regular-69" x="54.833984"/>
     <use xlink:href="#OpenSans-Regular-6d" x="80.078125"/>
     <use xlink:href="#OpenSans-Regular-70" x="172.65625"/>
     <use xlink:href="#OpenSans-Regular-6c" x="233.837891"/>
     <use xlink:href="#OpenSans-Regular-65" x="259.082031"/>
     <use xlink:href="#OpenSans-Regular-20" x="315.234375"/>
     <use xlink:href="#OpenSans-Regular-6f" x="341.210938"/>
     <use xlink:href="#OpenSans-Regular-70" x="401.367188"/>
     <use xlink:href="#OpenSans-Regular-73" x="462.548828"/>
     <use xlink:href="#OpenSans-Regular-69" x="510.205078"/>
     <use xlink:href="#OpenSans-Regular-6e" x="535.449219"/>
    </g>
   </g>
  </g>
  <g id="axes_3">
   <g id="patch_8">
    <path d="M 58.264925 294.485325 
L 201.344141 294.485325 
L 201.344141 231.465325 
L 58.264925 231.465325 
z
" style="fill: #ffffff"/>
   </g>
   <g id="matplotlib.axis_5">
    <g id="xtick_11">
     <g id="line2d_26">
      <g>
       <use xlink:href="#m797a062855" x="62.116466" y="294.485325" style="stroke: #000000; stroke-width: 0.8"/>
      </g>
     </g>
    </g>
    <g id="xtick_12">
     <g id="line2d_27">
      <g>
       <use xlink:href="#m797a062855" x="95.26721" y="294.485325" style="stroke: #000000; stroke-width: 0.8"/>
      </g>
     </g>
    </g>
    <g id="xtick_13">
     <g id="line2d_28">
      <g>
       <use xlink:href="#m797a062855" x="128.417954" y="294.485325" style="stroke: #000000; stroke-width: 0.8"/>
      </g>
     </g>
    </g>
    <g id="xtick_14">
     <g id="line2d_29">
      <g>
       <use xlink:href="#m797a062855" x="161.568698" y="294.485325" style="stroke: #000000; stroke-width: 0.8"/>
      </g>
     </g>
    </g>
    <g id="xtick_15">
     <g id="line2d_30">
      <g>
       <use xlink:href="#m797a062855" x="194.719442" y="294.485325" style="stroke: #000000; stroke-width: 0.8"/>
      </g>
     </g>
    </g>
   </g>
   <g id="matplotlib.axis_6">
    <g id="ytick_7">
     <g id="line2d_31">
      <g>
       <use xlink:href="#m8766110a73" x="58.264925" y="294.485325" style="stroke: #000000; stroke-width: 0.8"/>
      </g>
     </g>
     <g id="text_9">
      <!-- 0 -->
      <g transform="translate(44.591175 297.5247)scale(0.08 -0.08)">
       <use xlink:href="#OpenSans-Regular-30"/>
      </g>
     </g>
    </g>
    <g id="ytick_8">
     <g id="line2d_32">
      <g>
       <use xlink:href="#m8766110a73" x="58.264925" y="262.975325" style="stroke: #000000; stroke-width: 0.8"/>
      </g>
     </g>
     <g id="text_10">
      <!-- 1000 -->
      <g transform="translate(30.869925 266.0147)scale(0.08 -0.08)">
       <use xlink:href="#OpenSans-Regular-31"/>
       <use xlink:href="#OpenSans-Regular-30" x="57.177734"/>
       <use xlink:href="#OpenSans-Regular-30" x="114.355469"/>
       <use xlink:href="#OpenSans-Regular-30" x="171.533203"/>
      </g>
     </g>
    </g>
    <g id="ytick_9">
     <g id="line2d_33">
      <g>
       <use xlink:href="#m8766110a73" x="58.264925" y="231.465325" style="stroke: #000000; stroke-width: 0.8"/>
      </g>
     </g>
     <g id="text_11">
      <!-- 2000 -->
      <g transform="translate(30.869925 234.5047)scale(0.08 -0.08)">
       <use xlink:href="#OpenSans-Regular-32"/>
       <use xlink:href="#OpenSans-Regular-30" x="57.177734"/>
       <use xlink:href="#OpenSans-Regular-30" x="114.355469"/>
       <use xlink:href="#OpenSans-Regular-30" x="171.533203"/>
      </g>
     </g>
    </g>
    <g id="text_12">
     <!-- Threshold irradiance -->
     <g transform="translate(13.886625 305.433262)rotate(-90)scale(0.088 -0.088)">
      <defs>
       <path id="OpenSans-Regular-54" d="M 2028 0 
L 1494 0 
L 1494 4100 
L 56 4100 
L 56 4569 
L 3459 4569 
L 3459 4100 
L 2028 4100 
L 2028 0 
z
" transform="scale(0.015625)"/>
       <path id="OpenSans-Regular-64" d="M 1766 -63 
Q 1116 -63 736 381 
Q 356 825 356 1700 
Q 356 2584 743 3036 
Q 1131 3488 1775 3488 
Q 2047 3488 2250 3416 
Q 2453 3344 2600 3223 
Q 2747 3103 2847 2950 
L 2884 2950 
Q 2872 3047 2859 3215 
Q 2847 3384 2847 3491 
L 2847 4863 
L 3366 4863 
L 3366 0 
L 2947 0 
L 2869 488 
L 2847 488 
Q 2750 334 2601 209 
Q 2453 84 2248 10 
Q 2044 -63 1766 -63 
z
M 1847 369 
Q 2397 369 2625 681 
Q 2853 994 2853 1609 
L 2853 1703 
Q 2853 2356 2636 2706 
Q 2419 3056 1847 3056 
Q 1369 3056 1131 2689 
Q 894 2322 894 1688 
Q 894 1056 1130 712 
Q 1366 369 1847 369 
z
" transform="scale(0.015625)"/>
      </defs>
      <use xlink:href="#OpenSans-Regular-54"/>
      <use xlink:href="#OpenSans-Regular-68" x="55.078125"/>
      <use xlink:href="#OpenSans-Regular-72" x="116.40625"/>
      <use xlink:href="#OpenSans-Regular-65" x="157.275391"/>
      <use xlink:href="#OpenSans-Regular-73" x="213.427734"/>
      <use xlink:href="#OpenSans-Regular-68" x="261.083984"/>
      <use xlink:href="#OpenSans-Regular-6f" x="322.412109"/>
      <use xlink:href="#OpenSans-Regular-6c" x="382.568359"/>
      <use xlink:href="#OpenSans-Regular-64" x="407.8125"/>
      <use xlink:href="#OpenSans-Regular-20" x="468.994141"/>
      <use xlink:href="#OpenSans-Regular-69" x="494.970703"/>
      <use xlink:href="#OpenSans-Regular-72" x="520.214844"/>
      <use xlink:href="#OpenSans-Regular-72" x="561.083984"/>
      <use xlink:href="#OpenSans-Regular-61" x="601.953125"/>
      <use xlink:href="#OpenSans-Regular-64" x="657.519531"/>
      <use xlink:href="#OpenSans-Regular-69" x="718.701172"/>
      <use xlink:href="#OpenSans-Regular-61" x="743.945312"/>
      <use xlink:href="#OpenSans-Regular-6e" x="799.511719"/>
      <use xlink:href="#OpenSans-Regular-63" x="860.839844"/>
      <use xlink:href="#OpenSans-Regular-65" x="908.740234"/>
     </g>
     <!-- (mW/mm$^2$) -->
     <g transform="translate(24.7648 285.591325)rotate(-90)scale(0.088 -0.088)">
      <defs>
       <path id="OpenSans-Regular-28" d="M 256 1753 
Q 256 2281 357 2781 
Q 459 3281 668 3734 
Q 878 4188 1197 4569 
L 1694 4569 
Q 1241 3975 1012 3250 
Q 784 2525 784 1759 
Q 784 1259 886 773 
Q 988 288 1189 -162 
Q 1391 -613 1688 -1013 
L 1197 -1013 
Q 878 -638 668 -195 
Q 459 247 357 740 
Q 256 1234 256 1753 
z
" transform="scale(0.015625)"/>
       <path id="OpenSans-Regular-57" d="M 5816 4569 
L 4594 0 
L 4059 0 
L 3153 3075 
Q 3113 3206 3077 3339 
Q 3041 3472 3009 3592 
Q 2978 3713 2958 3805 
Q 2938 3897 2928 3944 
Q 2922 3897 2905 3806 
Q 2888 3716 2861 3597 
Q 2834 3478 2798 3343 
Q 2763 3209 2722 3072 
L 1841 0 
L 1306 0 
L 94 4569 
L 647 4569 
L 1381 1703 
Q 1419 1559 1451 1420 
Q 1484 1281 1511 1150 
Q 1538 1019 1559 894 
Q 1581 769 1600 650 
Q 1616 772 1641 905 
Q 1666 1038 1695 1175 
Q 1725 1313 1761 1453 
Q 1797 1594 1838 1734 
L 2659 4569 
L 3206 4569 
L 4063 1713 
Q 4106 1566 4143 1422 
Q 4181 1278 4211 1142 
Q 4241 1006 4264 882 
Q 4288 759 4306 650 
Q 4328 803 4359 972 
Q 4391 1141 4433 1325 
Q 4475 1509 4525 1706 
L 5259 4569 
L 5816 4569 
z
" transform="scale(0.015625)"/>
       <path id="OpenSans-Regular-2f" d="M 2278 4569 
L 578 0 
L 66 0 
L 1769 4569 
L 2278 4569 
z
" transform="scale(0.015625)"/>
       <path id="DejaVuSans-32" d="M 1228 531 
L 3431 531 
L 3431 0 
L 469 0 
L 469 531 
Q 828 903 1448 1529 
Q 2069 2156 2228 2338 
Q 2531 2678 2651 2914 
Q 2772 3150 2772 3378 
Q 2772 3750 2511 3984 
Q 2250 4219 1831 4219 
Q 1534 4219 1204 4116 
Q 875 4013 500 3803 
L 500 4441 
Q 881 4594 1212 4672 
Q 1544 4750 1819 4750 
Q 2544 4750 2975 4387 
Q 3406 4025 3406 3419 
Q 3406 3131 3298 2873 
Q 3191 2616 2906 2266 
Q 2828 2175 2409 1742 
Q 1991 1309 1228 531 
z
" transform="scale(0.015625)"/>
       <path id="OpenSans-Regular-29" d="M 1631 1759 
Q 1631 1238 1529 742 
Q 1428 247 1220 -197 
Q 1013 -641 691 -1013 
L 200 -1013 
Q 500 -616 701 -162 
Q 903 291 1004 777 
Q 1106 1263 1106 1763 
Q 1106 2272 1003 2765 
Q 900 3259 698 3715 
Q 497 4172 194 4569 
L 691 4569 
Q 1013 4184 1220 3732 
Q 1428 3281 1529 2782 
Q 1631 2284 1631 1759 
z
" transform="scale(0.015625)"/>
      </defs>
      <use xlink:href="#OpenSans-Regular-28" transform="translate(0 0.765625)"/>
      <use xlink:href="#OpenSans-Regular-6d" transform="translate(29.492188 0.765625)"/>
      <use xlink:href="#OpenSans-Regular-57" transform="translate(122.070312 0.765625)"/>
      <use xlink:href="#OpenSans-Regular-2f" transform="translate(214.404297 0.765625)"/>
      <use xlink:href="#OpenSans-Regular-6d" transform="translate(251.074219 0.765625)"/>
      <use xlink:href="#OpenSans-Regular-6d" transform="translate(343.652344 0.765625)"/>
      <use xlink:href="#DejaVuSans-32" transform="translate(437.1875 39.046875)scale(0.7)"/>
      <use xlink:href="#OpenSans-Regular-29" transform="translate(484.458008 0.765625)"/>
     </g>
    </g>
   </g>
   <g id="line2d_34">
    <path d="M 64.768526 291.08123 
L 67.420585 293.042912 
L 70.072645 293.581413 
L 72.724704 293.850663 
L 75.376764 294.004521 
L 78.028823 294.119914 
L 80.680883 294.158378 
L 83.332942 294.196842 
L 85.985002 294.235307 
L 88.637061 294.273771 
L 91.289121 294.312235 
L 93.94118 294.312235 
L 96.59324 294.3507 
L 99.245299 294.3507 
L 101.897359 294.3507 
L 104.549419 294.3507 
L 107.201478 294.389164 
L 109.853538 294.389164 
L 112.505597 294.389164 
L 115.157657 294.389164 
L 117.809716 294.389164 
L 120.461776 294.389164 
L 123.113835 294.427628 
L 125.765895 294.427628 
L 128.417954 294.427628 
L 131.070014 294.427628 
L 133.722073 294.427628 
L 136.374133 294.427628 
L 139.026192 294.427628 
L 141.678252 294.427628 
L 144.330311 294.427628 
L 146.982371 294.427628 
L 149.63443 294.427628 
L 152.28649 294.427628 
L 154.938549 294.427628 
L 157.590609 294.427628 
L 160.242668 294.427628 
L 162.894728 294.427628 
L 165.546787 294.427628 
L 168.198847 294.427628 
L 170.850906 294.427628 
L 173.502966 294.466093 
L 176.155025 294.466093 
L 178.807085 294.466093 
L 181.459144 294.466093 
L 184.111204 294.466093 
L 186.763264 294.466093 
L 189.415323 294.466093 
L 192.067383 294.466093 
L 194.719442 294.466093 
" clip-path="url(#pef52e061f7)" style="fill: none; stroke: #d9d9d9; stroke-width: 1.4; stroke-linecap: square"/>
   </g>
   <g id="line2d_35">
    <path d="M 64.768526 274.887736 
L 67.420585 286.119328 
L 70.072645 289.350334 
L 72.724704 290.888908 
L 75.376764 291.735124 
L 78.028823 292.273625 
L 80.680883 292.658268 
L 83.332942 292.927519 
L 85.985002 293.11984 
L 88.637061 293.273698 
L 91.289121 293.427555 
L 93.94118 293.504484 
L 96.59324 293.619877 
L 99.245299 293.696806 
L 101.897359 293.73527 
L 104.549419 293.812199 
L 107.201478 293.850663 
L 109.853538 293.889127 
L 112.505597 293.927592 
L 115.157657 293.966056 
L 117.809716 294.004521 
L 120.461776 294.004521 
L 123.113835 294.042985 
L 125.765895 294.081449 
L 128.417954 294.081449 
L 131.070014 294.119914 
L 133.722073 294.119914 
L 136.374133 294.119914 
L 139.026192 294.158378 
L 141.678252 294.158378 
L 144.330311 294.158378 
L 146.982371 294.196842 
L 149.63443 294.196842 
L 152.28649 294.196842 
L 154.938549 294.196842 
L 157.590609 294.235307 
L 160.242668 294.235307 
L 162.894728 294.235307 
L 165.546787 294.235307 
L 168.198847 294.235307 
L 170.850906 294.273771 
L 173.502966 294.273771 
L 176.155025 294.273771 
L 178.807085 294.273771 
L 181.459144 294.273771 
L 184.111204 294.273771 
L 186.763264 294.273771 
L 189.415323 294.312235 
L 192.067383 294.312235 
L 194.719442 294.312235 
" clip-path="url(#pef52e061f7)" style="fill: none; stroke: #959595; stroke-width: 1.4; stroke-linecap: square"/>
   </g>
   <g id="line2d_36">
    <path d="M 64.768526 219.345207 
L 67.420585 262.348356 
L 70.072645 274.849272 
L 72.724704 280.618925 
L 75.376764 283.888395 
L 78.028823 285.96547 
L 80.680883 287.427116 
L 83.332942 288.465653 
L 85.985002 289.273405 
L 88.637061 289.888835 
L 91.289121 290.388871 
L 93.94118 290.773515 
L 96.59324 291.119694 
L 99.245299 291.427409 
L 101.897359 291.658195 
L 104.549419 291.850517 
L 107.201478 292.042838 
L 109.853538 292.196696 
L 112.505597 292.350553 
L 115.157657 292.465946 
L 117.809716 292.581339 
L 120.461776 292.696732 
L 123.113835 292.773661 
L 125.765895 292.85059 
L 128.417954 292.927519 
L 131.070014 293.004447 
L 133.722073 293.081376 
L 136.374133 293.11984 
L 139.026192 293.196769 
L 141.678252 293.235233 
L 144.330311 293.273698 
L 146.982371 293.350627 
L 149.63443 293.389091 
L 152.28649 293.427555 
L 154.938549 293.46602 
L 157.590609 293.46602 
L 160.242668 293.504484 
L 162.894728 293.542948 
L 165.546787 293.581413 
L 168.198847 293.581413 
L 170.850906 293.619877 
L 173.502966 293.658341 
L 176.155025 293.658341 
L 178.807085 293.696806 
L 181.459144 293.696806 
L 184.111204 293.73527 
L 186.763264 293.73527 
L 189.415323 293.773734 
L 192.067383 293.773734 
L 194.719442 293.812199 
" clip-path="url(#pef52e061f7)" style="fill: none; stroke: #515151; stroke-width: 1.4; stroke-linecap: square"/>
   </g>
   <g id="patch_9">
    <path d="M 58.264925 294.485325 
L 58.264925 231.465325 
" style="fill: none; stroke: #000000; stroke-width: 0.8; stroke-linejoin: miter; stroke-linecap: square"/>
   </g>
   <g id="patch_10">
    <path d="M 58.264925 294.485325 
L 201.344141 294.485325 
" style="fill: none; stroke: #000000; stroke-width: 0.8; stroke-linejoin: miter; stroke-linecap: square"/>
   </g>
   <g id="text_13">
    <!-- LIF neuron -->
    <g transform="translate(107.852658 215.33625)scale(0.088 -0.088)">
     <use xlink:href="#OpenSans-Regular-4c"/>
     <use xlink:href="#OpenSans-Regular-49" x="52.197266"/>
     <use xlink:href="#OpenSans-Regular-46" x="80.126953"/>
     <use xlink:href="#OpenSans-Regular-20" x="131.738281"/>
     <use xlink:href="#OpenSans-Regular-6e" x="157.714844"/>
     <use xlink:href="#OpenSans-Regular-65" x="219.042969"/>
     <use xlink:href="#OpenSans-Regular-75" x="275.195312"/>
     <use xlink:href="#OpenSans-Regular-72" x="336.523438"/>
     <use xlink:href="#OpenSans-Regular-6f" x="377.392578"/>
     <use xlink:href="#OpenSans-Regular-6e" x="437.548828"/>
    </g>
    <!-- Markov opsin -->
    <g transform="translate(102.058408 225.465325)scale(0.088 -0.088)">
     <use xlink:href="#OpenSans-Regular-4d"/>
     <use xlink:href="#OpenSans-Regular-61" x="89.941406"/>
     <use xlink:href="#OpenSans-Regular-72" x="145.507812"/>
     <use xlink:href="#OpenSans-Regular-6b" x="186.376953"/>
     <use xlink:href="#OpenSans-Regular-6f" x="238.916016"/>
     <use xlink:href="#OpenSans-Regular-76" x="299.072266"/>
     <use xlink:href="#OpenSans-Regular-20" x="349.023438"/>
     <use xlink:href="#OpenSans-Regular-6f" x="375"/>
     <use xlink:href="#OpenSans-Regular-70" x="435.15625"/>
     <use xlink:href="#OpenSans-Regular-73" x="496.337891"/>
     <use xlink:href="#OpenSans-Regular-69" x="543.994141"/>
     <use xlink:href="#OpenSans-Regular-6e" x="569.238281"/>
    </g>
   </g>
  </g>
  <g id="axes_4">
   <g id="patch_11">
    <path d="M 58.264925 395.205325 
L 201.344141 395.205325 
L 201.344141 332.185325 
L 58.264925 332.185325 
z
" style="fill: #ffffff"/>
   </g>
   <g id="matplotlib.axis_7">
    <g id="xtick_16">
     <g id="line2d_37">
      <g>
       <use xlink:href="#m797a062855" x="62.116466" y="395.205325" style="stroke: #000000; stroke-width: 0.8"/>
      </g>
     </g>
    </g>
    <g id="xtick_17">
     <g id="line2d_38">
      <g>
       <use xlink:href="#m797a062855" x="95.26721" y="395.205325" style="stroke: #000000; stroke-width: 0.8"/>
      </g>
     </g>
    </g>
    <g id="xtick_18">
     <g id="line2d_39">
      <g>
       <use xlink:href="#m797a062855" x="128.417954" y="395.205325" style="stroke: #000000; stroke-width: 0.8"/>
      </g>
     </g>
    </g>
    <g id="xtick_19">
     <g id="line2d_40">
      <g>
       <use xlink:href="#m797a062855" x="161.568698" y="395.205325" style="stroke: #000000; stroke-width: 0.8"/>
      </g>
     </g>
    </g>
    <g id="xtick_20">
     <g id="line2d_41">
      <g>
       <use xlink:href="#m797a062855" x="194.719442" y="395.205325" style="stroke: #000000; stroke-width: 0.8"/>
      </g>
     </g>
    </g>
   </g>
   <g id="matplotlib.axis_8">
    <g id="ytick_10">
     <g id="line2d_42">
      <g>
       <use xlink:href="#m8766110a73" x="58.264925" y="395.205325" style="stroke: #000000; stroke-width: 0.8"/>
      </g>
     </g>
     <g id="text_14">
      <!-- 0 -->
      <g transform="translate(44.591175 398.2447)scale(0.08 -0.08)">
       <use xlink:href="#OpenSans-Regular-30"/>
      </g>
     </g>
    </g>
    <g id="ytick_11">
     <g id="line2d_43">
      <g>
       <use xlink:href="#m8766110a73" x="58.264925" y="363.695325" style="stroke: #000000; stroke-width: 0.8"/>
      </g>
     </g>
     <g id="text_15">
      <!-- 1000 -->
      <g transform="translate(30.869925 366.7347)scale(0.08 -0.08)">
       <use xlink:href="#OpenSans-Regular-31"/>
       <use xlink:href="#OpenSans-Regular-30" x="57.177734"/>
       <use xlink:href="#OpenSans-Regular-30" x="114.355469"/>
       <use xlink:href="#OpenSans-Regular-30" x="171.533203"/>
      </g>
     </g>
    </g>
    <g id="ytick_12">
     <g id="line2d_44">
      <g>
       <use xlink:href="#m8766110a73" x="58.264925" y="332.185325" style="stroke: #000000; stroke-width: 0.8"/>
      </g>
     </g>
     <g id="text_16">
      <!-- 2000 -->
      <g transform="translate(30.869925 335.2247)scale(0.08 -0.08)">
       <use xlink:href="#OpenSans-Regular-32"/>
       <use xlink:href="#OpenSans-Regular-30" x="57.177734"/>
       <use xlink:href="#OpenSans-Regular-30" x="114.355469"/>
       <use xlink:href="#OpenSans-Regular-30" x="171.533203"/>
      </g>
     </g>
    </g>
   </g>
   <g id="line2d_45">
    <path d="M 64.768526 374.838449 
L 67.420585 384.954574 
L 70.072645 388.339438 
L 72.724704 390.031869 
L 75.376764 391.070407 
L 78.028823 391.724301 
L 80.680883 392.224337 
L 83.332942 392.570517 
L 85.985002 392.878231 
L 88.637061 393.070553 
L 91.289121 393.262875 
L 93.94118 393.416732 
L 96.59324 393.57059 
L 99.245299 393.685983 
L 101.897359 393.762912 
L 104.549419 393.83984 
L 107.201478 393.916769 
L 109.853538 393.993698 
L 112.505597 394.032162 
L 115.157657 394.109091 
L 117.809716 394.147555 
L 120.461776 394.18602 
L 123.113835 394.224484 
L 125.765895 394.262948 
L 128.417954 394.301413 
L 131.070014 394.339877 
L 133.722073 394.378341 
L 136.374133 394.378341 
L 139.026192 394.416806 
L 141.678252 394.45527 
L 144.330311 394.45527 
L 146.982371 394.493734 
L 149.63443 394.493734 
L 152.28649 394.532199 
L 154.938549 394.532199 
L 157.590609 394.570663 
L 160.242668 394.570663 
L 162.894728 394.570663 
L 165.546787 394.609127 
L 168.198847 394.609127 
L 170.850906 394.609127 
L 173.502966 394.647592 
L 176.155025 394.647592 
L 178.807085 394.647592 
L 181.459144 394.647592 
L 184.111204 394.686056 
L 186.763264 394.686056 
L 189.415323 394.686056 
L 192.067383 394.686056 
L 194.719442 394.724521 
" clip-path="url(#p66971f636d)" style="fill: none; stroke: #d9d9d9; stroke-width: 1.4; stroke-linecap: square"/>
   </g>
   <g id="line2d_46">
    <path d="M 64.768526 277.715951 
L 67.420585 336.181772 
L 70.072645 355.6832 
L 72.724704 365.414682 
L 75.376764 371.299728 
L 78.028823 375.184628 
L 80.680883 377.992526 
L 83.332942 380.069601 
L 85.985002 381.685104 
L 88.637061 382.992892 
L 91.289121 384.069894 
L 93.94118 384.954574 
L 96.59324 385.685397 
L 99.245299 386.339291 
L 101.897359 386.877792 
L 104.549419 387.377829 
L 107.201478 387.800937 
L 109.853538 388.18558 
L 112.505597 388.531759 
L 115.157657 388.839474 
L 117.809716 389.108725 
L 120.461776 389.377975 
L 123.113835 389.608761 
L 125.765895 389.801083 
L 128.417954 389.993405 
L 131.070014 390.185727 
L 133.722073 390.339584 
L 136.374133 390.493441 
L 139.026192 390.647299 
L 141.678252 390.801156 
L 144.330311 390.916549 
L 146.982371 391.031942 
L 149.63443 391.147335 
L 152.28649 391.262729 
L 154.938549 391.339657 
L 157.590609 391.45505 
L 160.242668 391.531979 
L 162.894728 391.608908 
L 165.546787 391.685836 
L 168.198847 391.762765 
L 170.850906 391.839694 
L 173.502966 391.916623 
L 176.155025 391.955087 
L 178.807085 392.032016 
L 181.459144 392.07048 
L 184.111204 392.147409 
L 186.763264 392.185873 
L 189.415323 392.262802 
L 192.067383 392.301266 
L 194.719442 392.339731 
" clip-path="url(#p66971f636d)" style="fill: none; stroke: #959595; stroke-width: 1.4; stroke-linecap: square"/>
   </g>
   <g id="line2d_47">
    <path d="M 64.768526 80.124557 
L 67.420585 168.669503 
L 70.072645 243.521139 
L 72.724704 280.946957 
L 75.376764 303.410141 
L 78.028823 318.372775 
L 80.680883 329.065866 
L 83.332942 337.104916 
L 85.985002 343.336142 
L 88.637061 348.336508 
L 91.289121 352.41373 
L 93.94118 355.798593 
L 96.59324 358.683419 
L 99.245299 361.183603 
L 101.897359 363.299142 
L 104.549419 365.183896 
L 107.201478 366.837863 
L 109.853538 368.299508 
L 112.505597 369.607296 
L 115.157657 370.799691 
L 117.809716 371.838229 
L 120.461776 372.838302 
L 123.113835 373.722982 
L 125.765895 374.530734 
L 128.417954 375.261557 
L 131.070014 375.953915 
L 133.722073 376.607809 
L 136.374133 377.184774 
L 139.026192 377.76174 
L 141.678252 378.261776 
L 144.330311 378.723349 
L 146.982371 379.184921 
L 149.63443 379.608029 
L 152.28649 380.031137 
L 154.938549 380.377316 
L 157.590609 380.76196 
L 160.242668 381.069674 
L 162.894728 381.415854 
L 165.546787 381.685104 
L 168.198847 381.992819 
L 170.850906 382.262069 
L 173.502966 382.53132 
L 176.155025 382.762106 
L 178.807085 382.992892 
L 181.459144 383.223678 
L 184.111204 383.454464 
L 186.763264 383.646786 
L 189.415323 383.839108 
L 192.067383 384.03143 
L 194.719442 384.223752 
" clip-path="url(#p66971f636d)" style="fill: none; stroke: #515151; stroke-width: 1.4; stroke-linecap: square"/>
   </g>
   <g id="patch_12">
    <path d="M 58.264925 395.205325 
L 58.264925 332.185325 
" style="fill: none; stroke: #000000; stroke-width: 0.8; stroke-linejoin: miter; stroke-linecap: square"/>
   </g>
   <g id="patch_13">
    <path d="M 58.264925 395.205325 
L 201.344141 395.205325 
" style="fill: none; stroke: #000000; stroke-width: 0.8; stroke-linejoin: miter; stroke-linecap: square"/>
   </g>
   <g id="text_17">
    <!-- AdEx neuron -->
    <g transform="translate(103.427221 316.05625)scale(0.088 -0.088)">
     <defs>
      <path id="OpenSans-Regular-41" d="M 3491 0 
L 2928 1450 
L 1097 1450 
L 538 0 
L 0 0 
L 1788 4588 
L 2266 4588 
L 4041 0 
L 3491 0 
z
M 2769 1922 
L 2234 3363 
Q 2216 3419 2173 3547 
Q 2131 3675 2087 3812 
Q 2044 3950 2016 4034 
Q 1984 3906 1948 3779 
Q 1913 3653 1878 3545 
Q 1844 3438 1819 3363 
L 1275 1922 
L 2769 1922 
z
" transform="scale(0.015625)"/>
      <path id="OpenSans-Regular-45" d="M 3169 0 
L 625 0 
L 625 4569 
L 3169 4569 
L 3169 4100 
L 1156 4100 
L 1156 2622 
L 3053 2622 
L 3053 2159 
L 1156 2159 
L 1156 469 
L 3169 469 
L 3169 0 
z
" transform="scale(0.015625)"/>
      <path id="OpenSans-Regular-78" d="M 1363 1753 
L 178 3425 
L 772 3425 
L 1675 2106 
L 2575 3425 
L 3163 3425 
L 1978 1753 
L 3228 0 
L 2634 0 
L 1675 1397 
L 709 0 
L 122 0 
L 1363 1753 
z
" transform="scale(0.015625)"/>
     </defs>
     <use xlink:href="#OpenSans-Regular-41"/>
     <use xlink:href="#OpenSans-Regular-64" x="63.232422"/>
     <use xlink:href="#OpenSans-Regular-45" x="124.414062"/>
     <use xlink:href="#OpenSans-Regular-78" x="179.980469"/>
     <use xlink:href="#OpenSans-Regular-20" x="232.324219"/>
     <use xlink:href="#OpenSans-Regular-6e" x="258.300781"/>
     <use xlink:href="#OpenSans-Regular-65" x="319.628906"/>
     <use xlink:href="#OpenSans-Regular-75" x="375.78125"/>
     <use xlink:href="#OpenSans-Regular-72" x="437.109375"/>
     <use xlink:href="#OpenSans-Regular-6f" x="477.978516"/>
     <use xlink:href="#OpenSans-Regular-6e" x="538.134766"/>
    </g>
    <!-- Simple opsin -->
    <g transform="translate(103.544783 326.185325)scale(0.088 -0.088)">
     <use xlink:href="#OpenSans-Regular-53"/>
     <use xlink:href="#OpenSans-Regular-69" x="54.833984"/>
     <use xlink:href="#OpenSans-Regular-6d" x="80.078125"/>
     <use xlink:href="#OpenSans-Regular-70" x="172.65625"/>
     <use xlink:href="#OpenSans-Regular-6c" x="233.837891"/>
     <use xlink:href="#OpenSans-Regular-65" x="259.082031"/>
     <use xlink:href="#OpenSans-Regular-20" x="315.234375"/>
     <use xlink:href="#OpenSans-Regular-6f" x="341.210938"/>
     <use xlink:href="#OpenSans-Regular-70" x="401.367188"/>
     <use xlink:href="#OpenSans-Regular-73" x="462.548828"/>
     <use xlink:href="#OpenSans-Regular-69" x="510.205078"/>
     <use xlink:href="#OpenSans-Regular-6e" x="535.449219"/>
    </g>
   </g>
  </g>
  <g id="axes_5">
   <g id="patch_14">
    <path d="M 58.264925 495.925325 
L 201.344141 495.925325 
L 201.344141 432.905325 
L 58.264925 432.905325 
z
" style="fill: #ffffff"/>
   </g>
   <g id="matplotlib.axis_9">
    <g id="xtick_21">
     <g id="line2d_48">
      <g>
       <use xlink:href="#m797a062855" x="62.116466" y="495.925325" style="stroke: #000000; stroke-width: 0.8"/>
      </g>
     </g>
     <g id="text_18">
      <!-- 0.0 -->
      <g transform="translate(56.492091 511.104075)scale(0.08 -0.08)">
       <defs>
        <path id="OpenSans-Regular-2e" d="M 469 325 
Q 469 544 575 636 
Q 681 728 834 728 
Q 994 728 1103 636 
Q 1213 544 1213 325 
Q 1213 109 1103 10 
Q 994 -88 834 -88 
Q 681 -88 575 10 
Q 469 109 469 325 
z
" transform="scale(0.015625)"/>
       </defs>
       <use xlink:href="#OpenSans-Regular-30"/>
       <use xlink:href="#OpenSans-Regular-2e" x="57.177734"/>
       <use xlink:href="#OpenSans-Regular-30" x="83.447266"/>
      </g>
     </g>
    </g>
    <g id="xtick_22">
     <g id="line2d_49">
      <g>
       <use xlink:href="#m797a062855" x="95.26721" y="495.925325" style="stroke: #000000; stroke-width: 0.8"/>
      </g>
     </g>
     <g id="text_19">
      <!-- 2.5 -->
      <g transform="translate(89.642835 511.104075)scale(0.08 -0.08)">
       <defs>
        <path id="OpenSans-Regular-35" d="M 1759 2794 
Q 2225 2794 2569 2636 
Q 2913 2478 3102 2178 
Q 3291 1878 3291 1450 
Q 3291 981 3087 642 
Q 2884 303 2503 120 
Q 2122 -63 1591 -63 
Q 1234 -63 928 0 
Q 622 63 413 188 
L 413 681 
Q 641 544 966 462 
Q 1291 381 1597 381 
Q 1944 381 2205 492 
Q 2466 603 2611 829 
Q 2756 1056 2756 1400 
Q 2756 1856 2476 2104 
Q 2197 2353 1594 2353 
Q 1400 2353 1169 2322 
Q 938 2291 788 2253 
L 525 2425 
L 700 4569 
L 2972 4569 
L 2972 4094 
L 1144 4094 
L 1028 2716 
Q 1147 2741 1334 2767 
Q 1522 2794 1759 2794 
z
" transform="scale(0.015625)"/>
       </defs>
       <use xlink:href="#OpenSans-Regular-32"/>
       <use xlink:href="#OpenSans-Regular-2e" x="57.177734"/>
       <use xlink:href="#OpenSans-Regular-35" x="83.447266"/>
      </g>
     </g>
    </g>
    <g id="xtick_23">
     <g id="line2d_50">
      <g>
       <use xlink:href="#m797a062855" x="128.417954" y="495.925325" style="stroke: #000000; stroke-width: 0.8"/>
      </g>
     </g>
     <g id="text_20">
      <!-- 5.0 -->
      <g transform="translate(122.793579 511.104075)scale(0.08 -0.08)">
       <use xlink:href="#OpenSans-Regular-35"/>
       <use xlink:href="#OpenSans-Regular-2e" x="57.177734"/>
       <use xlink:href="#OpenSans-Regular-30" x="83.447266"/>
      </g>
     </g>
    </g>
    <g id="xtick_24">
     <g id="line2d_51">
      <g>
       <use xlink:href="#m797a062855" x="161.568698" y="495.925325" style="stroke: #000000; stroke-width: 0.8"/>
      </g>
     </g>
     <g id="text_21">
      <!-- 7.5 -->
      <g transform="translate(155.944323 511.104075)scale(0.08 -0.08)">
       <defs>
        <path id="OpenSans-Regular-37" d="M 906 0 
L 2781 4094 
L 291 4094 
L 291 4569 
L 3338 4569 
L 3338 4169 
L 1475 0 
L 906 0 
z
" transform="scale(0.015625)"/>
       </defs>
       <use xlink:href="#OpenSans-Regular-37"/>
       <use xlink:href="#OpenSans-Regular-2e" x="57.177734"/>
       <use xlink:href="#OpenSans-Regular-35" x="83.447266"/>
      </g>
     </g>
    </g>
    <g id="xtick_25">
     <g id="line2d_52">
      <g>
       <use xlink:href="#m797a062855" x="194.719442" y="495.925325" style="stroke: #000000; stroke-width: 0.8"/>
      </g>
     </g>
     <g id="text_22">
      <!-- 10.0 -->
      <g transform="translate(186.808192 511.104075)scale(0.08 -0.08)">
       <use xlink:href="#OpenSans-Regular-31"/>
       <use xlink:href="#OpenSans-Regular-30" x="57.177734"/>
       <use xlink:href="#OpenSans-Regular-2e" x="114.355469"/>
       <use xlink:href="#OpenSans-Regular-30" x="140.625"/>
      </g>
     </g>
    </g>
    <g id="text_23">
     <!-- Pulse width (ms) -->
     <g transform="translate(96.248346 523.70445)scale(0.088 -0.088)">
      <defs>
       <path id="OpenSans-Regular-50" d="M 1819 4569 
Q 2703 4569 3111 4223 
Q 3519 3878 3519 3234 
Q 3519 2944 3423 2683 
Q 3328 2422 3115 2223 
Q 2903 2025 2558 1911 
Q 2213 1797 1713 1797 
L 1156 1797 
L 1156 0 
L 625 0 
L 625 4569 
L 1819 4569 
z
M 1769 4116 
L 1156 4116 
L 1156 2253 
L 1653 2253 
Q 2091 2253 2383 2347 
Q 2675 2441 2822 2652 
Q 2969 2863 2969 3213 
Q 2969 3669 2678 3892 
Q 2388 4116 1769 4116 
z
" transform="scale(0.015625)"/>
       <path id="OpenSans-Regular-77" d="M 3334 6 
L 2725 2000 
Q 2684 2128 2648 2251 
Q 2613 2375 2583 2489 
Q 2553 2603 2529 2701 
Q 2506 2800 2491 2872 
L 2469 2872 
Q 2456 2800 2434 2701 
Q 2413 2603 2383 2487 
Q 2353 2372 2318 2245 
Q 2284 2119 2241 1991 
L 1603 6 
L 1019 6 
L 75 3431 
L 613 3431 
L 1106 1541 
Q 1156 1353 1201 1170 
Q 1247 988 1280 827 
Q 1313 666 1328 547 
L 1353 547 
Q 1372 625 1395 734 
Q 1419 844 1448 967 
Q 1478 1091 1512 1214 
Q 1547 1338 1581 1447 
L 2213 3431 
L 2772 3431 
L 3381 1450 
Q 3428 1300 3473 1137 
Q 3519 975 3556 823 
Q 3594 672 3609 553 
L 3634 553 
Q 3647 659 3681 815 
Q 3716 972 3761 1159 
Q 3806 1347 3856 1541 
L 4356 3431 
L 4884 3431 
L 3938 6 
L 3334 6 
z
" transform="scale(0.015625)"/>
       <path id="OpenSans-Regular-74" d="M 1653 363 
Q 1781 363 1915 384 
Q 2050 406 2134 438 
L 2134 34 
Q 2044 -6 1883 -34 
Q 1722 -63 1569 -63 
Q 1297 -63 1075 32 
Q 853 128 720 356 
Q 588 584 588 988 
L 588 3019 
L 100 3019 
L 100 3272 
L 591 3475 
L 797 4219 
L 1109 4219 
L 1109 3425 
L 2113 3425 
L 2113 3019 
L 1109 3019 
L 1109 1003 
Q 1109 681 1257 522 
Q 1406 363 1653 363 
z
" transform="scale(0.015625)"/>
      </defs>
      <use xlink:href="#OpenSans-Regular-50"/>
      <use xlink:href="#OpenSans-Regular-75" x="60.15625"/>
      <use xlink:href="#OpenSans-Regular-6c" x="121.484375"/>
      <use xlink:href="#OpenSans-Regular-73" x="146.728516"/>
      <use xlink:href="#OpenSans-Regular-65" x="194.384766"/>
      <use xlink:href="#OpenSans-Regular-20" x="250.537109"/>
      <use xlink:href="#OpenSans-Regular-77" x="276.513672"/>
      <use xlink:href="#OpenSans-Regular-69" x="354.003906"/>
      <use xlink:href="#OpenSans-Regular-64" x="379.248047"/>
      <use xlink:href="#OpenSans-Regular-74" x="440.429688"/>
      <use xlink:href="#OpenSans-Regular-68" x="476.074219"/>
      <use xlink:href="#OpenSans-Regular-20" x="537.402344"/>
      <use xlink:href="#OpenSans-Regular-28" x="563.378906"/>
      <use xlink:href="#OpenSans-Regular-6d" x="592.871094"/>
      <use xlink:href="#OpenSans-Regular-73" x="685.449219"/>
      <use xlink:href="#OpenSans-Regular-29" x="733.105469"/>
     </g>
    </g>
   </g>
   <g id="matplotlib.axis_10">
    <g id="ytick_13">
     <g id="line2d_53">
      <g>
       <use xlink:href="#m8766110a73" x="58.264925" y="495.925325" style="stroke: #000000; stroke-width: 0.8"/>
      </g>
     </g>
     <g id="text_24">
      <!-- 0 -->
      <g transform="translate(44.591175 498.9647)scale(0.08 -0.08)">
       <use xlink:href="#OpenSans-Regular-30"/>
      </g>
     </g>
    </g>
    <g id="ytick_14">
     <g id="line2d_54">
      <g>
       <use xlink:href="#m8766110a73" x="58.264925" y="464.415325" style="stroke: #000000; stroke-width: 0.8"/>
      </g>
     </g>
     <g id="text_25">
      <!-- 1000 -->
      <g transform="translate(30.869925 467.4547)scale(0.08 -0.08)">
       <use xlink:href="#OpenSans-Regular-31"/>
       <use xlink:href="#OpenSans-Regular-30" x="57.177734"/>
       <use xlink:href="#OpenSans-Regular-30" x="114.355469"/>
       <use xlink:href="#OpenSans-Regular-30" x="171.533203"/>
      </g>
     </g>
    </g>
    <g id="ytick_15">
     <g id="line2d_55">
      <g>
       <use xlink:href="#m8766110a73" x="58.264925" y="432.905325" style="stroke: #000000; stroke-width: 0.8"/>
      </g>
     </g>
     <g id="text_26">
      <!-- 2000 -->
      <g transform="translate(30.869925 435.9447)scale(0.08 -0.08)">
       <use xlink:href="#OpenSans-Regular-32"/>
       <use xlink:href="#OpenSans-Regular-30" x="57.177734"/>
       <use xlink:href="#OpenSans-Regular-30" x="114.355469"/>
       <use xlink:href="#OpenSans-Regular-30" x="171.533203"/>
      </g>
     </g>
    </g>
   </g>
   <g id="line2d_56">
    <path d="M 64.768526 491.02112 
L 67.420585 493.867482 
L 70.072645 494.675233 
L 72.724704 495.059877 
L 75.376764 495.252199 
L 78.028823 495.406056 
L 80.680883 495.482985 
L 83.332942 495.559914 
L 85.985002 495.598378 
L 88.637061 495.636842 
L 91.289121 495.675307 
L 93.94118 495.713771 
L 96.59324 495.713771 
L 99.245299 495.752235 
L 101.897359 495.752235 
L 104.549419 495.752235 
L 107.201478 495.7907 
L 109.853538 495.7907 
L 112.505597 495.7907 
L 115.157657 495.7907 
L 117.809716 495.829164 
L 120.461776 495.829164 
L 123.113835 495.829164 
L 125.765895 495.829164 
L 128.417954 495.829164 
L 131.070014 495.829164 
L 133.722073 495.829164 
L 136.374133 495.829164 
L 139.026192 495.829164 
L 141.678252 495.867628 
L 144.330311 495.867628 
L 146.982371 495.867628 
L 149.63443 495.867628 
L 152.28649 495.867628 
L 154.938549 495.867628 
L 157.590609 495.867628 
L 160.242668 495.867628 
L 162.894728 495.867628 
L 165.546787 495.867628 
L 168.198847 495.867628 
L 170.850906 495.867628 
L 173.502966 495.867628 
L 176.155025 495.867628 
L 178.807085 495.867628 
L 181.459144 495.867628 
L 184.111204 495.867628 
L 186.763264 495.867628 
L 189.415323 495.867628 
L 192.067383 495.867628 
L 194.719442 495.867628 
" clip-path="url(#p5d6c2c377f)" style="fill: none; stroke: #d9d9d9; stroke-width: 1.4; stroke-linecap: square"/>
   </g>
   <g id="line2d_57">
    <path d="M 64.768526 467.750185 
L 67.420585 483.982143 
L 70.072645 488.674794 
L 72.724704 490.828798 
L 75.376764 492.059657 
L 78.028823 492.828944 
L 80.680883 493.367445 
L 83.332942 493.752089 
L 85.985002 494.059804 
L 88.637061 494.29059 
L 91.289121 494.444447 
L 93.94118 494.598305 
L 96.59324 494.713698 
L 99.245299 494.829091 
L 101.897359 494.90602 
L 104.549419 494.982948 
L 107.201478 495.059877 
L 109.853538 495.136806 
L 112.505597 495.17527 
L 115.157657 495.213734 
L 117.809716 495.252199 
L 120.461776 495.290663 
L 123.113835 495.329127 
L 125.765895 495.367592 
L 128.417954 495.406056 
L 131.070014 495.406056 
L 133.722073 495.444521 
L 136.374133 495.444521 
L 139.026192 495.482985 
L 141.678252 495.482985 
L 144.330311 495.521449 
L 146.982371 495.521449 
L 149.63443 495.559914 
L 152.28649 495.559914 
L 154.938549 495.559914 
L 157.590609 495.598378 
L 160.242668 495.598378 
L 162.894728 495.598378 
L 165.546787 495.598378 
L 168.198847 495.636842 
L 170.850906 495.636842 
L 173.502966 495.636842 
L 176.155025 495.636842 
L 178.807085 495.636842 
L 181.459144 495.675307 
L 184.111204 495.675307 
L 186.763264 495.675307 
L 189.415323 495.675307 
L 192.067383 495.675307 
L 194.719442 495.675307 
" clip-path="url(#p5d6c2c377f)" style="fill: none; stroke: #959595; stroke-width: 1.4; stroke-linecap: square"/>
   </g>
   <g id="line2d_58">
    <path d="M 64.768526 387.705861 
L 67.420585 450.13351 
L 70.072645 468.096364 
L 72.724704 476.3662 
L 75.376764 481.058852 
L 78.028823 484.020607 
L 80.680883 486.097682 
L 83.332942 487.559328 
L 85.985002 488.713258 
L 88.637061 489.597939 
L 91.289121 490.290297 
L 93.94118 490.867262 
L 96.59324 491.328835 
L 99.245299 491.751942 
L 101.897359 492.098122 
L 104.549419 492.367372 
L 107.201478 492.636623 
L 109.853538 492.867409 
L 112.505597 493.059731 
L 115.157657 493.213588 
L 117.809716 493.40591 
L 120.461776 493.521303 
L 123.113835 493.67516 
L 125.765895 493.790553 
L 128.417954 493.867482 
L 131.070014 493.982875 
L 133.722073 494.059804 
L 136.374133 494.136732 
L 139.026192 494.213661 
L 141.678252 494.29059 
L 144.330311 494.367519 
L 146.982371 494.405983 
L 149.63443 494.482912 
L 152.28649 494.521376 
L 154.938549 494.55984 
L 157.590609 494.598305 
L 160.242668 494.636769 
L 162.894728 494.713698 
L 165.546787 494.713698 
L 168.198847 494.752162 
L 170.850906 494.790627 
L 173.502966 494.829091 
L 176.155025 494.867555 
L 178.807085 494.90602 
L 181.459144 494.90602 
L 184.111204 494.944484 
L 186.763264 494.982948 
L 189.415323 494.982948 
L 192.067383 495.021413 
L 194.719442 495.021413 
" clip-path="url(#p5d6c2c377f)" style="fill: none; stroke: #515151; stroke-width: 1.4; stroke-linecap: square"/>
   </g>
   <g id="patch_15">
    <path d="M 58.264925 495.925325 
L 58.264925 432.905325 
" style="fill: none; stroke: #000000; stroke-width: 0.8; stroke-linejoin: miter; stroke-linecap: square"/>
   </g>
   <g id="patch_16">
    <path d="M 58.264925 495.925325 
L 201.344141 495.925325 
" style="fill: none; stroke: #000000; stroke-width: 0.8; stroke-linejoin: miter; stroke-linecap: square"/>
   </g>
   <g id="text_27">
    <!-- AdEx neuron -->
    <g transform="translate(103.427221 416.77625)scale(0.088 -0.088)">
     <use xlink:href="#OpenSans-Regular-41"/>
     <use xlink:href="#OpenSans-Regular-64" x="63.232422"/>
     <use xlink:href="#OpenSans-Regular-45" x="124.414062"/>
     <use xlink:href="#OpenSans-Regular-78" x="179.980469"/>
     <use xlink:href="#OpenSans-Regular-20" x="232.324219"/>
     <use xlink:href="#OpenSans-Regular-6e" x="258.300781"/>
     <use xlink:href="#OpenSans-Regular-65" x="319.628906"/>
     <use xlink:href="#OpenSans-Regular-75" x="375.78125"/>
     <use xlink:href="#OpenSans-Regular-72" x="437.109375"/>
     <use xlink:href="#OpenSans-Regular-6f" x="477.978516"/>
     <use xlink:href="#OpenSans-Regular-6e" x="538.134766"/>
    </g>
    <!-- Markov opsin -->
    <g transform="translate(102.058408 426.905325)scale(0.088 -0.088)">
     <use xlink:href="#OpenSans-Regular-4d"/>
     <use xlink:href="#OpenSans-Regular-61" x="89.941406"/>
     <use xlink:href="#OpenSans-Regular-72" x="145.507812"/>
     <use xlink:href="#OpenSans-Regular-6b" x="186.376953"/>
     <use xlink:href="#OpenSans-Regular-6f" x="238.916016"/>
     <use xlink:href="#OpenSans-Regular-76" x="299.072266"/>
     <use xlink:href="#OpenSans-Regular-20" x="349.023438"/>
     <use xlink:href="#OpenSans-Regular-6f" x="375"/>
     <use xlink:href="#OpenSans-Regular-70" x="435.15625"/>
     <use xlink:href="#OpenSans-Regular-73" x="496.337891"/>
     <use xlink:href="#OpenSans-Regular-69" x="543.994141"/>
     <use xlink:href="#OpenSans-Regular-6e" x="569.238281"/>
    </g>
   </g>
  </g>
  <g id="legend_1">
   <g id="text_28">
    <!-- distance -->
    <g transform="translate(212.320266 251.119162)scale(0.1 -0.1)">
     <use xlink:href="#OpenSans-Regular-64"/>
     <use xlink:href="#OpenSans-Regular-69" x="61.181641"/>
     <use xlink:href="#OpenSans-Regular-73" x="86.425781"/>
     <use xlink:href="#OpenSans-Regular-74" x="134.082031"/>
     <use xlink:href="#OpenSans-Regular-61" x="169.726562"/>
     <use xlink:href="#OpenSans-Regular-6e" x="225.292969"/>
     <use xlink:href="#OpenSans-Regular-63" x="286.621094"/>
     <use xlink:href="#OpenSans-Regular-65" x="334.521484"/>
    </g>
   </g>
   <g id="line2d_59">
    <path d="M 206.584641 260.7901 
L 214.584641 260.7901 
L 222.584641 260.7901 
" style="fill: none; stroke: #d9d9d9; stroke-width: 1.4; stroke-linecap: square"/>
   </g>
   <g id="text_29">
    <!-- 0.5 mm -->
    <g transform="translate(228.984641 263.5901)scale(0.08 -0.08)">
     <use xlink:href="#OpenSans-Regular-30"/>
     <use xlink:href="#OpenSans-Regular-2e" x="57.177734"/>
     <use xlink:href="#OpenSans-Regular-35" x="83.447266"/>
     <use xlink:href="#OpenSans-Regular-20" x="140.625"/>
     <use xlink:href="#OpenSans-Regular-6d" x="166.601562"/>
     <use xlink:href="#OpenSans-Regular-6d" x="259.179688"/>
    </g>
   </g>
   <g id="line2d_60">
    <path d="M 206.584641 272.7826 
L 214.584641 272.7826 
L 222.584641 272.7826 
" style="fill: none; stroke: #959595; stroke-width: 1.4; stroke-linecap: square"/>
   </g>
   <g id="text_30">
    <!-- 1 mm -->
    <g transform="translate(228.984641 275.5826)scale(0.08 -0.08)">
     <use xlink:href="#OpenSans-Regular-31"/>
     <use xlink:href="#OpenSans-Regular-20" x="57.177734"/>
     <use xlink:href="#OpenSans-Regular-6d" x="83.154297"/>
     <use xlink:href="#OpenSans-Regular-6d" x="175.732422"/>
    </g>
   </g>
   <g id="line2d_61">
    <path d="M 206.584641 284.7751 
L 214.584641 284.7751 
L 222.584641 284.7751 
" style="fill: none; stroke: #515151; stroke-width: 1.4; stroke-linecap: square"/>
   </g>
   <g id="text_31">
    <!-- 1.5 mm -->
    <g transform="translate(228.984641 287.5751)scale(0.08 -0.08)">
     <use xlink:href="#OpenSans-Regular-31"/>
     <use xlink:href="#OpenSans-Regular-2e" x="57.177734"/>
     <use xlink:href="#OpenSans-Regular-35" x="83.447266"/>
     <use xlink:href="#OpenSans-Regular-20" x="140.625"/>
     <use xlink:href="#OpenSans-Regular-6d" x="166.601562"/>
     <use xlink:href="#OpenSans-Regular-6d" x="259.179688"/>
    </g>
   </g>
  </g>
 </g>
 <defs>
  <clipPath id="pe634e39981">
   <rect x="58.264925" y="30.025325" width="143.079216" height="63.02"/>
  </clipPath>
  <clipPath id="p1eb0f26f46">
   <rect x="58.264925" y="130.745325" width="143.079216" height="63.02"/>
  </clipPath>
  <clipPath id="pef52e061f7">
   <rect x="58.264925" y="231.465325" width="143.079216" height="63.02"/>
  </clipPath>
  <clipPath id="p66971f636d">
   <rect x="58.264925" y="332.185325" width="143.079216" height="63.02"/>
  </clipPath>
  <clipPath id="p5d6c2c377f">
   <rect x="58.264925" y="432.905325" width="143.079216" height="63.02"/>
  </clipPath>
 </defs>
</svg>
