<?xml version="1.0" encoding="utf-8" standalone="no"?>
<!DOCTYPE svg PUBLIC "-//W3C//DTD SVG 1.1//EN"
  "http://www.w3.org/Graphics/SVG/1.1/DTD/svg11.dtd">
<svg xmlns:xlink="http://www.w3.org/1999/xlink" width="216pt" height="108pt" viewBox="0 0 216 108" xmlns="http://www.w3.org/2000/svg" version="1.1">
 <metadata>
  <rdf:RDF xmlns:dc="http://purl.org/dc/elements/1.1/" xmlns:cc="http://creativecommons.org/ns#" xmlns:rdf="http://www.w3.org/1999/02/22-rdf-syntax-ns#">
   <cc:Work>
    <dc:type rdf:resource="http://purl.org/dc/dcmitype/StillImage"/>
    <dc:date>2023-10-09T12:25:00.112223</dc:date>
    <dc:format>image/svg+xml</dc:format>
    <dc:creator>
     <cc:Agent>
      <dc:title>Matplotlib v3.7.1, https://matplotlib.org/</dc:title>
     </cc:Agent>
    </dc:creator>
   </cc:Work>
  </rdf:RDF>
 </metadata>
 <defs>
  <style type="text/css">*{stroke-linejoin: round; stroke-linecap: butt}</style>
 </defs>
 <g id="figure_1">
  <g id="patch_1">
   <path d="M 0 108 
L 216 108 
L 216 0 
L 0 0 
z
" style="fill: #ffffff"/>
  </g>
  <g id="axes_1">
   <g id="patch_2">
    <path d="M 47.03 80.18 
L 112.08 80.18 
L 112.08 24 
L 47.03 24 
z
" style="fill: #ffffff"/>
   </g>
   <g id="PolyCollection_1"/>
   <g id="PolyCollection_2"/>
   <g id="PolyCollection_3"/>
   <g id="matplotlib.axis_1">
    <g id="xtick_1">
     <g id="line2d_1">
      <defs>
       <path id="m81c4f8f3d1" d="M 0 0 
L 0 3.5 
" style="stroke: #000000; stroke-width: 0.8"/>
      </defs>
      <g>
       <use xlink:href="#m81c4f8f3d1" x="47.03" y="80.18" style="stroke: #000000; stroke-width: 0.8"/>
      </g>
     </g>
     <g id="text_1">
      <text style="font: 8px 'Open Sans', sans-serif; text-anchor: middle" x="47.03" y="95.35875" transform="rotate(-0 47.03 95.35875)">0</text>
     </g>
    </g>
    <g id="xtick_2">
     <g id="line2d_2">
      <g>
       <use xlink:href="#m81c4f8f3d1" x="79.555" y="80.18" style="stroke: #000000; stroke-width: 0.8"/>
      </g>
     </g>
     <g id="text_2">
      <text style="font: 8px 'Open Sans', sans-serif; text-anchor: middle" x="79.555" y="95.35875" transform="rotate(-0 79.555 95.35875)">100</text>
     </g>
    </g>
    <g id="xtick_3">
     <g id="line2d_3">
      <g>
       <use xlink:href="#m81c4f8f3d1" x="112.08" y="80.18" style="stroke: #000000; stroke-width: 0.8"/>
      </g>
     </g>
     <g id="text_3">
      <text style="font: 8px 'Open Sans', sans-serif; text-anchor: middle" x="112.08" y="95.35875" transform="rotate(-0 112.08 95.35875)">200</text>
     </g>
    </g>
   </g>
   <g id="matplotlib.axis_2">
    <g id="ytick_1">
     <g id="line2d_4">
      <defs>
       <path id="m176e1c8cb6" d="M 0 0 
L -3.5 0 
" style="stroke: #000000; stroke-width: 0.8"/>
      </defs>
      <g>
       <use xlink:href="#m176e1c8cb6" x="47.03" y="80.18" style="stroke: #000000; stroke-width: 0.8"/>
      </g>
     </g>
     <g id="text_4">
      <text style="font: 8px 'Open Sans', sans-serif; text-anchor: end" x="37.93" y="83.219375" transform="rotate(-0 37.93 83.219375)">0</text>
     </g>
    </g>
    <g id="ytick_2">
     <g id="line2d_5">
      <g>
       <use xlink:href="#m176e1c8cb6" x="47.03" y="52.09" style="stroke: #000000; stroke-width: 0.8"/>
      </g>
     </g>
     <g id="text_5">
      <text style="font: 8px 'Open Sans', sans-serif; text-anchor: end" x="37.93" y="55.129375" transform="rotate(-0 37.93 55.129375)">100</text>
     </g>
    </g>
    <g id="ytick_3">
     <g id="line2d_6">
      <g>
       <use xlink:href="#m176e1c8cb6" x="47.03" y="24" style="stroke: #000000; stroke-width: 0.8"/>
      </g>
     </g>
     <g id="text_6">
      <text style="font: 8px 'Open Sans', sans-serif; text-anchor: end" x="37.93" y="27.039375" transform="rotate(-0 37.93 27.039375)">200</text>
     </g>
    </g>
    <g id="text_7">
     <text style="font: 8.8px 'Open Sans', sans-serif; text-anchor: middle" x="18.094" y="52.09" transform="rotate(-90 18.094 52.09)">firing_rate</text>
    </g>
   </g>
   <g id="line2d_7">
    <path d="M 47.062525 80.18 
L 50.484497 77.371 
L 53.90647 73.85975 
L 57.328442 71.05075 
L 60.750414 68.944 
L 64.172387 60.517 
L 67.594359 54.19675 
L 71.016332 48.57875 
L 74.438304 43.663 
L 77.860276 37.34275 
L 81.282249 32.427 
L 84.704221 27.51125 
L 88.126193 22.5955 
L 91.548166 17.67975 
L 94.970138 12.764 
L 98.392111 9.25275 
L 101.814083 5.03925 
L 105.236055 0.1235 
L 106.1485 -1 
" clip-path="url(#p0938c8f5be)" style="fill: none; stroke: #df87e1; stroke-width: 1.4; stroke-linecap: square"/>
   </g>
   <g id="line2d_8">
    <path d="M 47.062525 80.18 
L 50.484497 77.371 
L 53.90647 73.85975 
L 57.328442 71.05075 
L 60.750414 62.62375 
L 64.172387 54.899 
L 67.594359 48.57875 
L 71.016332 42.2585 
L 74.438304 36.6405 
L 77.860276 30.32025 
L 81.282249 24 
L 84.704221 19.08425 
L 88.126193 13.46625 
L 91.548166 7.84825 
L 94.970138 2.9325 
L 98.163898 -1 
" clip-path="url(#p0938c8f5be)" style="fill: none; stroke: #af43ca; stroke-width: 1.4; stroke-linecap: square"/>
   </g>
   <g id="line2d_9">
    <path d="M 47.062525 80.18 
L 50.484497 77.371 
L 53.90647 73.85975 
L 57.328442 65.43275 
L 60.750414 57.00575 
L 64.172387 50.6855 
L 67.594359 43.663 
L 71.016332 36.6405 
L 74.438304 30.32025 
L 77.860276 22.5955 
L 81.282249 16.27525 
L 84.704221 10.65725 
L 88.126193 5.03925 
L 91.548166 -0.57875 
L 91.776243 -1 
" clip-path="url(#p0938c8f5be)" style="fill: none; stroke: #8000b4; stroke-width: 1.4; stroke-linecap: square"/>
   </g>
   <g id="line2d_10"/>
   <g id="line2d_11"/>
   <g id="line2d_12"/>
   <g id="patch_3">
    <path d="M 47.03 80.18 
L 47.03 24 
" style="fill: none; stroke: #000000; stroke-width: 0.8; stroke-linejoin: miter; stroke-linecap: square"/>
   </g>
   <g id="patch_4">
    <path d="M 47.03 80.18 
L 112.08 80.18 
" style="fill: none; stroke: #000000; stroke-width: 0.8; stroke-linejoin: miter; stroke-linecap: square"/>
   </g>
   <g id="text_8">
    <text style="font: 8.8px 'Open Sans', sans-serif; text-anchor: middle" x="79.555" y="18" transform="rotate(-0 79.555 18)">LIF_Markov</text>
   </g>
  </g>
  <g id="axes_2">
   <g id="patch_5">
    <path d="M 133.265 80.18 
L 198.315 80.18 
L 198.315 24 
L 133.265 24 
z
" style="fill: #ffffff"/>
   </g>
   <g id="PolyCollection_4"/>
   <g id="PolyCollection_5"/>
   <g id="PolyCollection_6"/>
   <g id="matplotlib.axis_3">
    <g id="xtick_4">
     <g id="line2d_13">
      <g>
       <use xlink:href="#m81c4f8f3d1" x="133.265" y="80.18" style="stroke: #000000; stroke-width: 0.8"/>
      </g>
     </g>
     <g id="text_9">
      <text style="font: 8px 'Open Sans', sans-serif; text-anchor: middle" x="133.265" y="95.35875" transform="rotate(-0 133.265 95.35875)">0</text>
     </g>
    </g>
    <g id="xtick_5">
     <g id="line2d_14">
      <g>
       <use xlink:href="#m81c4f8f3d1" x="165.79" y="80.18" style="stroke: #000000; stroke-width: 0.8"/>
      </g>
     </g>
     <g id="text_10">
      <text style="font: 8px 'Open Sans', sans-serif; text-anchor: middle" x="165.79" y="95.35875" transform="rotate(-0 165.79 95.35875)">100</text>
     </g>
    </g>
    <g id="xtick_6">
     <g id="line2d_15">
      <g>
       <use xlink:href="#m81c4f8f3d1" x="198.315" y="80.18" style="stroke: #000000; stroke-width: 0.8"/>
      </g>
     </g>
     <g id="text_11">
      <text style="font: 8px 'Open Sans', sans-serif; text-anchor: middle" x="198.315" y="95.35875" transform="rotate(-0 198.315 95.35875)">200</text>
     </g>
    </g>
   </g>
   <g id="matplotlib.axis_4">
    <g id="ytick_4">
     <g id="line2d_16">
      <g>
       <use xlink:href="#m176e1c8cb6" x="133.265" y="80.18" style="stroke: #000000; stroke-width: 0.8"/>
      </g>
     </g>
    </g>
    <g id="ytick_5">
     <g id="line2d_17">
      <g>
       <use xlink:href="#m176e1c8cb6" x="133.265" y="52.09" style="stroke: #000000; stroke-width: 0.8"/>
      </g>
     </g>
    </g>
    <g id="ytick_6">
     <g id="line2d_18">
      <g>
       <use xlink:href="#m176e1c8cb6" x="133.265" y="24" style="stroke: #000000; stroke-width: 0.8"/>
      </g>
     </g>
    </g>
   </g>
   <g id="line2d_19">
    <path d="M 133.297525 80.18 
L 136.719497 78.7755 
L 140.14147 77.371 
L 143.563442 76.66875 
L 146.985414 75.9665 
L 150.407387 75.26425 
L 153.829359 73.85975 
L 157.251332 72.45525 
L 160.673304 71.05075 
L 164.095276 69.64625 
L 167.517249 68.24175 
L 170.939221 66.83725 
L 174.361193 66.135 
L 177.783166 64.7305 
L 181.205138 62.62375 
L 184.627111 61.9215 
L 188.049083 60.517 
L 191.471055 58.41025 
L 194.893028 57.00575 
L 198.315 55.60125 
" clip-path="url(#pe6b0eb785a)" style="fill: none; stroke: #df87e1; stroke-width: 1.4; stroke-linecap: square"/>
   </g>
   <g id="line2d_20">
    <path d="M 133.297525 80.18 
L 136.719497 77.371 
L 140.14147 76.66875 
L 143.563442 75.26425 
L 146.985414 73.85975 
L 150.407387 72.45525 
L 153.829359 71.753 
L 157.251332 69.64625 
L 160.673304 68.24175 
L 164.095276 66.83725 
L 167.517249 65.43275 
L 170.939221 64.02825 
L 174.361193 61.9215 
L 177.783166 59.81475 
L 181.205138 58.41025 
L 184.627111 57.00575 
L 188.049083 55.60125 
L 191.471055 54.19675 
L 194.893028 52.09 
L 198.315 49.98325 
" clip-path="url(#pe6b0eb785a)" style="fill: none; stroke: #af43ca; stroke-width: 1.4; stroke-linecap: square"/>
   </g>
   <g id="line2d_21">
    <path d="M 133.297525 80.18 
L 136.719497 77.371 
L 140.14147 75.9665 
L 143.563442 75.26425 
L 146.985414 73.85975 
L 150.407387 71.753 
L 153.829359 70.3485 
L 157.251332 68.24175 
L 160.673304 66.83725 
L 164.095276 64.7305 
L 167.517249 62.62375 
L 170.939221 61.21925 
L 174.361193 59.1125 
L 177.783166 57.00575 
L 181.205138 54.899 
L 184.627111 52.79225 
L 188.049083 51.38775 
L 191.471055 49.281 
L 194.893028 46.472 
L 198.315 44.36525 
" clip-path="url(#pe6b0eb785a)" style="fill: none; stroke: #8000b4; stroke-width: 1.4; stroke-linecap: square"/>
   </g>
   <g id="patch_6">
    <path d="M 133.265 80.18 
L 133.265 24 
" style="fill: none; stroke: #000000; stroke-width: 0.8; stroke-linejoin: miter; stroke-linecap: square"/>
   </g>
   <g id="patch_7">
    <path d="M 133.265 80.18 
L 198.315 80.18 
" style="fill: none; stroke: #000000; stroke-width: 0.8; stroke-linejoin: miter; stroke-linecap: square"/>
   </g>
   <g id="text_12">
    <text style="font: 8.8px 'Open Sans', sans-serif; text-anchor: middle" x="165.79" y="18" transform="rotate(-0 165.79 18)">AdEx_simple</text>
   </g>
  </g>
  <g id="legend_1">
   <g id="patch_8">
    <path d="M 39.926875 126.3925 
L 176.073125 126.3925 
Q 177.673125 126.3925 177.673125 124.7925 
L 177.673125 113.6 
Q 177.673125 112 176.073125 112 
L 39.926875 112 
Q 38.326875 112 38.326875 113.6 
L 38.326875 124.7925 
Q 38.326875 126.3925 39.926875 126.3925 
z
" style="fill: #ffffff; opacity: 0.8; stroke: #cccccc; stroke-width: 0.24; stroke-linejoin: miter"/>
   </g>
   <g id="line2d_22">
    <path style="fill: none; stroke: #df87e1; stroke-width: 1.4; stroke-linecap: square"/>
   </g>
   <g id="text_13">
    <text style="font: 8px 'Open Sans', sans-serif; text-anchor: start" x="63.926875" y="121.27875" transform="rotate(-0 63.926875 121.27875)">1.0</text>
   </g>
   <g id="line2d_23">
    <path style="fill: none; stroke: #af43ca; stroke-width: 1.4; stroke-linecap: square"/>
   </g>
   <g id="text_14">
    <text style="font: 8px 'Open Sans', sans-serif; text-anchor: start" x="113.575625" y="121.27875" transform="rotate(-0 113.575625 121.27875)">1.2</text>
   </g>
   <g id="line2d_24">
    <path style="fill: none; stroke: #8000b4; stroke-width: 1.4; stroke-linecap: square"/>
   </g>
   <g id="text_15">
    <text style="font: 8px 'Open Sans', sans-serif; text-anchor: start" x="163.224375" y="121.27875" transform="rotate(-0 163.224375 121.27875)">1.4</text>
   </g>
  </g>
 </g>
 <defs>
  <clipPath id="p0938c8f5be">
   <rect x="47.03" y="24" width="65.05" height="56.18"/>
  </clipPath>
  <clipPath id="pe6b0eb785a">
   <rect x="133.265" y="24" width="65.05" height="56.18"/>
  </clipPath>
 </defs>
</svg>
