<?xml version="1.0" encoding="utf-8" standalone="no"?>
<!DOCTYPE svg PUBLIC "-//W3C//DTD SVG 1.1//EN"
  "http://www.w3.org/Graphics/SVG/1.1/DTD/svg11.dtd">
<svg xmlns:xlink="http://www.w3.org/1999/xlink" width="208.6675pt" height="130.531875pt" viewBox="0 0 208.6675 130.531875" xmlns="http://www.w3.org/2000/svg" version="1.1">
 <metadata>
  <rdf:RDF xmlns:dc="http://purl.org/dc/elements/1.1/" xmlns:cc="http://creativecommons.org/ns#" xmlns:rdf="http://www.w3.org/1999/02/22-rdf-syntax-ns#">
   <cc:Work>
    <dc:type rdf:resource="http://purl.org/dc/dcmitype/StillImage"/>
    <dc:date>2022-04-20T11:16:39.951605</dc:date>
    <dc:format>image/svg+xml</dc:format>
    <dc:creator>
     <cc:Agent>
      <dc:title>Matplotlib v3.5.1, https://matplotlib.org/</dc:title>
     </cc:Agent>
    </dc:creator>
   </cc:Work>
  </rdf:RDF>
 </metadata>
 <defs>
  <style type="text/css">*{stroke-linejoin: round; stroke-linecap: butt}</style>
 </defs>
 <g id="figure_1">
  <g id="patch_1">
   <path d="M 0 130.531875 
L 208.6675 130.531875 
L 208.6675 0 
L 0 0 
L 0 130.531875 
z
" style="fill: none"/>
  </g>
  <g id="axes_1">
   <g id="patch_2">
    <path d="M 42.869375 65.039375 
L 79.373542 65.039375 
L 79.373542 10.239375 
L 42.869375 10.239375 
z
" style="fill: #ffffff"/>
   </g>
   <g id="PolyCollection_1">
    <defs>
     <path id="m86f156f015" d="M 63.031287 -94.313013 
L 63.031287 -94.313013 
L 63.031287 -94.313013 
L 63.031287 -94.313013 
z
" style="stroke: #36827f; stroke-opacity: 0.2; stroke-width: 0.24"/>
    </defs>
    <g clip-path="url(#p65407c53b8)">
     <use xlink:href="#m86f156f015" x="0" y="130.531875" style="fill: #36827f; fill-opacity: 0.2; stroke: #36827f; stroke-opacity: 0.2; stroke-width: 0.24"/>
    </g>
   </g>
   <g id="matplotlib.axis_1">
    <g id="xtick_1">
     <g id="line2d_1">
      <defs>
       <path id="mf948000dc2" d="M 0 0 
L 0 3.5 
" style="stroke: #000000; stroke-width: 0.8"/>
      </defs>
      <g>
       <use xlink:href="#mf948000dc2" x="42.869375" y="65.039375" style="stroke: #000000; stroke-width: 0.8"/>
      </g>
     </g>
     <g id="text_1">
      <text style="font: 8px 'sans-serif'; text-anchor: middle" x="42.869375" y="80.218125" transform="rotate(-0, 42.869375, 80.218125)">0</text>
     </g>
    </g>
    <g id="xtick_2">
     <g id="line2d_2">
      <g>
       <use xlink:href="#mf948000dc2" x="79.373542" y="65.039375" style="stroke: #000000; stroke-width: 0.8"/>
      </g>
     </g>
     <g id="text_2">
      <text style="font: 8px 'sans-serif'; text-anchor: middle" x="79.373542" y="80.218125" transform="rotate(-0, 79.373542, 80.218125)">200</text>
     </g>
    </g>
    <g id="text_3">
     <text style="font: 8.8px 'sans-serif'; text-anchor: middle" x="61.121458" y="92.8185" transform="rotate(-0, 61.121458, 92.8185)">pulse_rate</text>
    </g>
   </g>
   <g id="matplotlib.axis_2">
    <g id="ytick_1">
     <g id="line2d_3">
      <defs>
       <path id="m46121a3a5a" d="M 0 0 
L -3.5 0 
" style="stroke: #000000; stroke-width: 0.8"/>
      </defs>
      <g>
       <use xlink:href="#m46121a3a5a" x="42.869375" y="65.039375" style="stroke: #000000; stroke-width: 0.8"/>
      </g>
     </g>
     <g id="text_4">
      <text style="font: 8px 'sans-serif'; text-anchor: end" x="33.769375" y="68.07875" transform="rotate(-0, 33.769375, 68.07875)">0</text>
     </g>
    </g>
    <g id="ytick_2">
     <g id="line2d_4">
      <g>
       <use xlink:href="#m46121a3a5a" x="42.869375" y="37.639375" style="stroke: #000000; stroke-width: 0.8"/>
      </g>
     </g>
     <g id="text_5">
      <text style="font: 8px 'sans-serif'; text-anchor: end" x="33.769375" y="40.67875" transform="rotate(-0, 33.769375, 40.67875)">100</text>
     </g>
    </g>
    <g id="ytick_3">
     <g id="line2d_5">
      <g>
       <use xlink:href="#m46121a3a5a" x="42.869375" y="10.239375" style="stroke: #000000; stroke-width: 0.8"/>
      </g>
     </g>
     <g id="text_6">
      <text style="font: 8px 'sans-serif'; text-anchor: end" x="33.769375" y="13.27875" transform="rotate(-0, 33.769375, 13.27875)">200</text>
     </g>
    </g>
    <g id="text_7">
     <text style="font: 8.8px 'sans-serif'; text-anchor: middle" x="13.933375" y="37.639375" transform="rotate(-90, 13.933375, 37.639375)">firing_rate</text>
    </g>
   </g>
   <g id="line2d_6">
    <path d="M 42.958687 65.022903 
L 46.586039 59.518764 
L 48.258755 59.1195 
L 49.649554 57.550963 
L 51.416243 54.556484 
L 52.731863 51.875712 
L 53.840743 49.137902 
L 55.795378 46.314536 
L 59.648265 41.808557 
L 61.076652 40.952992 
L 62.824547 40.468171 
L 64.704004 39.897794 
L 66.86538 39.869275 
L 68.237383 39.441493 
L 70.267197 38.101107 
L 72.315805 38.186663 
L 73.913343 37.673324 
L 75.698827 36.504051 
L 77.578284 35.905155 
L 79.307385 36.01923 
" clip-path="url(#p65407c53b8)" style="fill: none; stroke: #69fff8; stroke-width: 1.4; stroke-linecap: square"/>
   </g>
   <g id="line2d_7">
    <path d="M 42.883509 65.022903 
L 42.977546 64.803485 
L 59.347552 40.382615 
L 59.425851 40.31992 
L 61.080226 39.259609 
L 61.095447 39.298898 
L 64.67531 38.199297 
L 64.797977 38.215182 
L 66.679649 38.102905 
L 66.715023 38.158144 
L 70.274734 37.090789 
L 70.304786 37.131466 
L 71.960923 36.078673 
L 72.109065 35.905155 
L 73.875754 35.990712 
L 73.997077 35.982281 
L 77.433087 34.921969 
L 77.484312 34.849958 
L 79.310166 34.873773 
L 79.344974 34.935514 
" clip-path="url(#p65407c53b8)" style="fill: none; stroke: #58d5d0; stroke-width: 1.4; stroke-linecap: square"/>
   </g>
   <g id="line2d_8">
    <path d="M 42.902303 65.022903 
L 59.253579 40.382615 
L 61.189419 37.559248 
L 63.031287 36.218862 
L 64.722799 35.990712 
L 66.451899 36.504051 
L 75.416909 33.880317 
L 77.691052 33.680685 
L 79.382563 33.252902 
" clip-path="url(#p65407c53b8)" style="fill: none; stroke: #36827f; stroke-width: 1.4; stroke-linecap: square"/>
   </g>
   <g id="line2d_9"/>
   <g id="line2d_10"/>
   <g id="line2d_11"/>
   <g id="patch_3">
    <path d="M 42.869375 65.039375 
L 42.869375 10.239375 
" style="fill: none; stroke: #000000; stroke-width: 0.8; stroke-linejoin: miter; stroke-linecap: square"/>
   </g>
   <g id="patch_4">
    <path d="M 42.869375 65.039375 
L 79.373542 65.039375 
" style="fill: none; stroke: #000000; stroke-width: 0.8; stroke-linejoin: miter; stroke-linecap: square"/>
   </g>
  </g>
  <g id="axes_2">
   <g id="patch_5">
    <path d="M 100.486042 65.039375 
L 136.990208 65.039375 
L 136.990208 10.239375 
L 100.486042 10.239375 
z
" style="fill: #ffffff"/>
   </g>
   <g id="matplotlib.axis_3">
    <g id="xtick_3">
     <g id="line2d_12">
      <g>
       <use xlink:href="#mf948000dc2" x="100.486042" y="65.039375" style="stroke: #000000; stroke-width: 0.8"/>
      </g>
     </g>
     <g id="text_8">
      <text style="font: 8px 'sans-serif'; text-anchor: middle" x="100.486042" y="80.218125" transform="rotate(-0, 100.486042, 80.218125)">0</text>
     </g>
    </g>
    <g id="xtick_4">
     <g id="line2d_13">
      <g>
       <use xlink:href="#mf948000dc2" x="136.990208" y="65.039375" style="stroke: #000000; stroke-width: 0.8"/>
      </g>
     </g>
     <g id="text_9">
      <text style="font: 8px 'sans-serif'; text-anchor: middle" x="136.990208" y="80.218125" transform="rotate(-0, 136.990208, 80.218125)">200</text>
     </g>
    </g>
    <g id="text_10">
     <text style="font: 8.8px 'sans-serif'; text-anchor: middle" x="118.738125" y="92.8185" transform="rotate(-0, 118.738125, 92.8185)">pulse_rate</text>
    </g>
   </g>
   <g id="matplotlib.axis_4">
    <g id="ytick_4">
     <g id="line2d_14">
      <g>
       <use xlink:href="#m46121a3a5a" x="100.486042" y="65.039375" style="stroke: #000000; stroke-width: 0.8"/>
      </g>
     </g>
    </g>
    <g id="ytick_5">
     <g id="line2d_15">
      <g>
       <use xlink:href="#m46121a3a5a" x="100.486042" y="37.639375" style="stroke: #000000; stroke-width: 0.8"/>
      </g>
     </g>
    </g>
    <g id="ytick_6">
     <g id="line2d_16">
      <g>
       <use xlink:href="#m46121a3a5a" x="100.486042" y="10.239375" style="stroke: #000000; stroke-width: 0.8"/>
      </g>
     </g>
    </g>
   </g>
   <g id="line2d_17">
    <path d="M 100.504294 65.039375 
L 102.424605 65.039375 
L 104.344916 65.039375 
L 106.265228 60.929375 
L 108.185539 59.559375 
L 110.10585 55.449375 
L 112.026162 53.394375 
L 113.946473 50.654375 
L 115.866784 47.914375 
L 117.787095 45.859375 
L 119.707407 43.119375 
L 121.627718 39.694375 
L 123.548029 36.954375 
L 125.468341 34.214375 
L 127.388652 31.474375 
L 129.308963 28.734375 
L 131.229274 25.994375 
L 133.149586 23.254375 
L 135.069897 19.829375 
L 136.990208 17.089375 
" clip-path="url(#p6e87c3df0f)" style="fill: none; stroke: #69fff8; stroke-width: 1.4; stroke-linecap: square"/>
   </g>
   <g id="line2d_18">
    <path d="M 100.504294 65.039375 
L 102.424605 62.299375 
L 104.344916 58.874375 
L 106.265228 56.134375 
L 108.185539 53.394375 
L 110.10585 50.654375 
L 112.026162 47.229375 
L 113.946473 44.489375 
L 115.866784 41.749375 
L 117.787095 39.009375 
L 119.707407 35.584375 
L 121.627718 30.104375 
L 123.548029 25.309375 
L 125.468341 21.884375 
L 127.388652 18.459375 
L 129.308963 14.349375 
L 131.229274 10.239375 
L 133.149586 6.814375 
L 135.069897 2.704375 
L 136.800689 -1 
" clip-path="url(#p6e87c3df0f)" style="fill: none; stroke: #58d5d0; stroke-width: 1.4; stroke-linecap: square"/>
   </g>
   <g id="line2d_19">
    <path d="M 100.504294 65.039375 
L 102.424605 62.299375 
L 104.344916 58.874375 
L 106.265228 52.024375 
L 108.185539 47.914375 
L 110.10585 41.064375 
L 112.026162 36.269375 
L 113.946473 30.104375 
L 115.866784 24.624375 
L 117.787095 19.829375 
L 119.707407 14.349375 
L 121.627718 8.184375 
L 123.548029 2.704375 
L 125.031565 -1 
" clip-path="url(#p6e87c3df0f)" style="fill: none; stroke: #36827f; stroke-width: 1.4; stroke-linecap: square"/>
   </g>
   <g id="patch_6">
    <path d="M 100.486042 65.039375 
L 100.486042 10.239375 
" style="fill: none; stroke: #000000; stroke-width: 0.8; stroke-linejoin: miter; stroke-linecap: square"/>
   </g>
   <g id="patch_7">
    <path d="M 100.486042 65.039375 
L 136.990208 65.039375 
" style="fill: none; stroke: #000000; stroke-width: 0.8; stroke-linejoin: miter; stroke-linecap: square"/>
   </g>
  </g>
  <g id="axes_3">
   <g id="patch_8">
    <path d="M 158.102708 65.039375 
L 194.606875 65.039375 
L 194.606875 10.239375 
L 158.102708 10.239375 
z
" style="fill: #ffffff"/>
   </g>
   <g id="matplotlib.axis_5">
    <g id="xtick_5">
     <g id="line2d_20">
      <g>
       <use xlink:href="#mf948000dc2" x="158.102708" y="65.039375" style="stroke: #000000; stroke-width: 0.8"/>
      </g>
     </g>
     <g id="text_11">
      <text style="font: 8px 'sans-serif'; text-anchor: middle" x="158.102708" y="80.218125" transform="rotate(-0, 158.102708, 80.218125)">0</text>
     </g>
    </g>
    <g id="xtick_6">
     <g id="line2d_21">
      <g>
       <use xlink:href="#mf948000dc2" x="194.606875" y="65.039375" style="stroke: #000000; stroke-width: 0.8"/>
      </g>
     </g>
     <g id="text_12">
      <text style="font: 8px 'sans-serif'; text-anchor: middle" x="194.606875" y="80.218125" transform="rotate(-0, 194.606875, 80.218125)">200</text>
     </g>
    </g>
    <g id="text_13">
     <text style="font: 8.8px 'sans-serif'; text-anchor: middle" x="176.354792" y="92.8185" transform="rotate(-0, 176.354792, 92.8185)">pulse_rate</text>
    </g>
   </g>
   <g id="matplotlib.axis_6">
    <g id="ytick_7">
     <g id="line2d_22">
      <g>
       <use xlink:href="#m46121a3a5a" x="158.102708" y="65.039375" style="stroke: #000000; stroke-width: 0.8"/>
      </g>
     </g>
    </g>
    <g id="ytick_8">
     <g id="line2d_23">
      <g>
       <use xlink:href="#m46121a3a5a" x="158.102708" y="37.639375" style="stroke: #000000; stroke-width: 0.8"/>
      </g>
     </g>
    </g>
    <g id="ytick_9">
     <g id="line2d_24">
      <g>
       <use xlink:href="#m46121a3a5a" x="158.102708" y="10.239375" style="stroke: #000000; stroke-width: 0.8"/>
      </g>
     </g>
    </g>
   </g>
   <g id="line2d_25">
    <path d="M 158.12096 65.039375 
L 160.041272 65.039375 
L 161.961583 62.984375 
L 163.881894 62.299375 
L 165.802206 60.929375 
L 167.722517 59.559375 
L 169.642828 58.189375 
L 171.563139 56.819375 
L 173.483451 56.134375 
L 175.403762 54.764375 
L 177.324073 53.394375 
L 179.244385 52.024375 
L 181.164696 51.339375 
L 183.085007 49.969375 
L 185.005319 49.284375 
L 186.92563 47.914375 
L 188.845941 47.229375 
L 190.766252 45.859375 
L 192.686564 45.174375 
L 194.606875 43.804375 
" clip-path="url(#p3fbcb0596f)" style="fill: none; stroke: #69fff8; stroke-width: 1.4; stroke-linecap: square"/>
   </g>
   <g id="line2d_26">
    <path d="M 158.12096 65.039375 
L 160.041272 62.299375 
L 161.961583 60.929375 
L 163.881894 59.559375 
L 165.802206 58.189375 
L 167.722517 56.819375 
L 169.642828 55.449375 
L 171.563139 54.079375 
L 173.483451 52.024375 
L 175.403762 50.654375 
L 177.324073 49.284375 
L 179.244385 47.229375 
L 181.164696 45.859375 
L 183.085007 44.489375 
L 185.005319 43.119375 
L 186.92563 41.749375 
L 188.845941 40.379375 
L 190.766252 39.009375 
L 192.686564 37.639375 
L 194.606875 36.269375 
" clip-path="url(#p3fbcb0596f)" style="fill: none; stroke: #58d5d0; stroke-width: 1.4; stroke-linecap: square"/>
   </g>
   <g id="line2d_27">
    <path d="M 158.12096 65.039375 
L 160.041272 62.299375 
L 161.961583 58.874375 
L 163.881894 56.134375 
L 165.802206 53.394375 
L 167.722517 50.654375 
L 169.642828 47.914375 
L 171.563139 45.859375 
L 173.483451 43.119375 
L 175.403762 41.064375 
L 177.324073 39.694375 
L 179.244385 37.639375 
L 181.164696 35.584375 
L 183.085007 33.529375 
L 185.005319 31.474375 
L 186.92563 29.419375 
L 188.845941 28.049375 
L 190.766252 25.994375 
L 192.686564 23.939375 
L 194.606875 22.569375 
" clip-path="url(#p3fbcb0596f)" style="fill: none; stroke: #36827f; stroke-width: 1.4; stroke-linecap: square"/>
   </g>
   <g id="patch_9">
    <path d="M 158.102708 65.039375 
L 158.102708 10.239375 
" style="fill: none; stroke: #000000; stroke-width: 0.8; stroke-linejoin: miter; stroke-linecap: square"/>
   </g>
   <g id="patch_10">
    <path d="M 158.102708 65.039375 
L 194.606875 65.039375 
" style="fill: none; stroke: #000000; stroke-width: 0.8; stroke-linejoin: miter; stroke-linecap: square"/>
   </g>
  </g>
  <g id="legend_1">
   <g id="patch_11">
    <path d="M 33.859375 123.331875 
L 174.579375 123.331875 
Q 176.179375 123.331875 176.179375 121.731875 
L 176.179375 110.539375 
Q 176.179375 108.939375 174.579375 108.939375 
L 33.859375 108.939375 
Q 32.259375 108.939375 32.259375 110.539375 
L 32.259375 121.731875 
Q 32.259375 123.331875 33.859375 123.331875 
z
" style="fill: #ffffff; opacity: 0.8; stroke: #cccccc; stroke-width: 0.24; stroke-linejoin: miter"/>
   </g>
   <g id="line2d_28">
    <path d="M 35.459375 115.418125 
L 43.459375 115.418125 
L 51.459375 115.418125 
" style="fill: none; stroke: #69fff8; stroke-width: 1.4; stroke-linecap: square"/>
   </g>
   <g id="text_14">
    <text style="font: 8px 'sans-serif'; text-anchor: start" x="57.859375" y="118.218125" transform="rotate(-0, 57.859375, 118.218125)">0.75</text>
   </g>
   <g id="line2d_29">
    <path d="M 89.681875 115.418125 
L 97.681875 115.418125 
L 105.681875 115.418125 
" style="fill: none; stroke: #58d5d0; stroke-width: 1.4; stroke-linecap: square"/>
   </g>
   <g id="text_15">
    <text style="font: 8px 'sans-serif'; text-anchor: start" x="112.081875" y="118.218125" transform="rotate(-0, 112.081875, 118.218125)">1.0</text>
   </g>
   <g id="line2d_30">
    <path d="M 139.330625 115.418125 
L 147.330625 115.418125 
L 155.330625 115.418125 
" style="fill: none; stroke: #36827f; stroke-width: 1.4; stroke-linecap: square"/>
   </g>
   <g id="text_16">
    <text style="font: 8px 'sans-serif'; text-anchor: start" x="161.730625" y="118.218125" transform="rotate(-0, 161.730625, 118.218125)">1.5</text>
   </g>
  </g>
 </g>
 <defs>
  <clipPath id="p65407c53b8">
   <rect x="42.869375" y="10.239375" width="36.504167" height="54.8"/>
  </clipPath>
  <clipPath id="p6e87c3df0f">
   <rect x="100.486042" y="10.239375" width="36.504167" height="54.8"/>
  </clipPath>
  <clipPath id="p3fbcb0596f">
   <rect x="158.102708" y="10.239375" width="36.504167" height="54.8"/>
  </clipPath>
 </defs>
</svg>
