<?xml version="1.0" encoding="utf-8" standalone="no"?>
<!DOCTYPE svg PUBLIC "-//W3C//DTD SVG 1.1//EN"
  "http://www.w3.org/Graphics/SVG/1.1/DTD/svg11.dtd">
<svg xmlns:xlink="http://www.w3.org/1999/xlink" width="216pt" height="108pt" viewBox="0 0 216 108" xmlns="http://www.w3.org/2000/svg" version="1.1">
 <metadata>
  <rdf:RDF xmlns:dc="http://purl.org/dc/elements/1.1/" xmlns:cc="http://creativecommons.org/ns#" xmlns:rdf="http://www.w3.org/1999/02/22-rdf-syntax-ns#">
   <cc:Work>
    <dc:type rdf:resource="http://purl.org/dc/dcmitype/StillImage"/>
    <dc:date>2023-10-09T12:25:00.211189</dc:date>
    <dc:format>image/svg+xml</dc:format>
    <dc:creator>
     <cc:Agent>
      <dc:title>Matplotlib v3.7.1, https://matplotlib.org/</dc:title>
     </cc:Agent>
    </dc:creator>
   </cc:Work>
  </rdf:RDF>
 </metadata>
 <defs>
  <style type="text/css">*{stroke-linejoin: round; stroke-linecap: butt}</style>
 </defs>
 <g id="figure_1">
  <g id="patch_1">
   <path d="M 0 108 
L 216 108 
L 216 0 
L 0 0 
z
" style="fill: #ffffff"/>
  </g>
  <g id="axes_1">
   <g id="patch_2">
    <path d="M 47.03 66.82 
L 112.08 66.82 
L 112.08 13.68 
L 47.03 13.68 
z
" style="fill: #ffffff"/>
   </g>
   <g id="PolyCollection_1"/>
   <g id="PolyCollection_2"/>
   <g id="PolyCollection_3"/>
   <g id="matplotlib.axis_1">
    <g id="xtick_1">
     <g id="line2d_1">
      <defs>
       <path id="m89bd677234" d="M 0 0 
L 0 3.5 
" style="stroke: #000000; stroke-width: 0.8"/>
      </defs>
      <g>
       <use xlink:href="#m89bd677234" x="47.03" y="66.82" style="stroke: #000000; stroke-width: 0.8"/>
      </g>
     </g>
     <g id="text_1">
      <text style="font: 8px 'Open Sans', sans-serif; text-anchor: middle" x="47.03" y="81.99875" transform="rotate(-0 47.03 81.99875)">0</text>
     </g>
    </g>
    <g id="xtick_2">
     <g id="line2d_2">
      <g>
       <use xlink:href="#m89bd677234" x="79.555" y="66.82" style="stroke: #000000; stroke-width: 0.8"/>
      </g>
     </g>
     <g id="text_2">
      <text style="font: 8px 'Open Sans', sans-serif; text-anchor: middle" x="79.555" y="81.99875" transform="rotate(-0 79.555 81.99875)">100</text>
     </g>
    </g>
    <g id="xtick_3">
     <g id="line2d_3">
      <g>
       <use xlink:href="#m89bd677234" x="112.08" y="66.82" style="stroke: #000000; stroke-width: 0.8"/>
      </g>
     </g>
     <g id="text_3">
      <text style="font: 8px 'Open Sans', sans-serif; text-anchor: middle" x="112.08" y="81.99875" transform="rotate(-0 112.08 81.99875)">200</text>
     </g>
    </g>
    <g id="text_4">
     <text style="font: 8.8px 'Open Sans', sans-serif; text-anchor: middle" x="79.555" y="94.599125" transform="rotate(-0 79.555 94.599125)">pulse_rate</text>
    </g>
   </g>
   <g id="matplotlib.axis_2">
    <g id="ytick_1">
     <g id="line2d_4">
      <defs>
       <path id="mb968f06125" d="M 0 0 
L -3.5 0 
" style="stroke: #000000; stroke-width: 0.8"/>
      </defs>
      <g>
       <use xlink:href="#mb968f06125" x="47.03" y="66.82" style="stroke: #000000; stroke-width: 0.8"/>
      </g>
     </g>
     <g id="text_5">
      <text style="font: 8px 'Open Sans', sans-serif; text-anchor: end" x="37.93" y="69.859375" transform="rotate(-0 37.93 69.859375)">0</text>
     </g>
    </g>
    <g id="ytick_2">
     <g id="line2d_5">
      <g>
       <use xlink:href="#mb968f06125" x="47.03" y="40.25" style="stroke: #000000; stroke-width: 0.8"/>
      </g>
     </g>
     <g id="text_6">
      <text style="font: 8px 'Open Sans', sans-serif; text-anchor: end" x="37.93" y="43.289375" transform="rotate(-0 37.93 43.289375)">100</text>
     </g>
    </g>
    <g id="ytick_3">
     <g id="line2d_6">
      <g>
       <use xlink:href="#mb968f06125" x="47.03" y="13.68" style="stroke: #000000; stroke-width: 0.8"/>
      </g>
     </g>
     <g id="text_7">
      <text style="font: 8px 'Open Sans', sans-serif; text-anchor: end" x="37.93" y="16.719375" transform="rotate(-0 37.93 16.719375)">200</text>
     </g>
    </g>
    <g id="text_8">
     <text style="font: 8.8px 'Open Sans', sans-serif; text-anchor: middle" x="18.094" y="40.25" transform="rotate(-90 18.094 40.25)">firing_rate</text>
    </g>
   </g>
   <g id="line2d_7">
    <path d="M 47.062525 66.82 
L 50.484497 66.82 
L 53.90647 64.163 
L 57.328442 58.849 
L 60.750414 56.192 
L 64.172387 53.535 
L 67.594359 48.221 
L 71.016332 42.907 
L 74.438304 38.9215 
L 77.860276 33.6075 
L 81.282249 29.622 
L 84.704221 25.6365 
L 88.126193 21.651 
L 91.548166 18.32975 
L 94.970138 14.34425 
L 98.392111 11.023 
L 101.814083 7.70175 
L 105.236055 4.3805 
L 108.658028 1.05925 
L 110.779728 -1 
" clip-path="url(#pe0047fe86c)" style="fill: none; stroke: #69fff8; stroke-width: 1.4; stroke-linecap: square"/>
   </g>
   <g id="line2d_8">
    <path d="M 47.062525 66.82 
L 50.484497 64.163 
L 53.90647 60.84175 
L 57.328442 58.18475 
L 60.750414 50.21375 
L 64.172387 42.907 
L 67.594359 36.92875 
L 71.016332 30.9505 
L 74.438304 25.6365 
L 77.860276 19.65825 
L 81.282249 13.68 
L 84.704221 9.03025 
L 88.126193 3.71625 
L 91.163242 -1 
" clip-path="url(#pe0047fe86c)" style="fill: none; stroke: #58d5d0; stroke-width: 1.4; stroke-linecap: square"/>
   </g>
   <g id="line2d_9">
    <path d="M 47.062525 66.82 
L 50.484497 61.506 
L 53.90647 54.8635 
L 57.328442 44.89975 
L 60.750414 35.60025 
L 64.172387 24.97225 
L 67.594359 17.00125 
L 71.016332 8.366 
L 74.438304 0.395 
L 74.951627 -1 
" clip-path="url(#pe0047fe86c)" style="fill: none; stroke: #36827f; stroke-width: 1.4; stroke-linecap: square"/>
   </g>
   <g id="line2d_10"/>
   <g id="line2d_11"/>
   <g id="line2d_12"/>
   <g id="patch_3">
    <path d="M 47.03 66.82 
L 47.03 13.68 
" style="fill: none; stroke: #000000; stroke-width: 0.8; stroke-linejoin: miter; stroke-linecap: square"/>
   </g>
   <g id="patch_4">
    <path d="M 47.03 66.82 
L 112.08 66.82 
" style="fill: none; stroke: #000000; stroke-width: 0.8; stroke-linejoin: miter; stroke-linecap: square"/>
   </g>
  </g>
  <g id="axes_2">
   <g id="patch_5">
    <path d="M 133.265 66.82 
L 198.315 66.82 
L 198.315 13.68 
L 133.265 13.68 
z
" style="fill: #ffffff"/>
   </g>
   <g id="PolyCollection_4"/>
   <g id="PolyCollection_5"/>
   <g id="PolyCollection_6"/>
   <g id="matplotlib.axis_3">
    <g id="xtick_4">
     <g id="line2d_13">
      <g>
       <use xlink:href="#m89bd677234" x="133.265" y="66.82" style="stroke: #000000; stroke-width: 0.8"/>
      </g>
     </g>
     <g id="text_9">
      <text style="font: 8px 'Open Sans', sans-serif; text-anchor: middle" x="133.265" y="81.99875" transform="rotate(-0 133.265 81.99875)">0</text>
     </g>
    </g>
    <g id="xtick_5">
     <g id="line2d_14">
      <g>
       <use xlink:href="#m89bd677234" x="165.79" y="66.82" style="stroke: #000000; stroke-width: 0.8"/>
      </g>
     </g>
     <g id="text_10">
      <text style="font: 8px 'Open Sans', sans-serif; text-anchor: middle" x="165.79" y="81.99875" transform="rotate(-0 165.79 81.99875)">100</text>
     </g>
    </g>
    <g id="xtick_6">
     <g id="line2d_15">
      <g>
       <use xlink:href="#m89bd677234" x="198.315" y="66.82" style="stroke: #000000; stroke-width: 0.8"/>
      </g>
     </g>
     <g id="text_11">
      <text style="font: 8px 'Open Sans', sans-serif; text-anchor: middle" x="198.315" y="81.99875" transform="rotate(-0 198.315 81.99875)">200</text>
     </g>
    </g>
    <g id="text_12">
     <text style="font: 8.8px 'Open Sans', sans-serif; text-anchor: middle" x="165.79" y="94.599125" transform="rotate(-0 165.79 94.599125)">pulse_rate</text>
    </g>
   </g>
   <g id="matplotlib.axis_4">
    <g id="ytick_4">
     <g id="line2d_16">
      <g>
       <use xlink:href="#mb968f06125" x="133.265" y="66.82" style="stroke: #000000; stroke-width: 0.8"/>
      </g>
     </g>
    </g>
    <g id="ytick_5">
     <g id="line2d_17">
      <g>
       <use xlink:href="#mb968f06125" x="133.265" y="40.25" style="stroke: #000000; stroke-width: 0.8"/>
      </g>
     </g>
    </g>
    <g id="ytick_6">
     <g id="line2d_18">
      <g>
       <use xlink:href="#mb968f06125" x="133.265" y="13.68" style="stroke: #000000; stroke-width: 0.8"/>
      </g>
     </g>
    </g>
   </g>
   <g id="line2d_19">
    <path d="M 133.297525 66.82 
L 136.719497 66.82 
L 140.14147 65.4915 
L 143.563442 64.163 
L 146.985414 63.49875 
L 150.407387 62.17025 
L 153.829359 61.506 
L 157.251332 60.1775 
L 160.673304 59.51325 
L 164.095276 58.18475 
L 167.517249 56.85625 
L 170.939221 56.192 
L 174.361193 54.8635 
L 177.783166 53.535 
L 181.205138 52.87075 
L 184.627111 51.54225 
L 188.049083 50.21375 
L 191.471055 48.88525 
L 194.893028 47.55675 
L 198.315 46.22825 
" clip-path="url(#p055bc63531)" style="fill: none; stroke: #69fff8; stroke-width: 1.4; stroke-linecap: square"/>
   </g>
   <g id="line2d_20">
    <path d="M 133.297525 66.82 
L 136.719497 64.163 
L 140.14147 63.49875 
L 143.563442 62.17025 
L 146.985414 60.84175 
L 150.407387 59.51325 
L 153.829359 58.849 
L 157.251332 56.85625 
L 160.673304 55.52775 
L 164.095276 54.19925 
L 167.517249 52.87075 
L 170.939221 51.54225 
L 174.361193 49.5495 
L 177.783166 47.55675 
L 181.205138 46.22825 
L 184.627111 44.89975 
L 188.049083 43.57125 
L 191.471055 42.24275 
L 194.893028 40.25 
L 198.315 38.25725 
" clip-path="url(#p055bc63531)" style="fill: none; stroke: #58d5d0; stroke-width: 1.4; stroke-linecap: square"/>
   </g>
   <g id="line2d_21">
    <path d="M 133.297525 66.82 
L 136.719497 63.49875 
L 140.14147 60.1775 
L 143.563442 58.849 
L 146.985414 57.5205 
L 150.407387 54.8635 
L 153.829359 53.535 
L 157.251332 50.878 
L 160.673304 48.88525 
L 164.095276 46.8925 
L 167.517249 44.2355 
L 170.939221 42.907 
L 174.361193 40.25 
L 177.783166 37.593 
L 181.205138 34.936 
L 184.627111 33.6075 
L 188.049083 30.28625 
L 191.471055 27.62925 
L 194.893028 25.6365 
L 198.315 22.9795 
" clip-path="url(#p055bc63531)" style="fill: none; stroke: #36827f; stroke-width: 1.4; stroke-linecap: square"/>
   </g>
   <g id="patch_6">
    <path d="M 133.265 66.82 
L 133.265 13.68 
" style="fill: none; stroke: #000000; stroke-width: 0.8; stroke-linejoin: miter; stroke-linecap: square"/>
   </g>
   <g id="patch_7">
    <path d="M 133.265 66.82 
L 198.315 66.82 
" style="fill: none; stroke: #000000; stroke-width: 0.8; stroke-linejoin: miter; stroke-linecap: square"/>
   </g>
  </g>
  <g id="legend_1">
   <g id="patch_8">
    <path d="M 37.64 126.3925 
L 178.36 126.3925 
Q 179.96 126.3925 179.96 124.7925 
L 179.96 113.6 
Q 179.96 112 178.36 112 
L 37.64 112 
Q 36.04 112 36.04 113.6 
L 36.04 124.7925 
Q 36.04 126.3925 37.64 126.3925 
z
" style="fill: #ffffff; opacity: 0.8; stroke: #cccccc; stroke-width: 0.24; stroke-linejoin: miter"/>
   </g>
   <g id="line2d_22">
    <path style="fill: none; stroke: #69fff8; stroke-width: 1.4; stroke-linecap: square"/>
   </g>
   <g id="text_13">
    <text style="font: 8px 'Open Sans', sans-serif; text-anchor: start" x="61.64" y="121.27875" transform="rotate(-0 61.64 121.27875)">0.75</text>
   </g>
   <g id="line2d_23">
    <path style="fill: none; stroke: #58d5d0; stroke-width: 1.4; stroke-linecap: square"/>
   </g>
   <g id="text_14">
    <text style="font: 8px 'Open Sans', sans-serif; text-anchor: start" x="115.8625" y="121.27875" transform="rotate(-0 115.8625 121.27875)">1.0</text>
   </g>
   <g id="line2d_24">
    <path style="fill: none; stroke: #36827f; stroke-width: 1.4; stroke-linecap: square"/>
   </g>
   <g id="text_15">
    <text style="font: 8px 'Open Sans', sans-serif; text-anchor: start" x="165.51125" y="121.27875" transform="rotate(-0 165.51125 121.27875)">1.5</text>
   </g>
  </g>
 </g>
 <defs>
  <clipPath id="pe0047fe86c">
   <rect x="47.03" y="13.68" width="65.05" height="53.14"/>
  </clipPath>
  <clipPath id="p055bc63531">
   <rect x="133.265" y="13.68" width="65.05" height="53.14"/>
  </clipPath>
 </defs>
</svg>
