<?xml version="1.0" encoding="utf-8" standalone="no"?>
<!DOCTYPE svg PUBLIC "-//W3C//DTD SVG 1.1//EN"
  "http://www.w3.org/Graphics/SVG/1.1/DTD/svg11.dtd">
<svg xmlns:xlink="http://www.w3.org/1999/xlink" width="179.252107pt" height="138.605074pt" viewBox="0 0 179.252107 138.605074" xmlns="http://www.w3.org/2000/svg" version="1.1">
 <metadata>
  <rdf:RDF xmlns:dc="http://purl.org/dc/elements/1.1/" xmlns:cc="http://creativecommons.org/ns#" xmlns:rdf="http://www.w3.org/1999/02/22-rdf-syntax-ns#">
   <cc:Work>
    <dc:type rdf:resource="http://purl.org/dc/dcmitype/StillImage"/>
    <dc:date>2022-04-20T11:06:34.524682</dc:date>
    <dc:format>image/svg+xml</dc:format>
    <dc:creator>
     <cc:Agent>
      <dc:title>Matplotlib v3.5.1, https://matplotlib.org/</dc:title>
     </cc:Agent>
    </dc:creator>
   </cc:Work>
  </rdf:RDF>
 </metadata>
 <defs>
  <style type="text/css">*{stroke-linejoin: round; stroke-linecap: butt}</style>
 </defs>
 <g id="figure_1">
  <g id="patch_1">
   <path d="M 0 138.605074 
L 179.252107 138.605074 
L 179.252107 0 
L 0 0 
L 0 138.605074 
z
" style="fill: none"/>
  </g>
  <g id="axes_1">
   <g id="patch_2">
    <path d="M 53.302325 43.963176 
L 170.482325 43.963176 
L 170.482325 19.980824 
L 53.302325 19.980824 
z
" style="fill: #ffffff"/>
   </g>
   <g id="matplotlib.axis_1">
    <g id="xtick_1">
     <g id="line2d_1">
      <defs>
       <path id="m7c28e83faa" d="M 0 0 
L 0 3.5 
" style="stroke: #000000; stroke-width: 0.8"/>
      </defs>
      <g>
       <use xlink:href="#m7c28e83faa" x="58.628689" y="43.963176" style="stroke: #000000; stroke-width: 0.8"/>
      </g>
     </g>
    </g>
    <g id="xtick_2">
     <g id="line2d_2">
      <g>
       <use xlink:href="#m7c28e83faa" x="94.14962" y="43.963176" style="stroke: #000000; stroke-width: 0.8"/>
      </g>
     </g>
    </g>
    <g id="xtick_3">
     <g id="line2d_3">
      <g>
       <use xlink:href="#m7c28e83faa" x="129.670551" y="43.963176" style="stroke: #000000; stroke-width: 0.8"/>
      </g>
     </g>
    </g>
    <g id="xtick_4">
     <g id="line2d_4">
      <g>
       <use xlink:href="#m7c28e83faa" x="165.191482" y="43.963176" style="stroke: #000000; stroke-width: 0.8"/>
      </g>
     </g>
    </g>
   </g>
   <g id="matplotlib.axis_2">
    <g id="ytick_1">
     <g id="line2d_5">
      <defs>
       <path id="m07382f98e4" d="M 0 0 
L -3.5 0 
" style="stroke: #000000; stroke-width: 0.8"/>
      </defs>
      <g>
       <use xlink:href="#m07382f98e4" x="53.302325" y="42.87307" style="stroke: #000000; stroke-width: 0.8"/>
      </g>
     </g>
     <g id="text_1">
      <text style="font: 8px 'sans-serif'; text-anchor: end" x="44.202325" y="45.912445" transform="rotate(-0, 44.202325, 45.912445)">0</text>
     </g>
    </g>
    <g id="ytick_2">
     <g id="line2d_6">
      <g>
       <use xlink:href="#m07382f98e4" x="53.302325" y="21.062206" style="stroke: #000000; stroke-width: 0.8"/>
      </g>
     </g>
     <g id="text_2">
      <text style="font: 8px 'sans-serif'; text-anchor: end" x="44.202325" y="24.101581" transform="rotate(-0, 44.202325, 24.101581)">1</text>
     </g>
    </g>
    <g id="text_3">
     <!-- $\phi$ -->
     <g transform="translate(21.80185 34.876)rotate(-90)">
      <text>
       <tspan style="font: oblique 8.8px 'DejaVu Sans'" x="0" y="-0.15625">ϕ</tspan>
      </text>
     </g>
     <!-- (ph./mm$^2$/s) -->
     <g transform="translate(33.516575 56.744)rotate(-90)">
      <text>
       <tspan style="font: 8.8px 'Open Sans'" x="0 2.580566 7.93396 13.300171 15.598755 18.807373 26.907959 39.237683 42.446301 46.616223" y="-0.8734375000000014">(ph./mm/s)</tspan>
       <tspan style="font: 6.16px 'DejaVu Sans'" x="35.094678" y="-4.318750000000001">2</tspan>
      </text>
     </g>
    </g>
    <g id="text_4">
     <text style="font: 8px 'sans-serif'; text-anchor: start" x="53.302325" y="16.980824" transform="rotate(-0, 53.302325, 16.980824)">1e18</text>
    </g>
   </g>
   <g id="line2d_7">
    <path d="M 58.628689 42.87307 
L 59.090461 42.768377 
L 147.431017 21.07093 
L 147.5731 42.87307 
L 165.155961 42.87307 
L 165.155961 42.87307 
" clip-path="url(#pc7eb604e48)" style="fill: none; stroke: #000000; stroke-width: 1.4; stroke-linecap: square"/>
   </g>
   <g id="line2d_8">
    <path d="M 58.628689 42.87307 
L 63.175368 42.76227 
L 147.431017 40.692856 
L 147.5731 42.87307 
L 165.155961 42.87307 
L 165.155961 42.87307 
" clip-path="url(#pc7eb604e48)" style="fill: none; stroke: #939393; stroke-width: 1.4; stroke-linecap: square"/>
   </g>
   <g id="line2d_9">
    <path d="M 58.628689 42.87307 
L 103.882355 42.762009 
L 147.431017 42.655048 
L 147.5731 42.87307 
L 165.155961 42.87307 
L 165.155961 42.87307 
" clip-path="url(#pc7eb604e48)" style="fill: none; stroke: #dddddd; stroke-width: 1.4; stroke-linecap: square"/>
   </g>
   <g id="patch_3">
    <path d="M 53.302325 43.963176 
L 53.302325 19.980824 
" style="fill: none; stroke: #000000; stroke-width: 0.8; stroke-linejoin: miter; stroke-linecap: square"/>
   </g>
   <g id="patch_4">
    <path d="M 53.302325 43.963176 
L 170.482325 43.963176 
" style="fill: none; stroke: #000000; stroke-width: 0.8; stroke-linejoin: miter; stroke-linecap: square"/>
   </g>
  </g>
  <g id="axes_2">
   <g id="patch_5">
    <path d="M 53.302325 101.520824 
L 170.482325 101.520824 
L 170.482325 48.759647 
L 53.302325 48.759647 
z
" style="fill: #ffffff"/>
   </g>
   <g id="matplotlib.axis_3">
    <g id="xtick_5">
     <g id="line2d_10">
      <g>
       <use xlink:href="#m7c28e83faa" x="58.628689" y="101.520824" style="stroke: #000000; stroke-width: 0.8"/>
      </g>
     </g>
     <g id="text_5">
      <text style="font: 8px 'sans-serif'; text-anchor: middle" x="58.628689" y="116.699574" transform="rotate(-0, 58.628689, 116.699574)">0</text>
     </g>
    </g>
    <g id="xtick_6">
     <g id="line2d_11">
      <g>
       <use xlink:href="#m7c28e83faa" x="94.14962" y="101.520824" style="stroke: #000000; stroke-width: 0.8"/>
      </g>
     </g>
     <g id="text_6">
      <text style="font: 8px 'sans-serif'; text-anchor: middle" x="94.14962" y="116.699574" transform="rotate(-0, 94.14962, 116.699574)">100</text>
     </g>
    </g>
    <g id="xtick_7">
     <g id="line2d_12">
      <g>
       <use xlink:href="#m7c28e83faa" x="129.670551" y="101.520824" style="stroke: #000000; stroke-width: 0.8"/>
      </g>
     </g>
     <g id="text_7">
      <text style="font: 8px 'sans-serif'; text-anchor: middle" x="129.670551" y="116.699574" transform="rotate(-0, 129.670551, 116.699574)">200</text>
     </g>
    </g>
    <g id="xtick_8">
     <g id="line2d_13">
      <g>
       <use xlink:href="#m7c28e83faa" x="165.191482" y="101.520824" style="stroke: #000000; stroke-width: 0.8"/>
      </g>
     </g>
     <g id="text_8">
      <text style="font: 8px 'sans-serif'; text-anchor: middle" x="165.191482" y="116.699574" transform="rotate(-0, 165.191482, 116.699574)">300</text>
     </g>
    </g>
    <g id="text_9">
     <text style="font: 8.8px 'sans-serif'; text-anchor: middle" x="111.892325" y="129.299949" transform="rotate(-0, 111.892325, 129.299949)">Time (ms)</text>
    </g>
   </g>
   <g id="matplotlib.axis_4">
    <g id="ytick_3">
     <g id="line2d_14">
      <g>
       <use xlink:href="#m07382f98e4" x="53.302325" y="92.145969" style="stroke: #000000; stroke-width: 0.8"/>
      </g>
     </g>
     <g id="text_10">
      <text style="font: 8px 'sans-serif'; text-anchor: end" x="44.202325" y="95.185344" transform="rotate(-0, 44.202325, 95.185344)">−10</text>
     </g>
    </g>
    <g id="ytick_4">
     <g id="line2d_15">
      <g>
       <use xlink:href="#m07382f98e4" x="53.302325" y="71.651926" style="stroke: #000000; stroke-width: 0.8"/>
      </g>
     </g>
     <g id="text_11">
      <text style="font: 8px 'sans-serif'; text-anchor: end" x="44.202325" y="74.691301" transform="rotate(-0, 44.202325, 74.691301)">−5</text>
     </g>
    </g>
    <g id="ytick_5">
     <g id="line2d_16">
      <g>
       <use xlink:href="#m07382f98e4" x="53.302325" y="51.157882" style="stroke: #000000; stroke-width: 0.8"/>
      </g>
     </g>
     <g id="text_12">
      <text style="font: 8px 'sans-serif'; text-anchor: end" x="44.202325" y="54.197257" transform="rotate(-0, 44.202325, 54.197257)">0</text>
     </g>
    </g>
    <g id="text_13">
     <!-- $I_{opto}$ -->
     <g transform="translate(13.624 83.500235)rotate(-90)">
      <text>
       <tspan style="font: oblique 8.8px 'DejaVu Sans'" x="0" y="-0.4375">I</tspan>
       <tspan style="font: oblique 6.16px 'DejaVu Sans'" x="2.580566 6.327942 10.215881 12.617432" y="1.0390625">opto</tspan>
      </text>
     </g>
     <text style="font: 8.8px 'sans-serif'" transform="translate(24.37595 83.216985)rotate(-90)">(nA)</text>
    </g>
   </g>
   <g id="line2d_17">
    <path d="M 58.628689 51.157882 
L 58.69973 51.157882 
L 58.806293 51.863695 
L 59.019419 55.354053 
L 59.481191 67.788536 
L 60.262651 87.866021 
L 60.724424 94.676274 
L 61.115154 97.689066 
L 61.434842 98.810481 
L 61.71901 99.118172 
L 61.932135 99.055596 
L 62.216303 98.706861 
L 62.713596 97.661241 
L 63.779224 94.734558 
L 65.946 88.849513 
L 67.331317 85.740945 
L 68.574549 83.472515 
L 69.74674 81.774604 
L 70.88341 80.503634 
L 72.02008 79.558556 
L 73.19227 78.873549 
L 74.435503 78.408295 
L 75.820819 78.133478 
L 77.454782 78.042696 
L 79.621559 78.157991 
L 83.599903 78.637185 
L 90.206796 79.389493 
L 96.351918 79.841614 
L 104.521732 80.204209 
L 116.634369 80.500991 
L 136.241923 80.736477 
L 147.466538 80.812338 
L 148.247998 73.999149 
L 149.029459 68.99864 
L 149.84644 65.170136 
L 150.663421 62.370354 
L 151.515924 60.231054 
L 152.403947 58.604005 
L 153.327491 57.36735 
L 154.357598 56.364149 
L 155.529789 55.544112 
L 156.915105 54.855484 
L 158.655631 54.247014 
L 161.000012 53.674659 
L 164.303459 53.110461 
L 165.155961 52.992488 
L 165.155961 52.992488 
" clip-path="url(#pe2810d53ea)" style="fill: none; stroke: #000000; stroke-width: 1.4; stroke-linecap: square"/>
   </g>
   <g id="line2d_18">
    <path d="M 58.628689 51.157882 
L 58.806293 51.26291 
L 59.019419 51.804226 
L 59.374628 53.428656 
L 59.942963 57.234995 
L 62.607033 76.674282 
L 63.352972 80.033892 
L 64.02787 82.159971 
L 64.667247 83.492883 
L 65.271103 84.257196 
L 65.839438 84.62923 
L 66.407773 84.739525 
L 67.047149 84.627071 
L 67.82861 84.246701 
L 68.894238 83.454988 
L 70.634763 81.842603 
L 74.648629 78.08378 
L 76.815405 76.397446 
L 78.875619 75.073896 
L 80.971354 73.993104 
L 83.138131 73.12496 
L 85.482513 72.426285 
L 88.075541 71.888262 
L 91.059299 71.502696 
L 94.611392 71.277396 
L 99.051508 71.229823 
L 105.090067 71.402557 
L 114.787281 71.928575 
L 147.466538 73.997809 
L 148.247998 69.15509 
L 149.06498 65.436146 
L 149.881961 62.705857 
L 150.734463 60.609283 
L 151.622487 59.004546 
L 152.581552 57.734693 
L 153.611659 56.737873 
L 154.783849 55.911361 
L 156.204687 55.189376 
L 157.980733 54.544644 
L 160.360636 53.928358 
L 163.664082 53.316364 
L 165.155961 53.09585 
L 165.155961 53.09585 
" clip-path="url(#pe2810d53ea)" style="fill: none; stroke: #939393; stroke-width: 1.4; stroke-linecap: square"/>
   </g>
   <g id="line2d_19">
    <path d="M 58.628689 51.157882 
L 59.019419 51.253504 
L 59.516712 51.627992 
L 60.227131 52.473194 
L 61.328279 54.185841 
L 66.159126 62.118057 
L 67.757568 64.140723 
L 69.320489 65.763146 
L 70.847889 67.035633 
L 72.41081 68.053769 
L 74.044773 68.85318 
L 75.785298 69.454039 
L 77.667908 69.865862 
L 79.799164 70.097003 
L 82.250108 70.132901 
L 85.304908 69.944708 
L 89.673983 69.430771 
L 103.207457 67.714123 
L 109.210495 67.251274 
L 115.639783 66.983368 
L 123.241263 66.898343 
L 133.506812 67.022728 
L 147.502059 67.197363 
L 148.31904 63.906208 
L 149.136021 61.48819 
L 149.988524 59.629666 
L 150.876547 58.205432 
L 151.835612 57.076695 
L 152.90124 56.162901 
L 154.144473 55.394654 
L 155.671873 54.724152 
L 157.625524 54.120342 
L 160.325115 53.533798 
L 164.090333 52.956487 
L 165.155961 52.824551 
L 165.155961 52.824551 
" clip-path="url(#pe2810d53ea)" style="fill: none; stroke: #dddddd; stroke-width: 1.4; stroke-linecap: square"/>
   </g>
   <g id="patch_6">
    <path d="M 53.302325 101.520824 
L 53.302325 48.759647 
" style="fill: none; stroke: #000000; stroke-width: 0.8; stroke-linejoin: miter; stroke-linecap: square"/>
   </g>
   <g id="patch_7">
    <path d="M 53.302325 101.520824 
L 170.482325 101.520824 
" style="fill: none; stroke: #000000; stroke-width: 0.8; stroke-linejoin: miter; stroke-linecap: square"/>
   </g>
  </g>
 </g>
 <defs>
  <clipPath id="pc7eb604e48">
   <rect x="53.302325" y="19.980824" width="117.18" height="23.982353"/>
  </clipPath>
  <clipPath id="pe2810d53ea">
   <rect x="53.302325" y="48.759647" width="117.18" height="52.761176"/>
  </clipPath>
 </defs>
</svg>
