<?xml version="1.0" encoding="utf-8" standalone="no"?>
<!DOCTYPE svg PUBLIC "-//W3C//DTD SVG 1.1//EN"
  "http://www.w3.org/Graphics/SVG/1.1/DTD/svg11.dtd">
<svg xmlns:xlink="http://www.w3.org/1999/xlink" width="210.70875pt" height="129.479125pt" viewBox="0 0 210.70875 129.479125" xmlns="http://www.w3.org/2000/svg" version="1.1">
 <metadata>
  <rdf:RDF xmlns:dc="http://purl.org/dc/elements/1.1/" xmlns:cc="http://creativecommons.org/ns#" xmlns:rdf="http://www.w3.org/1999/02/22-rdf-syntax-ns#">
   <cc:Work>
    <dc:type rdf:resource="http://purl.org/dc/dcmitype/StillImage"/>
    <dc:date>2023-10-09T12:00:34.361528</dc:date>
    <dc:format>image/svg+xml</dc:format>
    <dc:creator>
     <cc:Agent>
      <dc:title>Matplotlib v3.7.1, https://matplotlib.org/</dc:title>
     </cc:Agent>
    </dc:creator>
   </cc:Work>
  </rdf:RDF>
 </metadata>
 <defs>
  <style type="text/css">*{stroke-linejoin: round; stroke-linecap: butt}</style>
 </defs>
 <g id="figure_1">
  <g id="patch_1">
   <path d="M 0 129.479125 
L 210.70875 129.479125 
L 210.70875 0 
L 0 0 
z
" style="fill: #ffffff"/>
  </g>
  <g id="axes_1">
   <g id="patch_2">
    <path d="M 42.869375 76.066625 
L 79.174375 76.066625 
L 79.174375 19.886625 
L 42.869375 19.886625 
z
" style="fill: #ffffff"/>
   </g>
   <g id="PolyCollection_1"/>
   <g id="PolyCollection_2"/>
   <g id="PolyCollection_3"/>
   <g id="matplotlib.axis_1">
    <g id="xtick_1">
     <g id="line2d_1">
      <defs>
       <path id="mbd27a88549" d="M 0 0 
L 0 3.5 
" style="stroke: #000000; stroke-width: 0.8"/>
      </defs>
      <g>
       <use xlink:href="#mbd27a88549" x="42.869375" y="76.066625" style="stroke: #000000; stroke-width: 0.8"/>
      </g>
     </g>
     <g id="text_1">
      <text style="font: 8px 'Open Sans', sans-serif; text-anchor: middle" x="42.869375" y="91.245375" transform="rotate(-0 42.869375 91.245375)">0</text>
     </g>
    </g>
    <g id="xtick_2">
     <g id="line2d_2">
      <g>
       <use xlink:href="#mbd27a88549" x="79.174375" y="76.066625" style="stroke: #000000; stroke-width: 0.8"/>
      </g>
     </g>
     <g id="text_2">
      <text style="font: 8px 'Open Sans', sans-serif; text-anchor: middle" x="79.174375" y="91.245375" transform="rotate(-0 79.174375 91.245375)">200</text>
     </g>
    </g>
   </g>
   <g id="matplotlib.axis_2">
    <g id="ytick_1">
     <g id="line2d_3">
      <defs>
       <path id="m4423faf4a5" d="M 0 0 
L -3.5 0 
" style="stroke: #000000; stroke-width: 0.8"/>
      </defs>
      <g>
       <use xlink:href="#m4423faf4a5" x="42.869375" y="76.066625" style="stroke: #000000; stroke-width: 0.8"/>
      </g>
     </g>
     <g id="text_3">
      <text style="font: 8px 'Open Sans', sans-serif; text-anchor: end" x="33.769375" y="79.106" transform="rotate(-0 33.769375 79.106)">0</text>
     </g>
    </g>
    <g id="ytick_2">
     <g id="line2d_4">
      <g>
       <use xlink:href="#m4423faf4a5" x="42.869375" y="47.976625" style="stroke: #000000; stroke-width: 0.8"/>
      </g>
     </g>
     <g id="text_4">
      <text style="font: 8px 'Open Sans', sans-serif; text-anchor: end" x="33.769375" y="51.016" transform="rotate(-0 33.769375 51.016)">100</text>
     </g>
    </g>
    <g id="ytick_3">
     <g id="line2d_5">
      <g>
       <use xlink:href="#m4423faf4a5" x="42.869375" y="19.886625" style="stroke: #000000; stroke-width: 0.8"/>
      </g>
     </g>
     <g id="text_5">
      <text style="font: 8px 'Open Sans', sans-serif; text-anchor: end" x="33.769375" y="22.926" transform="rotate(-0 33.769375 22.926)">200</text>
     </g>
    </g>
    <g id="text_6">
     <text style="font: 8.8px 'Open Sans', sans-serif; text-anchor: middle" x="13.933375" y="47.976625" transform="rotate(-90 13.933375 47.976625)">firing_rate</text>
    </g>
   </g>
   <g id="line2d_6">
    <path d="M 43.008597 76.022433 
L 44.812152 75.923614 
L 47.501665 75.133059 
L 48.57747 74.589552 
L 50.03297 73.35431 
L 51.330265 71.476742 
L 51.963091 70.389729 
L 53.228744 65.844037 
L 53.735005 63.719421 
L 55.601843 59.766646 
L 58.797617 55.122135 
L 61.04415 52.997519 
L 63.512174 52.206964 
L 64.682903 51.762277 
L 66.549741 50.724673 
L 68.131807 50.230576 
L 70.220134 48.945924 
L 71.201015 48.797695 
L 74.934691 47.611863 
L 79.142987 46.327211 
" clip-path="url(#p4383c8c3fb)" style="fill: none; stroke: #df87e1; stroke-width: 1.4; stroke-linecap: square"/>
   </g>
   <g id="line2d_7">
    <path d="M 42.883431 76.049738 
L 42.976955 75.824794 
L 59.257647 50.788946 
L 59.335519 50.724673 
L 60.980868 49.63766 
L 60.996005 49.677939 
L 64.556337 48.550647 
L 64.678334 48.566932 
L 66.549741 48.451828 
L 66.584921 48.508458 
L 70.12521 47.414224 
L 70.155098 47.455925 
L 71.8022 46.376621 
L 71.949533 46.198733 
L 73.706583 46.286444 
L 73.827245 46.277801 
L 77.244507 45.190788 
L 77.295452 45.116963 
L 79.111345 45.141379 
L 79.145963 45.204674 
" clip-path="url(#p4383c8c3fb)" style="fill: none; stroke: #af43ca; stroke-width: 1.4; stroke-linecap: square"/>
   </g>
   <g id="line2d_8">
    <path d="M 42.913673 75.874204 
L 60.537889 48.797695 
L 62.056673 47.513044 
L 63.733663 46.870718 
L 65.125881 46.673079 
L 67.24585 46.673079 
L 68.258372 46.623669 
L 69.618949 46.178982 
L 72.27682 45.289608 
L 73.700679 45.042559 
L 74.966332 44.99315 
L 75.757365 44.89433 
L 77.560921 44.301414 
L 79.048063 43.856727 
" clip-path="url(#p4383c8c3fb)" style="fill: none; stroke: #8000b4; stroke-width: 1.4; stroke-linecap: square"/>
   </g>
   <g id="line2d_9"/>
   <g id="line2d_10"/>
   <g id="line2d_11"/>
   <g id="patch_3">
    <path d="M 42.869375 76.066625 
L 42.869375 19.886625 
" style="fill: none; stroke: #000000; stroke-width: 0.8; stroke-linejoin: miter; stroke-linecap: square"/>
   </g>
   <g id="patch_4">
    <path d="M 42.869375 76.066625 
L 79.174375 76.066625 
" style="fill: none; stroke: #000000; stroke-width: 0.8; stroke-linejoin: miter; stroke-linecap: square"/>
   </g>
   <g id="text_7">
    <text style="font: 8.8px 'Open Sans', sans-serif; text-anchor: middle" x="61.021875" y="13.886625" transform="rotate(-0 61.021875 13.886625)">MCHH_Markov</text>
   </g>
  </g>
  <g id="axes_2">
   <g id="patch_5">
    <path d="M 100.359375 76.066625 
L 136.664375 76.066625 
L 136.664375 19.886625 
L 100.359375 19.886625 
z
" style="fill: #ffffff"/>
   </g>
   <g id="PolyCollection_4"/>
   <g id="PolyCollection_5"/>
   <g id="PolyCollection_6"/>
   <g id="matplotlib.axis_3">
    <g id="xtick_3">
     <g id="line2d_12">
      <g>
       <use xlink:href="#mbd27a88549" x="100.359375" y="76.066625" style="stroke: #000000; stroke-width: 0.8"/>
      </g>
     </g>
     <g id="text_8">
      <text style="font: 8px 'Open Sans', sans-serif; text-anchor: middle" x="100.359375" y="91.245375" transform="rotate(-0 100.359375 91.245375)">0</text>
     </g>
    </g>
    <g id="xtick_4">
     <g id="line2d_13">
      <g>
       <use xlink:href="#mbd27a88549" x="136.664375" y="76.066625" style="stroke: #000000; stroke-width: 0.8"/>
      </g>
     </g>
     <g id="text_9">
      <text style="font: 8px 'Open Sans', sans-serif; text-anchor: middle" x="136.664375" y="91.245375" transform="rotate(-0 136.664375 91.245375)">200</text>
     </g>
    </g>
   </g>
   <g id="matplotlib.axis_4">
    <g id="ytick_4">
     <g id="line2d_14">
      <g>
       <use xlink:href="#m4423faf4a5" x="100.359375" y="76.066625" style="stroke: #000000; stroke-width: 0.8"/>
      </g>
     </g>
    </g>
    <g id="ytick_5">
     <g id="line2d_15">
      <g>
       <use xlink:href="#m4423faf4a5" x="100.359375" y="47.976625" style="stroke: #000000; stroke-width: 0.8"/>
      </g>
     </g>
    </g>
    <g id="ytick_6">
     <g id="line2d_16">
      <g>
       <use xlink:href="#m4423faf4a5" x="100.359375" y="19.886625" style="stroke: #000000; stroke-width: 0.8"/>
      </g>
     </g>
    </g>
   </g>
   <g id="line2d_17">
    <path d="M 100.377527 76.066625 
L 102.287362 73.959875 
L 104.197196 70.448625 
L 106.10703 67.639625 
L 108.016864 66.235125 
L 109.926698 62.021625 
L 111.836532 60.617125 
L 113.746366 57.105875 
L 115.6562 54.296875 
L 117.566034 50.785625 
L 119.475868 48.678875 
L 121.385702 45.167625 
L 123.295536 43.060875 
L 125.205371 39.549625 
L 127.115205 36.038375 
L 129.025039 33.229375 
L 130.934873 30.420375 
L 132.844707 26.909125 
L 134.754541 24.100125 
L 136.664375 19.886625 
" clip-path="url(#pb6ada129cf)" style="fill: none; stroke: #df87e1; stroke-width: 1.4; stroke-linecap: square"/>
   </g>
   <g id="line2d_18">
    <path d="M 100.377527 76.066625 
L 102.287362 73.257625 
L 104.197196 69.746375 
L 106.10703 66.937375 
L 108.016864 64.128375 
L 109.926698 61.319375 
L 111.836532 57.808125 
L 113.746366 54.999125 
L 115.6562 52.190125 
L 117.566034 49.381125 
L 119.475868 44.465375 
L 121.385702 40.251875 
L 123.295536 36.038375 
L 125.205371 31.824875 
L 127.115205 27.611375 
L 129.025039 24.100125 
L 130.934873 19.886625 
L 132.844707 15.673125 
L 134.754541 12.161875 
L 136.664375 7.948375 
" clip-path="url(#pb6ada129cf)" style="fill: none; stroke: #af43ca; stroke-width: 1.4; stroke-linecap: square"/>
   </g>
   <g id="line2d_19">
    <path d="M 100.377527 76.066625 
L 102.287362 73.257625 
L 104.197196 69.746375 
L 106.10703 66.937375 
L 108.016864 64.128375 
L 109.926698 61.319375 
L 111.836532 57.105875 
L 113.746366 50.785625 
L 115.6562 46.572125 
L 117.566034 40.954125 
L 119.475868 36.740625 
L 121.385702 32.527125 
L 123.295536 27.611375 
L 125.205371 23.397875 
L 127.115205 18.482125 
L 129.025039 14.268625 
L 130.934873 9.352875 
L 132.844707 5.139375 
L 134.754541 0.223625 
L 135.309168 -1 
" clip-path="url(#pb6ada129cf)" style="fill: none; stroke: #8000b4; stroke-width: 1.4; stroke-linecap: square"/>
   </g>
   <g id="patch_6">
    <path d="M 100.359375 76.066625 
L 100.359375 19.886625 
" style="fill: none; stroke: #000000; stroke-width: 0.8; stroke-linejoin: miter; stroke-linecap: square"/>
   </g>
   <g id="patch_7">
    <path d="M 100.359375 76.066625 
L 136.664375 76.066625 
" style="fill: none; stroke: #000000; stroke-width: 0.8; stroke-linejoin: miter; stroke-linecap: square"/>
   </g>
   <g id="text_10">
    <text style="font: 8.8px 'Open Sans', sans-serif; text-anchor: middle" x="118.511875" y="13.886625" transform="rotate(-0 118.511875 13.886625)">LIF_simple</text>
   </g>
  </g>
  <g id="axes_3">
   <g id="patch_8">
    <path d="M 157.849375 76.066625 
L 194.154375 76.066625 
L 194.154375 19.886625 
L 157.849375 19.886625 
z
" style="fill: #ffffff"/>
   </g>
   <g id="PolyCollection_7"/>
   <g id="PolyCollection_8"/>
   <g id="PolyCollection_9"/>
   <g id="matplotlib.axis_5">
    <g id="xtick_5">
     <g id="line2d_20">
      <g>
       <use xlink:href="#mbd27a88549" x="157.849375" y="76.066625" style="stroke: #000000; stroke-width: 0.8"/>
      </g>
     </g>
     <g id="text_11">
      <text style="font: 8px 'Open Sans', sans-serif; text-anchor: middle" x="157.849375" y="91.245375" transform="rotate(-0 157.849375 91.245375)">0</text>
     </g>
    </g>
    <g id="xtick_6">
     <g id="line2d_21">
      <g>
       <use xlink:href="#mbd27a88549" x="194.154375" y="76.066625" style="stroke: #000000; stroke-width: 0.8"/>
      </g>
     </g>
     <g id="text_12">
      <text style="font: 8px 'Open Sans', sans-serif; text-anchor: middle" x="194.154375" y="91.245375" transform="rotate(-0 194.154375 91.245375)">200</text>
     </g>
    </g>
   </g>
   <g id="matplotlib.axis_6">
    <g id="ytick_7">
     <g id="line2d_22">
      <g>
       <use xlink:href="#m4423faf4a5" x="157.849375" y="76.066625" style="stroke: #000000; stroke-width: 0.8"/>
      </g>
     </g>
    </g>
    <g id="ytick_8">
     <g id="line2d_23">
      <g>
       <use xlink:href="#m4423faf4a5" x="157.849375" y="47.976625" style="stroke: #000000; stroke-width: 0.8"/>
      </g>
     </g>
    </g>
    <g id="ytick_9">
     <g id="line2d_24">
      <g>
       <use xlink:href="#m4423faf4a5" x="157.849375" y="19.886625" style="stroke: #000000; stroke-width: 0.8"/>
      </g>
     </g>
    </g>
   </g>
   <g id="line2d_25">
    <path d="M 157.867527 76.066625 
L 159.777362 74.662125 
L 161.687196 73.257625 
L 163.59703 71.150875 
L 165.506864 69.746375 
L 167.416698 68.341875 
L 169.326532 66.937375 
L 171.236366 65.532875 
L 173.1462 64.128375 
L 175.056034 62.723875 
L 176.965868 61.319375 
L 178.875702 59.914875 
L 180.785536 58.510375 
L 182.695371 57.105875 
L 184.605205 55.701375 
L 186.515039 54.296875 
L 188.424873 53.594625 
L 190.334707 52.190125 
L 192.244541 50.785625 
L 194.154375 50.083375 
" clip-path="url(#p7b37f5732c)" style="fill: none; stroke: #df87e1; stroke-width: 1.4; stroke-linecap: square"/>
   </g>
   <g id="line2d_26">
    <path d="M 157.867527 76.066625 
L 159.777362 73.257625 
L 161.687196 71.853125 
L 163.59703 70.448625 
L 165.506864 69.044125 
L 167.416698 66.937375 
L 169.326532 65.532875 
L 171.236366 64.128375 
L 173.1462 62.021625 
L 175.056034 60.617125 
L 176.965868 58.510375 
L 178.875702 57.105875 
L 180.785536 55.701375 
L 182.695371 54.296875 
L 184.605205 52.892375 
L 186.515039 51.487875 
L 188.424873 50.083375 
L 190.334707 49.381125 
L 192.244541 47.976625 
L 194.154375 46.572125 
" clip-path="url(#p7b37f5732c)" style="fill: none; stroke: #af43ca; stroke-width: 1.4; stroke-linecap: square"/>
   </g>
   <g id="line2d_27">
    <path d="M 157.867527 76.066625 
L 159.777362 73.257625 
L 161.687196 70.448625 
L 163.59703 69.044125 
L 165.506864 67.639625 
L 167.416698 65.532875 
L 169.326532 64.128375 
L 171.236366 62.021625 
L 173.1462 60.617125 
L 175.056034 58.510375 
L 176.965868 56.403625 
L 178.875702 54.999125 
L 180.785536 53.594625 
L 182.695371 52.190125 
L 184.605205 50.083375 
L 186.515039 49.381125 
L 188.424873 47.976625 
L 190.334707 45.869875 
L 192.244541 45.167625 
L 194.154375 43.763125 
" clip-path="url(#p7b37f5732c)" style="fill: none; stroke: #8000b4; stroke-width: 1.4; stroke-linecap: square"/>
   </g>
   <g id="patch_9">
    <path d="M 157.849375 76.066625 
L 157.849375 19.886625 
" style="fill: none; stroke: #000000; stroke-width: 0.8; stroke-linejoin: miter; stroke-linecap: square"/>
   </g>
   <g id="patch_10">
    <path d="M 157.849375 76.066625 
L 194.154375 76.066625 
" style="fill: none; stroke: #000000; stroke-width: 0.8; stroke-linejoin: miter; stroke-linecap: square"/>
   </g>
   <g id="text_13">
    <text style="font: 8.8px 'Open Sans', sans-serif; text-anchor: middle" x="176.001875" y="13.886625" transform="rotate(-0 176.001875 13.886625)">AdEx_Markov</text>
   </g>
  </g>
  <g id="legend_1">
   <g id="patch_11">
    <path d="M 35.76625 122.279125 
L 171.9125 122.279125 
Q 173.5125 122.279125 173.5125 120.679125 
L 173.5125 109.486625 
Q 173.5125 107.886625 171.9125 107.886625 
L 35.76625 107.886625 
Q 34.16625 107.886625 34.16625 109.486625 
L 34.16625 120.679125 
Q 34.16625 122.279125 35.76625 122.279125 
z
" style="fill: #ffffff; opacity: 0.8; stroke: #cccccc; stroke-width: 0.24; stroke-linejoin: miter"/>
   </g>
   <g id="line2d_28">
    <path d="M 37.36625 114.365375 
L 45.36625 114.365375 
L 53.36625 114.365375 
" style="fill: none; stroke: #df87e1; stroke-width: 1.4; stroke-linecap: square"/>
   </g>
   <g id="text_14">
    <text style="font: 8px 'Open Sans', sans-serif; text-anchor: start" x="59.76625" y="117.165375" transform="rotate(-0 59.76625 117.165375)">1.0</text>
   </g>
   <g id="line2d_29">
    <path d="M 87.015 114.365375 
L 95.015 114.365375 
L 103.015 114.365375 
" style="fill: none; stroke: #af43ca; stroke-width: 1.4; stroke-linecap: square"/>
   </g>
   <g id="text_15">
    <text style="font: 8px 'Open Sans', sans-serif; text-anchor: start" x="109.415" y="117.165375" transform="rotate(-0 109.415 117.165375)">1.2</text>
   </g>
   <g id="line2d_30">
    <path d="M 136.66375 114.365375 
L 144.66375 114.365375 
L 152.66375 114.365375 
" style="fill: none; stroke: #8000b4; stroke-width: 1.4; stroke-linecap: square"/>
   </g>
   <g id="text_16">
    <text style="font: 8px 'Open Sans', sans-serif; text-anchor: start" x="159.06375" y="117.165375" transform="rotate(-0 159.06375 117.165375)">1.4</text>
   </g>
  </g>
 </g>
 <defs>
  <clipPath id="p4383c8c3fb">
   <rect x="42.869375" y="19.886625" width="36.305" height="56.18"/>
  </clipPath>
  <clipPath id="pb6ada129cf">
   <rect x="100.359375" y="19.886625" width="36.305" height="56.18"/>
  </clipPath>
  <clipPath id="p7b37f5732c">
   <rect x="157.849375" y="19.886625" width="36.305" height="56.18"/>
  </clipPath>
 </defs>
</svg>
