<?xml version="1.0" encoding="UTF-8" standalone="no"?>
<!-- Created with Inkscape (http://www.inkscape.org/) -->

<svg
   width="3.672425in"
   height="1.5124255in"
   viewBox="0 0 93.279596 38.415608"
   version="1.1"
   id="svg29826"
   inkscape:version="1.2.1 (9c6d41e410, 2022-07-14)"
   sodipodi:docname="logo.svg"
   inkscape:export-filename="C:\Users\johns\OneDrive - Georgia Institute of Technology\Rozell Lab\cleosim\logo-diamond-purple.png"
   inkscape:export-xdpi="200"
   inkscape:export-ydpi="200"
   xmlns:inkscape="http://www.inkscape.org/namespaces/inkscape"
   xmlns:sodipodi="http://sodipodi.sourceforge.net/DTD/sodipodi-0.dtd"
   xmlns="http://www.w3.org/2000/svg"
   xmlns:svg="http://www.w3.org/2000/svg">
  <sodipodi:namedview
     id="namedview29828"
     pagecolor="#ffffff"
     bordercolor="#999999"
     borderopacity="1"
     inkscape:pageshadow="0"
     inkscape:pageopacity="0"
     inkscape:pagecheckerboard="0"
     inkscape:document-units="in"
     showgrid="false"
     units="in"
     inkscape:snap-global="true"
     inkscape:snap-bbox="true"
     inkscape:bbox-nodes="true"
     inkscape:zoom="2.8284271"
     inkscape:cx="160.69002"
     inkscape:cy="107.48023"
     inkscape:window-width="1920"
     inkscape:window-height="1009"
     inkscape:window-x="-8"
     inkscape:window-y="-8"
     inkscape:window-maximized="1"
     inkscape:current-layer="g57319"
     showguides="false"
     inkscape:guide-bbox="true"
     inkscape:bbox-paths="false"
     inkscape:snap-bbox-edge-midpoints="false"
     fit-margin-top="0"
     fit-margin-left="0"
     fit-margin-right="0"
     fit-margin-bottom="0"
     inkscape:snap-bbox-midpoints="true"
     inkscape:object-nodes="true"
     inkscape:snap-nodes="false"
     inkscape:snap-others="true"
     inkscape:snap-to-guides="true"
     inkscape:snap-text-baseline="true"
     inkscape:showpageshadow="0"
     inkscape:deskcolor="#d1d1d1">
    <sodipodi:guide
       position="19.116146,4.3505044"
       orientation="0,-1"
       id="guide872"
       inkscape:locked="false" />
    <sodipodi:guide
       position="19.248438,34.116128"
       orientation="0,-1"
       id="guide874"
       inkscape:locked="false" />
  </sodipodi:namedview>
  <defs
     id="defs29823">
    <rect
       x="-85.472809"
       y="70.592926"
       width="87.549072"
       height="83.742584"
       id="rect18974" />
    <rect
       x="74.158119"
       y="108.50503"
       width="135.82645"
       height="49.959152"
       id="rect34315" />
    <inkscape:path-effect
       effect="spiro"
       id="path-effect10158"
       is_visible="true"
       lpeversion="1" />
  </defs>
  <g
     inkscape:label="Layer 1"
     inkscape:groupmode="layer"
     id="layer1"
     transform="translate(12.060285,-0.78959146)"
     style="display:inline">
    <path
       sodipodi:type="star"
       style="fill:#df87e1;stroke:#8000b4;stroke-width:1.81023;stroke-linejoin:round;stroke-opacity:1"
       id="path898"
       inkscape:flatsided="true"
       sodipodi:sides="4"
       sodipodi:cx="98.287842"
       sodipodi:cy="-4.9497476"
       sodipodi:r1="67.543503"
       sodipodi:r2="47.760471"
       sodipodi:arg1="1.5707963"
       sodipodi:arg2="2.3561945"
       inkscape:rounded="0"
       inkscape:randomized="0"
       d="M 98.287844,62.593755 30.744339,-4.9497458 98.28784,-72.49325 l 67.5435,67.5435006 z"
       transform="matrix(0.28063759,0,0,0.28061655,-20.434304,21.386377)" />
    <g
       id="g57319"
       transform="matrix(3.6243555,0,0,3.6243555,-23.768489,-47.349307)"
       style="stroke-width:0.275911">
      <g
         aria-label="cleo"
         transform="matrix(0.26458333,0,0,0.26458333,-16.341825,-16.249958)"
         id="text34313"
         style="font-weight:bold;font-size:40px;line-height:1.25;font-family:'Open Sans';-inkscape-font-specification:'Open Sans Bold';text-align:center;letter-spacing:0.403026px;white-space:pre;shape-inside:url(#rect34315)">
        <path
           d="m 120.16674,147.14062 q -2.08,0 -3.44,-1.32 -1.32,-1.28 -1.32,-3.96 0,-1.96 0.76,-3.84 0.76,-1.88 2.04,-3.36 1.28,-1.52 2.84,-2.4 1.6,-0.88 3.24,-0.88 1.68,0 2.4,0.84 0.76,0.84 0.76,1.96 0,1.12 -0.56,2.2 -0.52,1.04 -1.44,1.04 -0.76,0 -1.24,-0.76 0.4,-0.28 0.84,-1.04 0.44,-0.76 0.44,-1.96 0,-0.32 -0.16,-0.48 -0.16,-0.2 -0.6,-0.2 -1,0 -2.12,0.92 -1.08,0.88 -2.04,2.32 -0.92,1.4 -1.52,3 -0.56,1.56 -0.56,2.88 0,1.12 0.56,2.08 0.6,0.92 2.28,0.92 1.52,0 3.16,-0.88 1.64,-0.88 3.08,-2.44 1.44,-1.6 2.32,-3.8 l 0.8,0.72 q -0.96,2.44 -2.68,4.36 -1.68,1.88 -3.76,2.96 -2.04,1.12 -4.08,1.12 z"
           style="font-family:'Dancing Script';-inkscape-font-specification:'Dancing Script, Bold';fill:#c500cc"
           id="path442" />
        <path
           d="m 132.80978,146.10062 q -1.88,0 -2.64,-1.24 -0.72,-1.28 -0.72,-3 0,-1.96 0.72,-4.6 0.72,-2.64 1.88,-5.52 1.2,-2.92 2.6,-5.68 1.44,-2.8 2.88,-5.04 1.44,-2.24 2.64,-3.56 1.24,-1.36 2,-1.36 0.52,0 0.88,0.56 0.36,0.52 0.56,1.28 0.24,0.72 0.24,1.36 0,1.08 -0.56,2.84 -0.52,1.72 -1.52,3.8 -0.96,2.08 -2.32,4.28 -1.32,2.16 -2.96,4.12 -1.6,1.96 -3.44,3.4 -0.16,1 -0.32,2 -0.12,0.96 -0.12,1.76 0,1.44 0.48,2.12 0.48,0.64 1.24,0.64 1,0 2.04,-0.92 1.08,-0.96 2.04,-2.4 1,-1.48 1.72,-3.04 l 0.96,0.52 q -1.72,3.56 -3.84,5.64 -2.12,2.04 -4.44,2.04 z m 0.96,-10.84 q 1.36,-1.48 2.56,-3.2 1.24,-1.76 2.24,-3.56 1.04,-1.8 1.8,-3.48 0.76,-1.68 1.16,-3 0.44,-1.36 0.48,-2.16 0,-0.04 0,-0.04 0,-0.04 0,-0.08 -0.32,0 -1.04,0.92 -0.68,0.88 -1.64,2.44 -0.96,1.56 -2,3.56 -1,2 -1.96,4.24 -0.92,2.2 -1.6,4.36 z"
           style="font-family:'Dancing Script';-inkscape-font-specification:'Dancing Script, Bold';fill:#c500cc"
           id="path444" />
        <path
           d="m 144.21283,146.66062 q -2.56,0 -3.96,-1.4 -1.36,-1.36 -1.36,-3.44 0,-1.76 0.88,-3.72 0.92,-2 2.44,-3.72 1.52,-1.76 3.36,-2.84 1.84,-1.08 3.68,-1.08 1.04,0 1.96,0.56 0.96,0.52 0.96,2.12 0,1.52 -0.88,2.84 -0.88,1.32 -2.36,2.36 -1.48,1.04 -3.28,1.72 -1.76,0.64 -3.56,0.84 -0.04,0.16 -0.08,0.36 0,0.16 0,0.56 0,0.2 0.04,0.72 0.08,0.48 0.36,1.04 0.28,0.56 0.92,0.96 0.64,0.4 1.76,0.4 1.68,0 3.36,-0.92 1.72,-0.96 3.2,-2.52 1.52,-1.56 2.52,-3.48 l 0.8,0.64 q -1.08,2.4 -2.8,4.2 -1.68,1.8 -3.76,2.8 -2.04,1 -4.2,1 z m -1.68,-7.24 q 1.04,-0.12 2.32,-0.72 1.28,-0.6 2.44,-1.52 1.2,-0.92 1.96,-2 0.76,-1.12 0.76,-2.24 0,-0.44 -0.16,-0.6 -0.16,-0.16 -0.52,-0.16 -0.92,0 -1.92,0.68 -1,0.64 -1.96,1.72 -0.96,1.04 -1.72,2.32 -0.76,1.28 -1.2,2.52 z"
           style="font-family:'Dancing Script';-inkscape-font-specification:'Dancing Script, Bold';fill:#c500cc"
           id="path446" />
        <path
           d="m 156.25585,146.18062 q -1.8,0 -2.48,-1.2 -0.64,-1.16 -0.64,-2.56 0,-1.28 0.4,-2.6 0.4,-1.36 1.08,-2.52 0.72,-1.16 1.56,-1.84 0.88,-0.72 1.76,-0.72 0.28,0 0.64,0.12 0.4,0.08 0.56,0.28 -0.48,0.6 -1,1.48 -0.48,0.88 -0.92,1.88 -0.4,0.96 -0.64,1.96 -0.24,1 -0.24,1.84 0,0.8 0.28,1.32 0.32,0.52 1.08,0.52 0.76,0 1.8,-0.84 1.08,-0.88 2.04,-2 -1.28,-1.16 -1.84,-2.52 -0.56,-1.4 -0.56,-3.36 0,-0.84 0.4,-1.92 0.44,-1.08 1.36,-1.88 0.96,-0.8 2.56,-0.8 1.72,0 2.4,0.96 0.72,0.96 0.72,2.28 0,1.48 -0.8,3.32 -0.76,1.84 -1.84,3.48 0.48,0.24 1.12,0.24 0.6,0 1.44,-0.28 0.84,-0.28 1.64,-0.92 0.8,-0.68 1.28,-1.8 l 0.72,0.52 q -0.88,2.04 -2.36,3 -1.44,0.92 -2.84,0.92 -0.52,0 -1.04,-0.08 -0.52,-0.12 -0.96,-0.28 -1.36,1.6 -3.12,2.8 -1.76,1.2 -3.56,1.2 z m 6.32,-6.16 q 0.96,-1.4 1.64,-3 0.68,-1.6 0.68,-2.96 0,-0.92 -0.28,-1.32 -0.28,-0.44 -0.84,-0.44 -0.76,0 -1.56,1.08 -0.8,1.08 -0.8,2.72 0,0.84 0.28,2.04 0.32,1.2 0.88,1.88 z"
           style="font-family:'Dancing Script';-inkscape-font-specification:'Dancing Script, Bold';fill:#c500cc"
           id="path448" />
      </g>
    </g>
    <g
       id="g975"
       transform="translate(-50.698874,-11.852463)"
       style="stroke:#8000b4;stroke-opacity:1">
      <path
         d="m 60.30072,19.311381 c -0.02845,0.01543 -0.05881,0.03157 -0.06757,0.03574 -0.0096,0.0041 -0.01074,0.0098 -0.0021,0.01256 0.017,0.0063 -0.03977,0.04381 -0.06554,0.04326 -0.01074,-2.77e-4 -0.01871,0.01074 -0.01819,0.02448 4.39e-4,0.0145 -0.01251,0.02951 -0.03122,0.03582 -0.0416,0.01411 -0.08607,0.05255 -0.130248,0.112857 -0.01946,0.02654 -0.05271,0.06271 -0.07367,0.0803 -0.04779,0.0401 -0.103075,0.104227 -0.105525,0.122582 -0.001,0.0077 -0.0043,0.01052 -0.0096,0.006 -0.0043,-0.0044 -0.03838,0.02673 -0.07667,0.06916 -0.03838,0.04239 -0.1051,0.114712 -0.14803,0.160821 -0.50686,0.543091 -0.772842,0.833154 -0.783609,0.854243 -0.0075,0.01399 -0.01764,0.0264 -0.0232,0.02764 -0.0054,0.0015 -0.04566,0.03846 -0.08916,0.0827 l -0.07902,0.08052 0.415231,-0.03411 c 0.228367,-0.01875 0.422735,-0.03591 0.431792,-0.03808 0.0096,-0.0023 0.04106,-0.0048 0.0712,-0.0051 0.03005,-9.67e-4 0.171113,-0.01085 0.313155,-0.02254 l 0.258477,-0.02122 -0.08136,0.08741 c -0.04458,0.04807 -0.08671,0.09833 -0.09313,0.111882 -0.0075,0.01342 -0.01444,0.0214 -0.01764,0.01773 -0.0043,-0.0063 -0.132131,0.127826 -0.137615,0.145524 -10e-4,0.0043 -0.01074,0.0128 -0.02021,0.0187 -0.0096,0.0059 -0.0278,0.02569 -0.04042,0.04394 -0.01251,0.01824 -0.02651,0.03468 -0.03165,0.03661 -0.01646,0.0063 -0.344792,0.364246 -0.342911,0.373861 10e-4,0.0055 -0.0043,0.0121 -0.01304,0.01527 -0.02085,0.0079 -0.362391,0.376265 -0.394873,0.42565 -0.01455,0.02211 -0.02876,0.03747 -0.03165,0.03414 -0.0043,-0.0063 -0.13212,0.130456 -0.136749,0.146622 -0.001,0.0048 -0.0085,0.0114 -0.01507,0.01527 -0.0263,0.01458 -0.821897,0.880241 -0.836609,0.910177 -0.0085,0.01728 -0.01796,0.02848 -0.02096,0.02474 -0.0031,-0.0035 -0.02855,0.017 -0.05678,0.04596 l -0.05132,0.05253 0.144778,-0.01286 c 0.07977,-0.0069 0.155396,-0.01562 0.168377,-0.01887 0.01272,-0.0028 0.02876,-0.0048 0.03517,-0.0028 0.0075,0.0013 0.159651,-0.01063 0.340334,-0.02724 0.349754,-0.032 0.477446,-0.04306 0.54395,-0.04693 0.03688,-0.0021 -0.124112,0.165402 -1.464287,1.523623 -0.828227,0.839385 -1.49815,1.527446 -1.488751,1.529189 0.0096,0.0021 0.0043,0.0048 -0.01219,0.0063 -0.02716,0.0028 -0.02845,0.0013 -0.01679,-0.02254 0.0075,-0.01417 0.03111,-0.08665 0.05421,-0.161256 0.02287,-0.0746 0.05538,-0.176662 0.07217,-0.226814 0.01679,-0.05011 0.02331,-0.09383 0.01444,-0.09712 -0.0096,-0.0028 -0.0096,-0.0069 -10e-4,-0.0083 0.01519,-0.0021 0.05453,-0.10717 0.122229,-0.325026 0.02042,-0.06567 0.04651,-0.149346 0.05784,-0.186055 0.01176,-0.03656 0.01411,-0.06904 0.0075,-0.07211 -0.0085,-0.0028 -0.0075,-0.0055 0.0043,-0.0055 0.02085,2.77e-4 0.04758,-0.09691 0.02962,-0.10783 -0.0075,-0.0035 -0.0031,-0.0063 0.0075,-0.0063 0.01817,2.76e-4 0.123598,-0.320658 0.110237,-0.336272 -0.0043,-0.0055 -0.0021,-0.01203 0.0043,-0.01473 0.0075,-0.0028 0.03026,-0.06179 0.05186,-0.131423 0.04801,-0.155684 0.05656,-0.182454 0.09933,-0.31553 0.01871,-0.05834 0.0263,-0.108804 0.017,-0.112305 -0.0096,-0.0035 -0.0085,-0.0063 0.0031,-0.0063 0.02331,3.94e-4 0.198292,-0.545607 0.177282,-0.553244 -0.0085,-0.0028 -0.0085,-0.0063 5.77e-4,-0.0077 0.01817,-0.0028 0.0882,-0.20015 0.07399,-0.209211 -0.0075,-0.0035 -0.0021,-0.01473 0.0075,-0.02495 0.0096,-0.01018 0.02855,-0.05668 0.04223,-0.103243 l 0.02491,-0.08467 -0.153001,0.01265 c -0.08414,0.0069 -0.16443,0.01576 -0.17863,0.01943 -0.014,0.0048 -0.03752,0.0048 -0.05197,0.0021 -0.01444,-0.0021 -0.03357,-0.0021 -0.04245,0.0013 -0.0096,0.0035 -0.03946,0.0075 -0.06822,0.0086 -0.118969,0.0055 -0.478965,0.03932 -0.499493,0.04713 -0.01209,0.0048 0.0043,-0.03712 0.03711,-0.09297 0.03261,-0.05585 0.06949,-0.12673 0.082,-0.157543 0.01251,-0.03083 0.02876,-0.0582 0.03571,-0.06097 0.0075,-0.0028 0.0123,-0.009 0.01176,-0.01396 -5.78e-4,-0.0055 0.02225,-0.05018 0.05132,-0.100725 0.02887,-0.05059 0.05656,-0.103679 0.06137,-0.118105 0.0043,-0.01445 0.02556,-0.05177 0.04619,-0.08292 0.02042,-0.03131 0.02941,-0.05964 0.01989,-0.06317 -0.0096,-0.0035 -0.0096,-0.0063 0.0021,-0.0063 0.01742,2.76e-4 0.06266,-0.07189 0.120338,-0.193264 0.01282,-0.02668 0.03165,-0.06027 0.04192,-0.07461 0.01074,-0.01431 0.0355,-0.05916 0.05646,-0.09974 0.02063,-0.0405 0.07548,-0.142897 0.121705,-0.227464 0.04641,-0.08455 0.07902,-0.157322 0.07249,-0.161691 -0.0075,-0.0048 -0.0043,-0.0077 0.0043,-0.0075 0.01518,2.77e-4 0.381392,-0.656821 0.450792,-0.809119 0.01892,-0.0412 0.0402,-0.07714 0.04737,-0.07997 0.0075,-0.0028 0.0123,-0.0093 0.01165,-0.01446 -5.76e-4,-0.005 0.0123,-0.03128 0.0293,-0.05823 l 0.03111,-0.04895 -0.09163,0.0067 c -0.05036,0.0037 -0.09505,0.01085 -0.09933,0.01606 -0.0043,0.0053 -0.01251,0.0068 -0.01882,0.0037 -0.01197,-0.0063 -0.312663,0.01984 -0.357976,0.03113 -0.01455,0.0037 -0.04608,0.0068 -0.07045,0.007 -0.02437,2.73e-4 -0.138118,0.01052 -0.253163,0.02254 l -0.20907,0.02207 0.0043,-0.04478 c 0.0031,-0.02466 0.0085,-0.04927 0.01208,-0.05462 0.01935,-0.02883 0.02747,-0.103791 0.01209,-0.109475 -0.01074,-0.0034 -0.0096,-0.0063 0.001,-0.0062 0.01742,2.74e-4 0.126828,-0.399211 0.11232,-0.411014 -0.0031,-0.0027 -10e-4,-0.03193 0.0075,-0.06467 0.0075,-0.03278 0.0043,-0.06239 -0.0075,-0.06588 -0.0096,-0.0035 -0.0085,-0.006 0.0021,-0.0059 0.01646,2.73e-4 0.18652,-0.519926 0.175572,-0.53708 -0.0021,-0.0031 0.0096,-0.03726 0.02416,-0.07615 0.03208,-0.08237 -0.04918,-0.08369 -0.05089,-0.114058 -10e-4,-0.01802 3.818867,-0.231724 3.771855,-0.205942 z"
         fill="#4bb7ee"
         stroke="none"
         stroke-width="2.00001"
         vector-effect="non-scaling-stroke"
         id="path5726-1"
         style="display:inline;fill:#8000b4;fill-opacity:1;stroke:none;stroke-opacity:1"
         inkscape:export-filename="C:\Users\johns\Downloads\image26557.png"
         inkscape:export-xdpi="96"
         inkscape:export-ydpi="96" />
      <circle
         style="fill:none;stroke:#8000b4;stroke-width:1;stroke-linejoin:round;stroke-miterlimit:4;stroke-dasharray:none;stroke-opacity:1"
         id="circle966"
         cx="57.847763"
         cy="22.613003"
         mask="none"
         r="5.1499996" />
    </g>
    <g
       id="g1147"
       transform="translate(-28.070143,-24.176958)"
       style="stroke:#8000b4;stroke-opacity:1">
      <g
         id="g10242"
         transform="matrix(-0.36733821,0,0,0.35621192,82.955646,28.330384)"
         style="display:inline;stroke:#8000b4;stroke-width:1.38224;stroke-miterlimit:4;stroke-dasharray:none;stroke-opacity:1"
         inkscape:label="electrode"
         inkscape:export-filename="C:\Users\johns\Downloads\image26557.png"
         inkscape:export-xdpi="96"
         inkscape:export-ydpi="96">
        <path
           style="fill:#000000;stroke:#8000b4;stroke-width:1.38224;stroke-linecap:butt;stroke-linejoin:miter;stroke-miterlimit:4;stroke-dasharray:none;stroke-opacity:1"
           d="m 134.13523,65.00624 4.24413,12.732401 v 0 l -5.31633,-12.330325 z"
           id="path9770"
           sodipodi:nodetypes="ccccc" />
        <path
           style="fill:none;stroke:#8000b4;stroke-width:1.38224;stroke-linecap:butt;stroke-linejoin:miter;stroke-miterlimit:4;stroke-dasharray:none;stroke-opacity:1"
           d="m 133.06303,65.408317 c -0.97497,-1.051268 -2.3659,-1.705826 -3.79738,-1.787004 -1.12083,-0.06356 -2.25625,0.217857 -3.22731,0.781187 -0.97106,0.563331 -1.77586,1.404633 -2.31241,2.390744 -0.51285,0.942554 -0.78281,2.03512 -0.64988,3.099901 0.13292,1.06478 0.69357,2.091891 1.58493,2.689315 0.44567,0.298711 0.96695,0.487032 1.50197,0.527127 0.53502,0.0401 1.08252,-0.06993 1.55355,-0.326816 0.47103,-0.256883 0.86262,-0.661489 1.09067,-1.14713 0.22806,-0.485641 0.28885,-1.0505 0.15515,-1.570096 -0.15331,-0.595783 -0.55156,-1.109297 -1.03996,-1.483355 -0.48841,-0.374057 -1.06386,-0.619083 -1.64994,-0.806093 -2.5465,-0.812557 -5.41785,-0.548525 -7.77347,0.714801"
           id="path10156"
           inkscape:original-d="m 133.06303,65.408317 c -1.26606,-0.595405 -2.53186,-1.191072 -3.79738,-1.787004 -1.26553,-0.595932 -3.69341,2.114886 -5.53972,3.171931 -1.8463,1.057044 3.44913,2.096123 5.23639,3.272301 1.78727,1.176179 -1.75199,-1.440358 -2.6899,-2.289448 -0.93792,-0.849093 -5.18258,0.476797 -7.77347,0.714801"
           inkscape:path-effect="#path-effect10158"
           sodipodi:nodetypes="cssssc" />
      </g>
      <circle
         style="fill:none;stroke:#8000b4;stroke-width:1;stroke-linejoin:round;stroke-miterlimit:4;stroke-dasharray:none;stroke-opacity:1"
         id="circle966-0-0"
         cx="35.219032"
         cy="53.411213"
         mask="none"
         r="5.1499996" />
    </g>
    <g
       id="g1125"
       transform="translate(-49.847631,-21.28914)"
       style="stroke:#8000b4;stroke-opacity:1">
      <circle
         style="fill:none;stroke:#8000b4;stroke-width:1;stroke-linejoin:round;stroke-miterlimit:4;stroke-dasharray:none;stroke-opacity:1"
         id="circle966-0"
         cx="65.754166"
         cy="41.286537"
         mask="none"
         r="5.1499996" />
      <g
         id="g1346"
         transform="matrix(0.01321864,0,0,0.01321864,62.516921,38.049292)"
         style="fill:#000000;stroke:#8000b4;stroke-opacity:1">
        <g
           id="g1292"
           style="fill:#000000;stroke:#8000b4;stroke-opacity:1">
          <path
             d="m 489.8,53.85 c 0,-19.6 -16,-35.6 -35.6,-35.6 H 35.6 C 16,18.25 0,34.25 0,53.85 v 262.7 c 0,0.1 0,0.3 0,0.4 v 47.6 c 0,0.2 0,0.4 0,0.6 v 2.6 c 0,0.2 0,0.4 0,0.6 v 0.7 0 c 0.6,16.8 14.4,30.1 31.3,30.1 h 158.9 c -0.3,7 -4.2,39 -52,45 h 1.5 c -7.5,0 -13.7,6.1 -13.7,13.7 0,7.6 6.1,13.7 13.7,13.7 H 349 c 7.5,0 13.7,-6.1 13.7,-13.7 0,-7.6 -6.1,-13.7 -13.7,-13.7 h 2.3 c -47.7,-6 -51.7,-38 -52,-45 h 158.9 c 16.9,0 30.7,-13.4 31.3,-30.1 v 0 -58.7 0 -256.5 z m -244.9,323.1 c -9.6,0 -17.4,-7.8 -17.4,-17.4 0,-9.6 7.8,-17.4 17.4,-17.4 9.6,0 17.4,7.8 17.4,17.4 0,9.6 -7.8,17.4 -17.4,17.4 z m 178,-64.5 H 66.9 V 84.95 h 356 z"
             id="path1290"
             style="fill:#8000b4;stroke:#8000b4;stroke-opacity:1" />
        </g>
        <g
           id="g1294"
           style="fill:#000000;stroke:#8000b4;stroke-opacity:1" />
        <g
           id="g1296"
           style="fill:#000000;stroke:#8000b4;stroke-opacity:1" />
        <g
           id="g1298"
           style="fill:#000000;stroke:#8000b4;stroke-opacity:1" />
        <g
           id="g1300"
           style="fill:#000000;stroke:#8000b4;stroke-opacity:1" />
        <g
           id="g1302"
           style="fill:#000000;stroke:#8000b4;stroke-opacity:1" />
        <g
           id="g1304"
           style="fill:#000000;stroke:#8000b4;stroke-opacity:1" />
        <g
           id="g1306"
           style="fill:#000000;stroke:#8000b4;stroke-opacity:1" />
        <g
           id="g1308"
           style="fill:#000000;stroke:#8000b4;stroke-opacity:1" />
        <g
           id="g1310"
           style="fill:#000000;stroke:#8000b4;stroke-opacity:1" />
        <g
           id="g1312"
           style="fill:#000000;stroke:#8000b4;stroke-opacity:1" />
        <g
           id="g1314"
           style="fill:#000000;stroke:#8000b4;stroke-opacity:1" />
        <g
           id="g1316"
           style="fill:#000000;stroke:#8000b4;stroke-opacity:1" />
        <g
           id="g1318"
           style="fill:#000000;stroke:#8000b4;stroke-opacity:1" />
        <g
           id="g1320"
           style="fill:#000000;stroke:#8000b4;stroke-opacity:1" />
        <g
           id="g1322"
           style="fill:#000000;stroke:#8000b4;stroke-opacity:1" />
      </g>
    </g>
    <g
       id="g26555"
       transform="matrix(0.69138637,0,0,0.68352453,-141.38071,-51.423861)"
       style="display:inline;stroke:#8000b4;stroke-width:1.45466;stroke-opacity:1"
       inkscape:export-filename="C:\Users\johns\Downloads\image26557.png"
       inkscape:export-xdpi="96"
       inkscape:export-ydpi="96">
      <ellipse
         style="fill:none;stroke:#8000b4;stroke-width:1.45466;stroke-linejoin:round;stroke-miterlimit:4;stroke-dasharray:none;stroke-opacity:1"
         id="path23608"
         cx="202.16183"
         cy="104.48968"
         rx="7.4444628"
         ry="7.5386496" />
      <g
         id="g1736">
        <circle
           style="fill:#8000b4;stroke:#8000b4;stroke-width:1.45466;stroke-linejoin:round;stroke-miterlimit:4;stroke-dasharray:none;stroke-opacity:1"
           id="path23610"
           cx="203.72763"
           cy="101.09129"
           r="0.5" />
        <circle
           style="display:inline;fill:#8000b4;stroke:#8000b4;stroke-width:1.45466;stroke-linejoin:round;stroke-miterlimit:4;stroke-dasharray:none;stroke-opacity:1"
           id="path23610-4"
           cx="206.80005"
           cy="104.57974"
           r="0.5" />
        <circle
           style="display:inline;fill:#8000b4;stroke:#8000b4;stroke-width:1.45466;stroke-linejoin:round;stroke-miterlimit:4;stroke-dasharray:none;stroke-opacity:1"
           id="path23610-6"
           cx="201.77859"
           cy="105.08523"
           r="0.5" />
        <circle
           style="display:inline;fill:#8000b4;stroke:#8000b4;stroke-width:1.45466;stroke-linejoin:round;stroke-miterlimit:4;stroke-dasharray:none;stroke-opacity:1"
           id="path23610-60"
           cx="200.42778"
           cy="109.20773"
           r="0.5" />
        <circle
           style="display:inline;fill:#8000b4;stroke:#8000b4;stroke-width:1.45466;stroke-linejoin:round;stroke-miterlimit:4;stroke-dasharray:none;stroke-opacity:1"
           id="path23610-3"
           cx="198.54137"
           cy="101.35713"
           r="0.5" />
        <path
           style="fill:#ffffff;fill-rule:evenodd;stroke:#8000b4;stroke-width:0.363666;stroke-linecap:butt;stroke-linejoin:miter;stroke-miterlimit:4;stroke-dasharray:none;stroke-opacity:1"
           d="m 199.00715,101.53889 7.32711,2.8591"
           id="path23797"
           inkscape:connector-type="polyline"
           inkscape:connector-curvature="50"
           inkscape:connection-start="#path23610-3"
           inkscape:connection-end="#path23610-4"
           sodipodi:nodetypes="cac" />
        <path
           style="fill:#ffffff;fill-rule:evenodd;stroke:#8000b4;stroke-width:0.363666;stroke-linecap:butt;stroke-linejoin:miter;stroke-miterlimit:4;stroke-dasharray:none;stroke-opacity:1"
           d="m 201.77859,105.08523 v 0"
           id="path23799"
           inkscape:connector-type="polyline"
           inkscape:connector-curvature="50"
           inkscape:connection-start="#path23610-6"
           inkscape:connection-end="#path23610-6" />
        <path
           style="fill:#ffffff;fill-rule:evenodd;stroke:#8000b4;stroke-width:0.363666;stroke-linecap:butt;stroke-linejoin:miter;stroke-miterlimit:4;stroke-dasharray:none;stroke-opacity:1"
           d="m 198.86919,101.73466 2.58159,2.97304"
           id="path23801"
           inkscape:connector-type="polyline"
           inkscape:connector-curvature="50"
           sodipodi:nodetypes="cac"
           inkscape:connection-end="#path23610-6"
           inkscape:connection-start="#path23610-3" />
        <path
           style="fill:#ffffff;fill-rule:evenodd;stroke:#8000b4;stroke-width:0.363666;stroke-linecap:butt;stroke-linejoin:miter;stroke-miterlimit:4;stroke-dasharray:none;stroke-opacity:1"
           d="m 203.22829,101.11689 -4.18758,0.21465"
           id="path23803"
           inkscape:connector-type="polyline"
           inkscape:connector-curvature="50"
           inkscape:connection-start="#path23610"
           inkscape:connection-end="#path23610-3"
           sodipodi:nodetypes="cac" />
        <path
           style="fill:#ffffff;fill-rule:evenodd;stroke:#8000b4;stroke-width:0.363666;stroke-linecap:butt;stroke-linejoin:miter;stroke-miterlimit:4;stroke-dasharray:none;stroke-opacity:1"
           d="m 201.62291,105.56037 -1.03944,3.17223"
           id="path23805"
           inkscape:connector-type="polyline"
           inkscape:connector-curvature="50"
           sodipodi:nodetypes="cac"
           inkscape:connection-end="#path23610-60"
           inkscape:connection-start="#path23610-6" />
        <path
           style="fill:#ffffff;fill-rule:evenodd;stroke:#8000b4;stroke-width:0.363666;stroke-linecap:butt;stroke-linejoin:miter;stroke-miterlimit:4;stroke-dasharray:none;stroke-opacity:1"
           d="m 206.39549,104.87356 -5.56315,4.04036"
           id="path25403"
           inkscape:connector-type="polyline"
           inkscape:connector-curvature="50"
           sodipodi:nodetypes="cac"
           inkscape:connection-end="#path23610-60"
           inkscape:connection-start="#path23610-4" />
        <path
           style="fill:#ffffff;fill-rule:evenodd;stroke:#8000b4;stroke-width:0.363666;stroke-linecap:butt;stroke-linejoin:miter;stroke-miterlimit:4;stroke-dasharray:none;stroke-opacity:1"
           d="m 201.99788,104.63588 1.51047,-3.09524"
           id="path25942"
           inkscape:connector-type="polyline"
           inkscape:connector-curvature="50"
           inkscape:connection-start="#path23610-6"
           inkscape:connection-end="#path23610" />
      </g>
    </g>
  </g>
</svg>
